<svg width="15" height="14" viewBox="0 0 15 14" fill="none" xmlns="http://www.w3.org/2000/svg">
<path fill-rule="evenodd" clip-rule="evenodd" d="M9.63395 10.1181L10.2587 10.7428L10.2181 10.7833C10.1587 10.8427 10.1587 10.9391 10.2181 10.9985C10.2181 10.9985 11.7837 12.5641 12.8266 13.607C12.9808 13.7612 13.19 13.8478 13.408 13.8478C13.6262 13.8478 13.8354 13.7612 13.9896 13.607L14.1071 13.4894C14.2614 13.3352 14.348 13.126 14.348 12.9079C14.348 12.6898 14.2614 12.4806 14.1071 12.3264C13.0643 11.2836 11.4987 9.71793 11.4987 9.71793C11.4393 9.65852 11.3429 9.65852 11.2835 9.71793L11.243 9.75847L10.6183 9.13377C11.3516 8.19053 11.7884 7.00595 11.7884 5.7202C11.7884 2.64708 9.29345 0.152161 6.22039 0.152161C3.14727 0.152161 0.652344 2.64708 0.652344 5.7202C0.652344 8.79326 3.14727 11.2882 6.22039 11.2882C7.50613 11.2882 8.69072 10.8514 9.63395 10.1181ZM11.3911 10.0407L13.8919 12.5416C13.989 12.6388 14.0436 12.7705 14.0436 12.9079C14.0436 13.0453 13.989 13.177 13.8919 13.2742C13.8529 13.3133 13.8134 13.3527 13.7744 13.3917C13.6772 13.4889 13.5455 13.5435 13.408 13.5435C13.2707 13.5435 13.1389 13.4889 13.0418 13.3917L10.5409 10.8909L11.3911 10.0407ZM12.6628 11.653L12.4906 11.4808C12.4312 11.4214 12.3347 11.4214 12.2753 11.4808C12.216 11.5402 12.216 11.6366 12.2753 11.696L12.4475 11.8682C12.5069 11.9276 12.6034 11.9276 12.6628 11.8682C12.7222 11.8088 12.7222 11.7124 12.6628 11.653ZM12.0759 11.0661L11.4911 10.4814C11.4318 10.422 11.3353 10.422 11.276 10.4814C11.2166 10.5408 11.2166 10.6372 11.276 10.6966L11.8607 11.2813C11.92 11.3407 12.0164 11.3407 12.0759 11.2813C12.1353 11.2219 12.1353 11.1255 12.0759 11.0661ZM6.22039 0.456508C9.12545 0.456508 11.484 2.81508 11.484 5.7202C11.484 8.62526 9.12545 10.9838 6.22039 10.9838C3.31527 10.9838 0.956692 8.62526 0.956692 5.7202C0.956692 2.81508 3.31527 0.456508 6.22039 0.456508ZM6.22039 0.816248C3.51382 0.816248 1.31643 3.01364 1.31643 5.7202C1.31643 8.42677 3.51382 10.6241 6.22039 10.6241C8.92695 10.6241 11.1243 8.42677 11.1243 5.7202C11.1243 3.01364 8.92695 0.816248 6.22039 0.816248ZM10.424 9.36994C10.2526 9.56728 10.0675 9.75239 9.87013 9.92386L10.4738 10.5276L11.0277 9.97365L10.424 9.36994ZM6.22039 1.1206C8.75895 1.1206 10.8199 3.18158 10.8199 5.7202C10.8199 8.25877 8.75895 10.3198 6.22039 10.3198C3.68176 10.3198 1.62078 8.25877 1.62078 5.7202C1.62078 3.18158 3.68176 1.1206 6.22039 1.1206ZM6.96598 9.62365C6.72445 9.66954 6.47519 9.69359 6.22039 9.69359C6.13639 9.69359 6.06821 9.76176 6.06821 9.84576C6.06821 9.92976 6.13639 9.99793 6.22039 9.99793C6.4946 9.99793 6.76286 9.97206 7.02283 9.92264C7.10537 9.90693 7.1596 9.82719 7.1439 9.74472C7.1282 9.66218 7.04852 9.60794 6.96598 9.62365ZM9.55525 7.88004C9.06482 8.63519 8.32507 9.21375 7.45293 9.49844C7.37313 9.52449 7.32943 9.61044 7.35548 9.6903C7.3816 9.77016 7.46754 9.8138 7.5474 9.78775C8.4862 9.48127 9.28261 8.85864 9.81047 8.04579C9.85625 7.97536 9.83616 7.88107 9.76573 7.8353C9.69531 7.78959 9.60096 7.80961 9.55525 7.88004ZM5.9105 4.10838C5.2654 3.98889 4.60278 4.21119 4.1602 4.69863C3.90491 4.97979 3.67464 5.23337 3.67464 5.23337C3.63154 5.28085 3.62284 5.35024 3.65285 5.40691C3.68286 5.46352 3.74519 5.49529 3.80867 5.48634C3.80867 5.48634 3.91221 5.47167 4.04947 5.45219C4.36332 5.4077 4.68179 5.41939 4.99009 5.48573C4.92253 5.65787 4.86829 5.82307 4.82306 5.97245C4.80681 6.02613 4.82148 6.08445 4.86111 6.12407L4.93275 6.19572C4.79914 6.22067 4.67144 6.28483 4.56814 6.38806C4.48244 6.47383 4.39832 6.63154 4.32807 6.81342C4.18113 7.19404 4.08253 7.68185 4.08253 7.68185C4.07248 7.73176 4.08807 7.7835 4.1241 7.81953C4.16013 7.85557 4.21187 7.87115 4.26179 7.86111C4.26179 7.86111 4.7496 7.7625 5.13021 7.61556C5.31209 7.54532 5.4698 7.46119 5.55557 7.37549C5.6588 7.27219 5.72296 7.14449 5.74792 7.01088L5.81956 7.08253C5.85919 7.12215 5.9175 7.13682 5.97119 7.12057C6.12056 7.07534 6.28576 7.02111 6.4579 6.95354C6.52425 7.26185 6.53593 7.58032 6.49144 7.89416C6.47196 8.03142 6.45729 8.13496 6.45729 8.13496C6.44834 8.19845 6.48012 8.26078 6.53673 8.29079C6.5934 8.32079 6.66279 8.31209 6.71027 8.269C6.71027 8.269 6.96385 8.03873 7.245 7.78344C7.73245 7.34086 7.95474 6.67823 7.83526 6.03313C8.34979 5.47374 8.67915 4.86273 8.77721 4.35788C8.85707 3.94701 8.78452 3.60073 8.56374 3.37989C8.34291 3.15912 7.99662 3.08656 7.58575 3.16642C7.0809 3.26448 6.46989 3.59385 5.9105 4.10838ZM7.56098 6.30595C7.30612 6.53068 7.02161 6.70045 6.74234 6.8315C6.81453 7.137 6.83809 7.45225 6.81198 7.76554L7.04042 7.5581C7.39499 7.23616 7.58246 6.77556 7.56098 6.30595ZM4.4338 7.50983C4.47447 7.34493 4.53637 7.11893 4.61197 6.92305C4.66413 6.78792 4.71971 6.66697 4.78338 6.6033C4.93707 6.4496 5.18664 6.4496 5.34033 6.6033C5.49403 6.75699 5.49403 7.00656 5.34033 7.16026C5.27666 7.22393 5.15572 7.2795 5.02059 7.33166C4.82471 7.40726 4.5987 7.46917 4.4338 7.50983ZM10.1938 5.7202C10.1938 6.15037 10.1253 6.56465 9.99862 6.95275C9.97257 7.03261 10.0162 7.11856 10.096 7.14467C10.1759 7.17073 10.2619 7.12702 10.2879 7.04722C10.4243 6.62935 10.4981 6.1833 10.4981 5.7202C10.4981 5.6362 10.4299 5.56803 10.3459 5.56803C10.2619 5.56803 10.1938 5.6362 10.1938 5.7202ZM5.14117 5.97366C5.28494 5.51623 5.51728 4.92573 5.97155 4.47146C6.52084 3.92218 7.13812 3.56341 7.64382 3.46517C7.93794 3.40801 8.19043 3.43705 8.34851 3.59513C8.50659 3.7532 8.53562 4.00569 8.47847 4.29981C8.38022 4.80552 8.02146 5.42279 7.47217 5.97208C7.0179 6.42635 6.42734 6.65869 5.96991 6.80246L5.14117 5.97366ZM2.24694 5.7202C2.24694 5.6065 2.25175 5.49389 2.26113 5.38262C2.26819 5.29893 2.20598 5.22527 2.12228 5.21821C2.03859 5.21115 1.96487 5.27336 1.95787 5.35706C1.94777 5.47679 1.9426 5.59786 1.9426 5.7202C1.9426 5.80414 2.01083 5.87238 2.09477 5.87238C2.17877 5.87238 2.24694 5.80414 2.24694 5.7202ZM7.5426 4.40104C7.31178 4.17022 6.93694 4.17022 6.70613 4.40104C6.47531 4.63186 6.47531 5.00669 6.70613 5.23751C6.93694 5.46833 7.31178 5.46833 7.5426 5.23751C7.77341 5.00669 7.77341 4.63186 7.5426 4.40104ZM5.63768 4.38266C5.16807 4.36117 4.70747 4.54865 4.38553 4.90321L4.17809 5.13166C4.49139 5.10554 4.80663 5.1291 5.11213 5.20129C5.24331 4.9219 5.41301 4.63739 5.63768 4.38266ZM7.32736 4.61627C7.43942 4.72827 7.43942 4.91021 7.32736 5.02227C7.21536 5.13433 7.03342 5.13433 6.92136 5.02227C6.8093 4.91021 6.8093 4.72827 6.92136 4.61627C7.03342 4.50421 7.21536 4.50421 7.32736 4.61627ZM2.35359 4.80253C2.41062 4.5618 2.48951 4.32952 2.58818 4.10789C2.62233 4.03119 2.58775 3.94117 2.511 3.90702C2.4343 3.87287 2.34427 3.90745 2.31013 3.9842C2.20385 4.22287 2.11887 4.47311 2.05746 4.73241C2.0381 4.81416 2.08874 4.89621 2.17049 4.91557C2.25218 4.93493 2.33429 4.88428 2.35359 4.80253ZM2.83981 3.63232C3.54054 2.50106 4.79306 1.74676 6.22039 1.74676C6.30433 1.74676 6.37256 1.67859 6.37256 1.59459C6.37256 1.51065 6.30433 1.44241 6.22039 1.44241C4.68386 1.44241 3.33541 2.25423 2.58112 3.47205C2.53687 3.54345 2.55896 3.63731 2.63036 3.68156C2.70176 3.72575 2.79562 3.70372 2.83981 3.63232Z" fill="#6E9AEF"/>
</svg>
