<svg width="19" height="19" viewBox="0 0 19 19" fill="none" xmlns="http://www.w3.org/2000/svg">
<g clip-path="url(#clip0_314_2541)">
<path d="M12.6578 11.0007C12.7045 10.985 12.7487 10.9645 12.7962 10.9507L17.7695 9.5L12.7962 8.04959C12.7487 8.03581 12.7045 8.01528 12.6578 7.99953L15.2158 3.335L10.5512 5.89297C10.5355 5.84628 10.515 5.80212 10.5012 5.75459L9.05078 0.78125L7.60038 5.75459C7.58659 5.80212 7.56606 5.84628 7.55031 5.89297L2.88578 3.335L5.44375 7.99953C5.39706 8.01528 5.35291 8.03581 5.30538 8.04959L0.332031 9.5L5.30538 10.9504C5.35291 10.9642 5.39706 10.9847 5.44375 11.0005L2.88578 15.665L7.55031 13.107C7.56606 13.1537 7.58659 13.1979 7.60038 13.2454L9.05078 18.2188L10.5012 13.2454C10.515 13.1979 10.5355 13.1537 10.5512 13.107L15.2158 15.665L12.6578 11.0007ZM15.0169 3.53384L12.4446 7.92219C11.6234 7.58019 10.9709 6.92769 10.6289 6.10644L15.0169 3.53384ZM3.08463 3.53384L7.47297 6.10644C7.13097 6.92769 6.47847 7.58019 5.65722 7.92219L3.08463 3.53384ZM3.08463 15.4662L5.65722 11.0778C6.47847 11.4198 7.13097 12.0723 7.47297 12.8936L3.08463 15.4662ZM12.4446 11.0778L15.0172 15.4662L10.6286 12.8938C10.9709 12.0723 11.6231 11.4201 12.4446 11.0778Z" fill="#6E9AEF"/>
</g>
<defs>
<clipPath id="clip0_314_2541">
<rect width="18" height="18" fill="white" transform="translate(0.0507812 0.5)"/>
</clipPath>
</defs>
</svg>
