<svg width="18" height="18" viewBox="0 0 18 18" fill="none" xmlns="http://www.w3.org/2000/svg">
<path d="M3.66602 1.97858C2.73536 1.97858 1.97852 2.73542 1.97852 3.66608C1.97852 4.59673 2.73536 5.35358 3.66602 5.35358C4.59667 5.35358 5.35352 4.59673 5.35352 3.66608C5.35352 2.73542 4.59667 1.97858 3.66602 1.97858ZM3.66602 4.79108C3.04558 4.79108 2.54102 4.28651 2.54102 3.66608C2.54102 3.04564 3.04558 2.54108 3.66602 2.54108C4.28645 2.54108 4.79102 3.04564 4.79102 3.66608C4.79102 4.28651 4.28645 4.79108 3.66602 4.79108Z" fill="#6E9AEF"/>
<path d="M16.2297 13.6988L15.832 13.3011L13.7809 15.3523L13.4172 14.9886L13.0195 15.3863L13.7809 16.1476L16.2297 13.6988Z" fill="#6E9AEF"/>
<path d="M9.84375 3.37497H10.4062V3.93747H9.84375V3.37497Z" fill="#6E9AEF"/>
<path d="M13.2188 3.37497H13.7812V3.93747H13.2188V3.37497Z" fill="#6E9AEF"/>
<path d="M12.0938 3.37497H12.6562V3.93747H12.0938V3.37497Z" fill="#6E9AEF"/>
<path d="M10.9688 3.37497H11.5312V3.93747H10.9688V3.37497Z" fill="#6E9AEF"/>
<path d="M6.75 10.4063H11.25C11.7152 10.4063 12.0938 10.0277 12.0938 9.56251V9.28126H15.75C16.8353 9.28126 17.7188 8.39814 17.7188 7.31251V5.34376C17.7188 4.25814 16.8353 3.37501 15.75 3.37501H14.9062V3.09376C14.9062 2.62858 14.5277 2.25001 14.0625 2.25001H9.5625C9.09731 2.25001 8.71875 2.62858 8.71875 3.09376V3.37501H7.04109V2.88901L6.30281 2.68736C6.27863 2.62267 6.25163 2.55826 6.22237 2.4947L6.60234 1.82926L5.50322 0.730138L4.83806 1.10983C4.77422 1.08058 4.71009 1.05358 4.64541 1.02939L4.44347 0.291107H2.889L2.68706 1.02939C2.62238 1.05358 2.55825 1.08029 2.49469 1.10983L1.82925 0.730138L0.730125 1.82926L1.10981 2.4947C1.08056 2.55826 1.05356 2.62267 1.02938 2.68736L0.291094 2.88901V4.4432L1.02938 4.64514C1.05356 4.70983 1.08056 4.77423 1.10981 4.83779L0.729844 5.50323L1.82897 6.60208L2.49441 6.22239C2.55797 6.25164 2.62209 6.27864 2.68678 6.30283L2.88872 7.04111H4.44319L4.64513 6.30283C4.70953 6.27864 4.77394 6.25164 4.83778 6.22239L5.50294 6.60179L6.60206 5.50295L6.22209 4.83751C6.25134 4.77395 6.27834 4.70954 6.30253 4.64486L7.04081 4.44292V3.93751H8.71875V4.21876C8.71875 4.68395 9.09731 5.06251 9.5625 5.06251H14.0625C14.5277 5.06251 14.9062 4.68395 14.9062 4.21876V3.93751H15.75C16.5254 3.93751 17.1562 4.56836 17.1562 5.34376V7.31251C17.1562 8.08792 16.5254 8.71876 15.75 8.71876H12.0938V8.43751C12.0938 7.97233 11.7152 7.59376 11.25 7.59376H6.75C6.28481 7.59376 5.90625 7.97233 5.90625 8.43751V8.71876H2.25C1.16466 8.71876 0.28125 9.60217 0.28125 10.6875V12.9375C0.28125 14.0229 1.16466 14.9063 2.25 14.9063H3.09375V15.1875C3.09375 15.6527 3.47231 16.0313 3.9375 16.0313H8.4375C8.90269 16.0313 9.28125 15.6527 9.28125 15.1875V14.9063H11.5456C11.6882 16.4807 13.014 17.7188 14.625 17.7188C16.3308 17.7188 17.7188 16.3308 17.7188 14.625C17.7188 12.9192 16.3308 11.5313 14.625 11.5313C13.014 11.5313 11.6882 12.7693 11.5456 14.3438H9.28125V14.0625C9.28125 13.5973 8.90269 13.2188 8.4375 13.2188H3.9375C3.47231 13.2188 3.09375 13.5973 3.09375 14.0625V14.3438H2.25C1.47459 14.3438 0.84375 13.7129 0.84375 12.9375V10.6875C0.84375 9.91211 1.47459 9.28126 2.25 9.28126H5.90625V9.56251C5.90625 10.0277 6.28481 10.4063 6.75 10.4063ZM6.47859 4.01401L5.86181 4.18276L5.81653 4.33042C5.77603 4.46064 5.72203 4.59029 5.65566 4.71573L5.58309 4.85242L5.90091 5.40901L5.40928 5.90092L4.85241 5.58339L4.716 5.65567C4.59084 5.72204 4.46119 5.77604 4.33069 5.81626L4.18331 5.86183L4.01428 6.47861H3.31875L3.14972 5.86183L3.00234 5.81626C2.87241 5.77604 2.74275 5.72233 2.61703 5.65567L2.48034 5.58339L1.92375 5.90092L1.43156 5.40901L1.74937 4.85242L1.67681 4.71573C1.61044 4.59029 1.55616 4.46064 1.51594 4.33042L1.47066 4.18276L0.853875 4.01401V3.3182L1.47066 3.14973L1.51622 3.00208C1.55644 2.87186 1.61044 2.7422 1.67681 2.61704L1.74937 2.48008L1.43156 1.92348L1.92319 1.43158L2.47978 1.74911L2.61647 1.67683C2.74275 1.61017 2.87241 1.55589 3.00178 1.51595L3.14916 1.47039L3.31819 0.853607H4.01372L4.18275 1.47039L4.33012 1.51595C4.46006 1.55617 4.58972 1.61017 4.71544 1.67683L4.85184 1.74911L5.40872 1.43158L5.90034 1.92348L5.58253 2.48008L5.65509 2.61676C5.72147 2.74192 5.77575 2.87158 5.81569 3.00179L5.86125 3.14945L6.47803 3.31792V4.01401H6.47859ZM14.3438 4.21876C14.3438 4.37373 14.2177 4.50001 14.0625 4.50001H9.5625C9.40725 4.50001 9.28125 4.37373 9.28125 4.21876V3.09376C9.28125 2.93879 9.40725 2.81251 9.5625 2.81251H14.0625C14.2177 2.81251 14.3438 2.93879 14.3438 3.09376V4.21876ZM14.625 12.0938C16.0208 12.0938 17.1562 13.2292 17.1562 14.625C17.1562 16.0209 16.0208 17.1563 14.625 17.1563C13.2292 17.1563 12.0938 16.0209 12.0938 14.625C12.0938 13.2292 13.2292 12.0938 14.625 12.0938ZM3.65625 14.0625C3.65625 13.9073 3.78225 13.7813 3.9375 13.7813H8.4375C8.59275 13.7813 8.71875 13.9073 8.71875 14.0625V15.1875C8.71875 15.3428 8.59275 15.4688 8.4375 15.4688H3.9375C3.78225 15.4688 3.65625 15.3428 3.65625 15.1875V14.0625ZM6.46875 8.43751C6.46875 8.28254 6.59475 8.15626 6.75 8.15626H11.25C11.4052 8.15626 11.5312 8.28254 11.5312 8.43751V9.56251C11.5312 9.71776 11.4052 9.84376 11.25 9.84376H6.75C6.59475 9.84376 6.46875 9.71776 6.46875 9.56251V8.43751Z" fill="#6E9AEF"/>
<path d="M9.28125 8.71872H9.84375V9.28122H9.28125V8.71872Z" fill="#6E9AEF"/>
<path d="M8.15625 8.71872H8.71875V9.28122H8.15625V8.71872Z" fill="#6E9AEF"/>
<path d="M7.03125 8.71872H7.59375V9.28122H7.03125V8.71872Z" fill="#6E9AEF"/>
<path d="M10.4062 8.71872H10.9688V9.28122H10.4062V8.71872Z" fill="#6E9AEF"/>
<path d="M5.34375 14.3437H5.90625V14.9062H5.34375V14.3437Z" fill="#6E9AEF"/>
<path d="M7.59375 14.3437H8.15625V14.9062H7.59375V14.3437Z" fill="#6E9AEF"/>
<path d="M6.46875 14.3437H7.03125V14.9062H6.46875V14.3437Z" fill="#6E9AEF"/>
<path d="M4.21875 14.3437H4.78125V14.9062H4.21875V14.3437Z" fill="#6E9AEF"/>
</svg>
