<svg width="45" height="46" viewBox="0 0 45 46" fill="none" xmlns="http://www.w3.org/2000/svg">
<rect y="0.300049" width="45" height="45" rx="9" fill="#E3D3F8"/>
<path d="M18.9556 29.6662C19.2608 29.7494 19.5773 29.7915 19.8961 29.7915C21.8634 29.7915 23.4641 28.1909 23.4641 26.2235C23.4641 24.2562 21.8634 22.6556 19.8961 22.6556C17.9287 22.6556 16.3281 24.2563 16.3281 26.2236C16.3281 26.9722 16.5575 27.6889 16.9916 28.2962C17.1375 28.5003 17.4211 28.5473 17.6251 28.4016C17.8291 28.2558 17.8763 27.9721 17.7305 27.7681C17.4072 27.3158 17.2363 26.7817 17.2363 26.2235C17.2363 24.7569 18.4295 23.5638 19.8961 23.5638C21.3627 23.5638 22.5559 24.7569 22.5559 26.2235C22.5559 27.6902 21.3627 28.8834 19.8961 28.8834C19.6578 28.8834 19.4218 28.8519 19.1944 28.7899C18.9527 28.7241 18.7028 28.8667 18.6368 29.1087C18.5709 29.3506 18.7136 29.6002 18.9556 29.6662Z" fill="#5C1CB0"/>
<path d="M35.8809 18.7764C34.7124 18.7764 33.7617 19.727 33.7617 20.8955C33.7617 21.5234 34.0364 22.088 34.4717 22.4764L32.9783 25.0968C32.6389 24.9648 32.2703 24.8916 31.8848 24.8916C30.5286 24.8916 29.3779 25.7879 28.994 27.0193L25.7884 26.5861C25.8172 26.2248 25.7887 25.5796 25.6945 25.1079C25.6473 24.8617 25.4101 24.7003 25.1632 24.7473C24.9168 24.7944 24.7554 25.0324 24.8025 25.2787C24.8618 25.5877 24.8917 25.9056 24.8917 26.2236C24.8917 28.9778 22.6509 31.2187 19.8966 31.2187C17.1423 31.2187 14.9015 28.9778 14.9015 26.2236C14.9015 23.4693 17.1422 21.2285 19.8965 21.2285C21.5909 21.2285 23.156 22.077 24.0832 23.4981C24.2203 23.7081 24.5016 23.7672 24.7117 23.6302C24.9217 23.4931 24.9808 23.2118 24.8438 23.0018C24.5022 22.4781 24.0872 22.0203 23.6171 21.6382L25.7769 18.4979C26.3003 18.7719 26.8948 18.9277 27.5254 18.9277C29.612 18.9277 31.3096 17.2302 31.3096 15.1436C31.3096 14.788 31.2592 14.4442 31.1671 14.1178L32.7312 13.4758C33.0352 13.8815 33.5197 14.1445 34.0645 14.1445C34.9825 14.1445 35.7295 13.3976 35.7295 12.4795C35.7295 11.5614 34.9825 10.8145 34.0645 10.8145C33.1464 10.8145 32.3994 11.5614 32.3994 12.4795C32.3994 12.5293 32.402 12.5786 32.4063 12.6273L30.8168 13.2798C30.1656 12.1343 28.9347 11.3594 27.5254 11.3594C26.6805 11.3594 25.8813 11.6318 25.2141 12.1471C25.0156 12.3003 24.9789 12.5856 25.1322 12.784C25.2855 12.9826 25.5708 13.0192 25.7692 12.8659C26.2759 12.4745 26.8833 12.2676 27.5254 12.2676C29.1112 12.2676 30.4014 13.5578 30.4014 15.1436C30.4014 16.7293 29.1112 18.0195 27.5254 18.0195C25.9396 18.0195 24.6494 16.7293 24.6494 15.1436C24.6494 14.8768 24.6859 14.6128 24.7576 14.3589C24.8258 14.1176 24.6856 13.8666 24.4442 13.7984C24.2027 13.7301 23.9519 13.8704 23.8837 14.1118C23.7891 14.4461 23.7411 14.7932 23.7411 15.1436C23.7411 16.274 24.24 17.2895 25.0284 17.9834L22.8702 21.1214C21.9824 20.6037 20.9611 20.3203 19.8965 20.3203C18.7291 20.3203 17.6397 20.661 16.7226 21.2481L14.9546 18.9139C15.4832 18.3686 15.8095 17.6262 15.8095 16.8086C15.8095 16.0635 15.5384 15.3809 15.0904 14.8529L17.0863 12.5176C17.3901 12.686 17.7391 12.7822 18.1103 12.7822C19.2788 12.7822 20.2294 11.8316 20.2294 10.6631C20.2294 9.49459 19.2788 8.54395 18.1103 8.54395C16.9418 8.54395 15.9911 9.49459 15.9911 10.6631C15.9911 11.1324 16.1448 11.5664 16.404 11.918L14.4061 14.2557C13.9365 13.9559 13.3795 13.7812 12.7822 13.7812C11.1129 13.7812 9.75488 15.1393 9.75488 16.8086C9.75488 17.1271 9.80417 17.441 9.90153 17.7416C9.97879 17.9803 10.2348 18.1109 10.4734 18.0338C10.712 17.9566 10.8428 17.7005 10.7656 17.462C10.6975 17.2518 10.6631 17.032 10.6631 16.8086C10.6631 15.6401 11.6137 14.6895 12.7822 14.6895C13.9507 14.6895 14.9014 15.6401 14.9014 16.8086C14.9014 17.9771 13.9507 18.9277 12.7822 18.9277C12.4746 18.9277 12.1782 18.8634 11.9013 18.7366C11.6731 18.6324 11.4038 18.7326 11.2994 18.9605C11.1949 19.1886 11.2952 19.458 11.5232 19.5624C11.9197 19.7439 12.3433 19.8359 12.7822 19.8359C13.3075 19.8359 13.8018 19.7013 14.2327 19.465L15.9976 21.7951C14.7694 22.8777 13.9932 24.4616 13.9932 26.2236C13.9932 27.3583 14.3153 28.4191 14.8724 29.3198L12.1709 31.2932C11.6225 30.7427 10.864 30.4014 10.0273 30.4014C8.35807 30.4014 7 31.7594 7 33.4287C7 35.098 8.35807 36.4561 10.0273 36.4561C11.6966 36.4561 13.0547 35.098 13.0547 33.4287C13.0547 32.9224 12.9291 32.4451 12.7085 32.0253L15.4078 30.0533C16.4914 31.3215 18.1016 32.127 19.8965 32.127C21.1975 32.127 22.4013 31.7035 23.3781 30.9878L25.1903 33.0335C24.9087 33.3934 24.7402 33.8457 24.7402 34.3369C24.7402 35.5054 25.6909 36.4561 26.8594 36.4561C28.0279 36.4561 28.9785 35.5054 28.9785 34.3369C28.9785 33.1684 28.0279 32.2178 26.8594 32.2178C26.5101 32.2178 26.1806 32.3032 25.8899 32.4535L24.0679 30.3968C24.8529 29.6122 25.4181 28.6081 25.6635 27.4858L28.8574 27.9174C28.8574 27.918 28.8574 27.9185 28.8574 27.919C28.8574 29.5883 30.2154 30.9464 31.8847 30.9464C33.554 30.9464 34.912 29.5883 34.912 27.919C34.912 26.9601 34.4634 26.1045 33.7655 25.5494L35.2627 22.9225C35.4583 22.9823 35.6658 23.0147 35.8807 23.0147C37.0492 23.0147 37.9999 22.0641 37.9999 20.8956C37.9999 19.7271 37.0494 18.7764 35.8809 18.7764ZM34.0645 11.7227C34.4818 11.7227 34.8213 12.0621 34.8213 12.4795C34.8213 12.8968 34.4818 13.2363 34.0645 13.2363C33.6471 13.2363 33.3076 12.8968 33.3076 12.4795C33.3076 12.0621 33.6471 11.7227 34.0645 11.7227ZM18.1104 9.45215C18.7781 9.45215 19.3213 9.99538 19.3213 10.6631C19.3213 11.3308 18.7781 11.874 18.1104 11.874C17.4426 11.874 16.8994 11.3308 16.8994 10.6631C16.8994 9.99538 17.4426 9.45215 18.1104 9.45215ZM10.0273 35.5479C8.85885 35.5479 7.9082 34.5972 7.9082 33.4287C7.9082 32.2602 8.85885 31.3096 10.0273 31.3096C11.1958 31.3096 12.1465 32.2602 12.1465 33.4287C12.1465 34.5972 11.1958 35.5479 10.0273 35.5479ZM28.0703 34.3369C28.0703 35.0046 27.5271 35.5479 26.8594 35.5479C26.1917 35.5479 25.6484 35.0046 25.6484 34.3369C25.6484 33.6692 26.1917 33.126 26.8594 33.126C27.5271 33.126 28.0703 33.6692 28.0703 34.3369ZM31.8848 30.0381C30.7163 30.0381 29.7656 29.0874 29.7656 27.9189C29.7656 26.7505 30.7163 25.7998 31.8848 25.7998C33.0533 25.7998 34.0039 26.7505 34.0039 27.9189C34.0039 29.0874 33.0533 30.0381 31.8848 30.0381ZM35.8809 22.1064C35.2131 22.1064 34.6699 21.5632 34.6699 20.8955C34.6699 20.2278 35.2131 19.6846 35.8809 19.6846C36.5486 19.6846 37.0918 20.2278 37.0918 20.8955C37.0918 21.5632 36.5486 22.1064 35.8809 22.1064Z" fill="#5C1CB0"/>
<path d="M28.1299 14.6895C28.3807 14.6895 28.584 14.4862 28.584 14.2354C28.584 13.9845 28.3807 13.7812 28.1299 13.7812H26.9189C26.6681 13.7812 26.4648 13.9845 26.4648 14.2354C26.4648 14.4862 26.6681 14.6895 26.9189 14.6895H28.1299Z" fill="#5C1CB0"/>
<path d="M25.8594 16.0518C25.8594 16.3026 26.0626 16.5059 26.3135 16.5059H28.7354C28.9862 16.5059 29.1895 16.3026 29.1895 16.0518C29.1895 15.8009 28.9862 15.5977 28.7354 15.5977H26.3135C26.0626 15.5977 25.8594 15.8009 25.8594 16.0518Z" fill="#5C1CB0"/>
<path d="M32.6416 27.4648H31.1279C30.8771 27.4648 30.6738 27.6681 30.6738 27.9189C30.6738 28.1698 30.8771 28.373 31.1279 28.373H32.6416C32.8924 28.373 33.0957 28.1698 33.0957 27.9189C33.0957 27.6681 32.8924 27.4648 32.6416 27.4648Z" fill="#5C1CB0"/>
<path d="M18.9893 25.7695H20.8057C21.0565 25.7695 21.2598 25.5663 21.2598 25.3154C21.2598 25.0646 21.0565 24.8613 20.8057 24.8613H18.9893C18.7384 24.8613 18.5352 25.0646 18.5352 25.3154C18.5352 25.5663 18.7384 25.7695 18.9893 25.7695Z" fill="#5C1CB0"/>
<path d="M18.9893 27.5859H20.8057C21.0565 27.5859 21.2598 27.3827 21.2598 27.1318C21.2598 26.881 21.0565 26.6777 20.8057 26.6777H18.9893C18.7384 26.6777 18.5352 26.881 18.5352 27.1318C18.5352 27.3827 18.7384 27.5859 18.9893 27.5859Z" fill="#5C1CB0"/>
<path d="M10.7842 32.9746H9.27051C9.01966 32.9746 8.81641 33.1779 8.81641 33.4287C8.81641 33.6796 9.01966 33.8828 9.27051 33.8828H10.7842C11.035 33.8828 11.2383 33.6796 11.2383 33.4287C11.2383 33.1779 11.035 32.9746 10.7842 32.9746Z" fill="#5C1CB0"/>
<path d="M13.5381 17.2627C13.7889 17.2627 13.9922 17.0594 13.9922 16.8086C13.9922 16.5577 13.7889 16.3545 13.5381 16.3545H12.0244C11.7736 16.3545 11.5703 16.5577 11.5703 16.8086C11.5703 17.0594 11.7736 17.2627 12.0244 17.2627H13.5381Z" fill="#5C1CB0"/>
</svg>
