<svg width="45" height="46" viewBox="0 0 45 46" fill="none" xmlns="http://www.w3.org/2000/svg">
<rect y="0.300049" width="45" height="45" rx="9" fill="#F8D3D3"/>
<g clip-path="url(#clip0_333_3399)">
<path fill-rule="evenodd" clip-rule="evenodd" d="M34.0816 32.1651H10.9051C10.309 32.1651 9.78125 31.6601 9.78125 31.045V15.4699C9.78125 14.8776 10.2862 14.3499 10.9051 14.3499H16.4828C16.7031 14.3499 16.8777 14.5245 16.8777 14.7447C16.8777 14.965 16.6803 15.1168 16.4828 15.1168H10.9051C10.7267 15.1168 10.552 15.2725 10.552 15.4699V31.045C10.552 31.2234 10.7039 31.3981 10.9051 31.3981H34.0816C34.2563 31.3981 34.4309 31.2424 34.4309 31.045V15.4699C34.4309 15.2953 34.2791 15.1168 34.0816 15.1168H28.5001C28.2799 15.1168 28.1053 14.9422 28.1053 14.7447C28.1053 14.5473 28.2799 14.3499 28.5001 14.3499H34.0816C34.674 14.3499 35.2017 14.8548 35.2017 15.4699V31.045C35.2017 31.6411 34.674 32.1651 34.0816 32.1651Z" fill="#B01C1C"/>
<path fill-rule="evenodd" clip-rule="evenodd" d="M18.243 35.9886C18.1785 35.9886 18.1101 35.9659 18.0456 35.9469C17.8709 35.8368 17.8026 35.5938 17.9127 35.4191L20.1111 31.5728C20.2212 31.3982 20.4604 31.3336 20.6389 31.4399C20.8135 31.55 20.8781 31.793 20.768 31.9677L18.5733 35.814C18.505 35.9241 18.3759 35.9886 18.243 35.9886Z" fill="#B01C1C"/>
<path fill-rule="evenodd" clip-rule="evenodd" d="M26.7417 35.9886C26.6126 35.9886 26.4797 35.9241 26.4113 35.7912L24.1939 31.9677C24.0838 31.793 24.1522 31.55 24.3268 31.4399C24.5015 31.3336 24.7445 31.3982 24.8546 31.5728L27.072 35.4191C27.1821 35.5938 27.1176 35.8368 26.9391 35.9469C26.8746 35.9886 26.81 35.9886 26.7417 35.9886Z" fill="#B01C1C"/>
<path fill-rule="evenodd" clip-rule="evenodd" d="M29.9257 35.9887H15.0531C14.8329 35.9887 14.6582 35.8141 14.6582 35.5939C14.6582 35.3736 14.8329 35.199 15.0531 35.199H29.9257C30.1459 35.199 30.3206 35.3736 30.3206 35.5939C30.3206 35.8141 30.1231 35.9887 29.9257 35.9887Z" fill="#B01C1C"/>
<path fill-rule="evenodd" clip-rule="evenodd" d="M34.8068 29.3099H10.1799C9.95971 29.3099 9.78125 29.1352 9.78125 28.915C9.78125 28.6948 9.95971 28.5201 10.1799 28.5201H34.8296C35.046 28.5201 35.2245 28.6948 35.2245 28.915C35.2245 29.1352 35.0271 29.3099 34.8068 29.3099Z" fill="#B01C1C"/>
<path fill-rule="evenodd" clip-rule="evenodd" d="M23.553 30.7375H21.4457C21.2254 30.7375 21.0508 30.5629 21.0508 30.3426C21.0508 30.1224 21.2254 29.9478 21.4457 29.9478H23.553C23.7732 29.9478 23.9478 30.1224 23.9478 30.3426C23.9478 30.5629 23.7504 30.7375 23.553 30.7375Z" fill="#B01C1C"/>
<path fill-rule="evenodd" clip-rule="evenodd" d="M22.4832 16.5674C21.9326 16.5674 21.4922 16.1307 21.4922 15.5802V13.1615C21.4922 12.6148 21.9326 12.1743 22.4832 12.1743C23.0299 12.1743 23.4704 12.6148 23.4704 13.1615V15.5802C23.4704 16.1307 23.0299 16.5674 22.4832 16.5674ZM22.4832 12.9451C22.3731 12.9451 22.263 13.0324 22.263 13.1615V15.5802C22.263 15.6903 22.3503 15.8004 22.4832 15.8004C22.6123 15.8004 22.7034 15.7131 22.7034 15.5802V13.1615C22.7034 13.0324 22.6123 12.9451 22.4832 12.9451Z" fill="#B01C1C"/>
<path fill-rule="evenodd" clip-rule="evenodd" d="M22.4832 18.6556C21.9326 18.6556 21.4922 18.2151 21.4922 17.6684C21.4922 17.1178 21.9326 16.6774 22.4832 16.6774C23.0299 16.6774 23.4704 17.1178 23.4704 17.6684C23.4704 18.2151 23.0299 18.6556 22.4832 18.6556ZM22.4832 17.4481C22.3731 17.4481 22.263 17.5355 22.263 17.6684C22.263 17.7785 22.3503 17.8848 22.4832 17.8848C22.6123 17.8848 22.7034 17.7975 22.7034 17.6684C22.7034 17.5355 22.6123 17.4481 22.4832 17.4481Z" fill="#B01C1C"/>
<path fill-rule="evenodd" clip-rule="evenodd" d="M22.4832 27.4646C22.3503 27.4646 22.2174 27.4 22.1529 27.2671L17.8472 19.8631C16.7043 18.6557 16.0664 17.0951 16.0664 15.4245C16.0664 11.8896 18.9445 9.01147 22.4832 9.01147C26.0182 9.01147 28.8962 11.8896 28.8962 15.4245C28.8962 17.0951 28.2622 18.6557 27.1193 19.8631L22.8136 27.2899C22.7452 27.4 22.6351 27.4646 22.4832 27.4646ZM22.4832 9.75947C19.3621 9.75947 16.8372 12.3072 16.8372 15.4055C16.8372 16.8749 17.4067 18.2836 18.4395 19.3353C18.4623 19.3581 18.4851 19.3809 18.504 19.4037L22.506 26.3027L26.5042 19.4037C26.5232 19.3809 26.5459 19.3581 26.5687 19.3353C27.6015 18.2836 28.171 16.8749 28.171 15.4055C28.152 12.3072 25.6005 9.75947 22.4832 9.75947Z" fill="#B01C1C"/>
<path fill-rule="evenodd" clip-rule="evenodd" d="M22.481 19.9959C19.9523 19.9959 17.8867 17.9531 17.8867 15.4244C17.8867 12.8994 19.9523 10.8339 22.481 10.8339C25.006 10.8339 27.0715 12.8994 27.0715 15.4244C27.0715 17.9531 25.0288 19.9959 22.481 19.9959ZM22.481 11.6046C20.3699 11.6046 18.6575 13.3171 18.6575 15.4244C18.6575 17.5355 20.3699 19.2251 22.481 19.2251C24.5883 19.2251 26.3045 17.5127 26.3045 15.4244C26.3045 13.3171 24.5883 11.6046 22.481 11.6046Z" fill="#B01C1C"/>
</g>
<defs>
<clipPath id="clip0_333_3399">
<rect width="27" height="27" fill="white" transform="translate(9 9)"/>
</clipPath>
</defs>
</svg>
