<svg width="45" height="45" viewBox="0 0 45 45" fill="none" xmlns="http://www.w3.org/2000/svg">
<rect width="45" height="45" rx="9" fill="#F8D3F0"/>
<path d="M8.3246 19.9688C8.3246 22.7601 10.5956 25.0313 13.3871 25.0313H15.9184C16.5866 25.0167 16.5823 24.0315 15.9183 24.0188H13.3871C11.154 24.0188 9.3371 22.202 9.3371 19.9688C9.28883 17.2446 12.1431 15.2114 14.699 16.1389C14.9288 16.2089 15.2125 16.1084 15.3141 15.8769C15.915 12.4237 18.7969 9.83266 22.3528 9.84387C26.2121 9.78565 29.4873 13.085 29.4402 16.9314C29.3957 17.2889 29.4894 17.6948 29.9142 17.7199C30.1899 17.7366 30.4331 17.5213 30.4471 17.2423C30.5776 7.4712 16.9883 5.62087 14.4838 15.0309C11.384 14.295 8.28456 16.7815 8.3246 19.9688Z" fill="#B01C90"/>
<path d="M31.1053 25.0313C37.7575 24.8575 38.7429 15.6172 32.2913 14.0219C32.0174 13.963 31.7482 14.1361 31.6889 14.409C31.6293 14.6824 31.8026 14.9518 32.0758 15.0116C37.3523 16.3171 36.5517 23.8735 31.1052 24.0188H18.9553V20.6847L19.6099 21.3392C20.083 21.808 20.7899 21.0905 20.3257 20.6234C20.3257 20.6234 18.8073 19.105 18.8073 19.105C18.6198 18.9103 18.2784 18.9088 18.0908 19.105C18.0908 19.105 16.5724 20.6234 16.5724 20.6234C16.109 21.098 16.8158 21.8032 17.2883 21.3392C17.2882 21.3393 17.9428 20.6847 17.9428 20.6847V27.173C17.9428 29.0562 18.8848 30.7209 20.3198 31.7292H12.5837L13.2382 31.0747C13.7081 30.6027 12.9883 29.8943 12.5223 30.3588C12.5224 30.3588 11.004 31.8771 11.004 31.8771C10.8096 32.0648 10.8075 32.4061 11.0041 32.5939C11.004 32.5939 12.5224 34.1122 12.5224 34.1122C12.9995 34.5769 13.7008 33.8673 13.2382 33.3963C13.2382 33.3963 12.5837 32.7417 12.5837 32.7417H23.5115H25.5365V34.6501C25.5365 35.4876 26.2178 36.1688 27.0553 36.1688H32.1178C32.7797 36.1554 32.7871 35.1701 32.1178 35.1563H27.0553C26.7762 35.1563 26.549 34.9294 26.549 34.6501V28.5751C26.549 28.2957 26.7762 28.0688 27.0553 28.0688H29.6318C29.7672 28.0688 29.8945 28.1217 29.9902 28.2176C30.4402 28.6692 31.0003 29.3656 31.7156 29.3146C31.7156 29.3147 35.1553 29.3147 35.1553 29.3147C35.4344 29.3147 35.6615 29.5416 35.6615 29.8209V34.6501C35.6615 34.9294 35.4344 35.1563 35.1553 35.1563H34.649C33.9798 35.1664 33.9876 36.1599 34.6491 36.1688C34.649 36.1688 35.1553 36.1688 35.1553 36.1688C35.9928 36.1688 36.674 35.4876 36.674 34.6501V29.8209C36.674 28.9834 35.9928 28.3022 35.1553 28.3022H31.7156C31.5821 28.3022 31.4519 28.2483 31.3574 28.1534L30.7066 27.5018C30.4196 27.2145 30.0379 27.0563 29.6318 27.0563H27.0553C26.2178 27.0563 25.5365 27.7376 25.5365 28.5751V31.7292H23.5115C20.9993 31.7292 18.9553 29.6855 18.9553 27.173V25.0313L31.1053 25.0313Z" fill="#B01C90"/>
</svg>
