<svg width="45" height="45" viewBox="0 0 45 45" fill="none" xmlns="http://www.w3.org/2000/svg">
<rect width="45" height="45" rx="9" fill="#F8F0D3"/>
<g clip-path="url(#clip0_312_2437)">
<path d="M37.1278 27.294C36.8218 26.9045 36.3582 26.682 35.8621 26.682V26.07C35.8621 25.3421 35.2686 24.7486 34.5407 24.7486H31.031V19.2592C31.9397 19.1154 32.6398 18.3365 32.6398 17.3907C32.6398 16.3429 31.7867 15.4898 30.7389 15.4898C29.8209 15.4898 29.0559 16.1435 28.8751 17.0059H25.0825L25.8985 13.6028C26.0145 13.1206 25.9032 12.6199 25.5972 12.2304C25.2912 11.841 24.8275 11.6184 24.3315 11.6184V11.0111C24.3315 10.2832 23.738 9.68971 23.0101 9.68971H15.9906C15.8701 9.68971 15.7542 9.63871 15.6754 9.54598L14.5209 8.20607C14.2705 7.91398 13.9043 7.74707 13.5195 7.74707H10.4595C9.73155 7.74707 9.13809 8.34053 9.13809 9.06843V11.6231C8.642 11.6231 8.183 11.8456 7.87236 12.2351C7.56173 12.6245 7.45509 13.1253 7.571 13.6074L9.33282 20.9653C9.509 21.6933 10.1488 22.1986 10.8999 22.1986H12.3557V30.1824C11.447 30.3262 10.7469 31.1051 10.7469 32.0555C10.7469 33.1033 11.6 33.9518 12.6478 33.9518C13.5658 33.9518 14.3355 33.3027 14.5116 32.4357H20.0057L20.8635 36.0289C21.0396 36.7568 21.6795 37.2622 22.4305 37.2622H34.1049C34.8514 37.2622 35.4958 36.7568 35.672 36.0289L37.4338 28.671C37.5451 28.1842 37.4338 27.6834 37.1278 27.294ZM9.815 9.0638C9.815 8.7068 10.1025 8.41934 10.4595 8.41934H13.5148C13.7049 8.41934 13.8811 8.5028 14.0016 8.64189L15.1561 9.9818C15.3647 10.2229 15.6661 10.362 15.986 10.362H23.0101C23.3671 10.362 23.6545 10.6494 23.6545 11.0064V11.6184H9.815V9.0638ZM35.1852 26.0746V26.6866H21.3456V24.132C21.3456 23.775 21.6331 23.4875 21.9901 23.4875H25.0455C25.2355 23.4875 25.4117 23.571 25.5323 23.7101L26.6867 25.05C26.8954 25.2911 27.1967 25.4302 27.5166 25.4302H34.5361C34.8931 25.4302 35.1852 25.7176 35.1852 26.0746ZM30.7389 16.1667C31.4158 16.1667 31.9629 16.7184 31.9629 17.3907C31.9629 18.063 31.4158 18.6101 30.7389 18.6101C30.062 18.6101 29.5149 18.063 29.5149 17.3907C29.5149 16.7184 30.062 16.1667 30.7389 16.1667ZM9.99118 20.8031L8.22936 13.4452C8.16446 13.167 8.22473 12.8795 8.40555 12.6523C8.58636 12.4252 8.85064 12.3 9.13809 12.3H24.3315C24.6189 12.3 24.8832 12.4298 25.064 12.6523C25.2448 12.8749 25.3051 13.167 25.2402 13.4452L23.4784 20.8031C23.3764 21.225 23.0055 21.5171 22.5743 21.5171H10.8999C10.4641 21.5171 10.0932 21.225 9.99118 20.8031ZM12.6478 33.2703C11.9709 33.2703 11.4238 32.7232 11.4238 32.0509C11.4238 31.374 11.9709 30.8269 12.6478 30.8269C13.3247 30.8269 13.8718 31.374 13.8718 32.0509C13.8718 32.7232 13.3247 33.2703 12.6478 33.2703ZM14.5209 31.7542C14.3957 30.9706 13.8023 30.3447 13.0326 30.1871V22.194H22.5696C23.3161 22.194 23.9605 21.6886 24.1367 20.9607L24.9203 17.6828H28.8658C28.9864 18.4617 29.5845 19.0923 30.3541 19.2499V24.7486H27.5213C27.4007 24.7486 27.2848 24.6976 27.206 24.6049L26.0515 23.265C25.8012 22.9729 25.4349 22.806 25.0501 22.806H21.9901C21.2622 22.806 20.6687 23.3994 20.6687 24.1273V26.682C20.1726 26.682 19.7136 26.9045 19.403 27.294C19.097 27.6834 18.9857 28.1842 19.1016 28.6663L19.8388 31.7542H14.5209ZM36.7662 28.5087L35.0044 35.8666C34.9024 36.2885 34.5315 36.5806 34.1003 36.5806H22.4305C21.9994 36.5806 21.6285 36.2885 21.5265 35.8666L19.7646 28.5087C19.6997 28.2305 19.76 27.9431 19.9408 27.7159C20.117 27.4887 20.3859 27.3635 20.6734 27.3635H35.8667C36.1542 27.3635 36.4185 27.4933 36.5993 27.7159C36.7708 27.9431 36.8357 28.2305 36.7662 28.5087Z" fill="#B0901C"/>
</g>
<defs>
<clipPath id="clip0_312_2437">
<rect width="30.6" height="30.6" fill="white" transform="translate(7.19922 7.19995)"/>
</clipPath>
</defs>
</svg>
