<svg width="45" height="46" viewBox="0 0 45 46" fill="none" xmlns="http://www.w3.org/2000/svg">
<rect y="0.300049" width="45" height="45" rx="9" fill="#FBE8D0"/>
<path d="M8.73484 31.1028C8.88464 31.3601 8.79744 31.6901 8.54011 31.8399C8.4548 31.8895 8.36154 31.9131 8.26943 31.9131C8.08379 31.9131 7.90314 31.8172 7.80301 31.6451C6.00908 28.5635 5.25863 25.0556 5.63281 21.5007C6.10011 17.0619 8.26788 13.0708 11.737 10.2625C15.2062 7.45417 19.5612 6.16527 24 6.6323C26.9597 6.94381 29.743 8.02093 32.1186 9.76385L31.771 8.54557C31.6893 8.25933 31.8552 7.96102 32.1415 7.87929C32.4273 7.79755 32.7262 7.96352 32.8078 8.24983L33.6263 11.1186C33.6717 11.2779 33.6413 11.4493 33.5439 11.5833C33.4465 11.7173 33.2928 11.7991 33.1271 11.8051L30.1459 11.9122C30.1393 11.9124 30.1328 11.9126 30.1263 11.9126C29.8375 11.9126 29.5983 11.6837 29.5879 11.3928C29.5772 11.0953 29.8098 10.8455 30.1073 10.8348L31.6764 10.7784C29.4125 9.06287 26.7373 8.00448 23.8872 7.7045C19.7345 7.26705 15.6607 8.47347 12.4154 11.1005C9.17014 13.7276 7.14212 17.4612 6.70507 21.6136C6.35509 24.9391 7.05695 28.2205 8.73484 31.1028ZM36.6982 14.8548C36.5484 14.5976 36.2185 14.5103 35.9611 14.6602C35.7039 14.81 35.6167 15.14 35.7665 15.3973C37.4445 18.2792 38.1464 21.5605 37.7962 24.8864C37.3592 29.0388 35.3312 32.7724 32.086 35.3995C28.8407 38.0266 24.7668 39.2329 20.6142 38.7955C17.7658 38.4957 15.089 37.4364 12.8257 35.7214L14.3942 35.6651C14.6917 35.6544 14.9242 35.4046 14.9136 35.1071C14.9029 34.8096 14.6544 34.5795 14.3555 34.5877L11.3742 34.6947C11.2085 34.7007 11.0549 34.7825 10.9574 34.9166C10.86 35.0506 10.8296 35.222 10.8751 35.3814L11.6936 38.2502C11.7611 38.4871 11.977 38.6415 12.2117 38.6415C12.2606 38.6415 12.3104 38.6348 12.3598 38.6207C12.6461 38.5389 12.812 38.2406 12.7303 37.9543L12.3826 36.7358C14.758 38.4784 17.5431 39.5563 20.5013 39.8677C21.0974 39.9304 21.6912 39.9615 22.2824 39.9615C26.0931 39.9613 29.761 38.6686 32.7643 36.2374C36.2333 33.4291 38.4011 29.438 38.8684 24.9992C39.2427 21.444 38.4922 17.9361 36.6982 14.8548ZM32.3659 20.6535C32.3659 21.4878 32.0886 22.2865 31.5792 22.9404C32.0833 24.0099 32.3659 25.2035 32.3659 26.4622C32.3659 31.0322 28.6478 34.7503 24.0778 34.7503C19.5077 34.7503 15.7896 31.0322 15.7896 26.4622C15.7896 25.7467 15.8808 25.0521 16.0521 24.3894H15.8715C13.8115 24.3894 12.1356 22.7135 12.1356 20.6535C12.1356 19.2584 12.9035 18.0012 14.121 17.3551C14.1444 14.2604 16.6691 11.7498 19.7692 11.7498C21.1327 11.7498 22.4288 12.2332 23.4537 13.1172C23.9151 12.9847 24.3929 12.9176 24.8783 12.9176C27.3958 12.9176 29.517 14.7176 29.95 17.1595C31.3889 17.7051 32.3659 19.0939 32.3659 20.6535ZM16.4124 23.3113C17.655 20.2994 20.6227 18.174 24.0778 18.174C26.9566 18.174 29.497 19.6497 30.9832 21.8841C31.1819 21.5075 31.2877 21.0871 31.2877 20.6535C31.2877 19.4577 30.4795 18.4027 29.3224 18.088C29.1083 18.0298 28.9518 17.8464 28.9279 17.6259C28.7039 15.5564 26.9629 13.9958 24.8781 13.9958C24.4058 13.9958 23.9432 14.0759 23.5031 14.2336C23.3096 14.3028 23.094 14.2563 22.9464 14.1135C22.0895 13.2845 20.9612 12.828 19.7691 12.828C17.2491 12.828 15.1989 14.8782 15.1989 17.3982C15.1989 17.4831 15.2016 17.5719 15.2068 17.6623C15.2199 17.892 15.0858 18.1048 14.8728 18.192C13.8649 18.6047 13.2136 19.5709 13.2136 20.6535C13.2136 22.119 14.4059 23.3113 15.8714 23.3113H16.4124ZM31.2877 26.4622C31.2877 22.4865 28.0534 19.2522 24.0778 19.2522C20.1021 19.2522 16.8677 22.4865 16.8677 26.4622C16.8677 30.4378 20.1021 33.6721 24.0778 33.6721C28.0534 33.6721 31.2877 30.4378 31.2877 26.4622ZM30.6752 26.4622C30.6752 30.1 27.7156 33.0596 24.0777 33.0596C20.44 33.0596 17.4804 30.1 17.4804 26.4622C17.4804 22.8244 20.44 19.8648 24.0777 19.8648C27.7156 19.8648 30.6752 22.8244 30.6752 26.4622ZM29.597 26.4622C29.597 23.4188 27.1211 20.9429 24.0777 20.9429C21.0344 20.9429 18.5585 23.4188 18.5585 26.4622C18.5585 29.5055 21.0344 31.9814 24.0777 31.9814C27.1211 31.9814 29.597 29.5055 29.597 26.4622ZM25.8776 26.8789L24.6168 26.1508V24.17C24.6168 23.8723 24.3754 23.6309 24.0777 23.6309C23.78 23.6309 23.5386 23.8723 23.5386 24.17V26.4621C23.5386 26.6547 23.6413 26.8327 23.8082 26.9289L25.3386 27.8125C25.4235 27.8616 25.5161 27.8848 25.6076 27.8848C25.7939 27.8848 25.9751 27.7881 26.0749 27.6152C26.2238 27.3574 26.1354 27.0277 25.8776 26.8789ZM24.0777 22.7005C24.3754 22.7005 24.6168 22.4592 24.6168 22.1615V21.6386C24.6168 21.3409 24.3754 21.0995 24.0777 21.0995C23.78 21.0995 23.5386 21.3409 23.5386 21.6386V22.1615C23.5386 22.4592 23.78 22.7005 24.0777 22.7005ZM27.1073 22.6702L26.7376 23.0399C26.5271 23.2505 26.5271 23.5917 26.7376 23.8023C26.8429 23.9075 26.9808 23.9601 27.1188 23.9601C27.2568 23.9601 27.3948 23.9075 27.5 23.8023L27.8697 23.4326C28.0802 23.222 28.0802 22.8808 27.8697 22.6702C27.6592 22.4597 27.3179 22.4597 27.1073 22.6702ZM27.5 29.1221C27.2895 28.9116 26.9482 28.9116 26.7377 29.1221C26.5271 29.3326 26.5271 29.6739 26.7376 29.8844L27.1073 30.2541C27.2126 30.3593 27.3505 30.412 27.4885 30.412C27.6264 30.412 27.7644 30.3594 27.8696 30.2542C28.0802 30.0437 28.0802 29.7024 27.8697 29.4919L27.5 29.1221ZM20.6555 29.1221L20.2858 29.4917C20.0753 29.7023 20.0753 30.0435 20.2858 30.2541C20.3911 30.3593 20.529 30.412 20.667 30.412C20.805 30.412 20.9429 30.3593 21.0482 30.2541L21.4178 29.8844C21.6283 29.6739 21.6283 29.3326 21.4178 29.1221C21.2073 28.9116 20.866 28.9116 20.6555 29.1221ZM21.0482 22.6702C20.8376 22.4598 20.4964 22.4598 20.2858 22.6702C20.0753 22.8808 20.0753 23.222 20.2858 23.4326L20.6555 23.8023C20.7607 23.9075 20.8987 23.9601 21.0367 23.9601C21.1747 23.9601 21.3126 23.9075 21.4178 23.8023C21.6283 23.5917 21.6283 23.2505 21.4178 23.0399L21.0482 22.6702ZM27.8394 26.4622C27.8394 26.7599 28.0807 27.0013 28.3784 27.0013H28.9013C29.199 27.0013 29.4404 26.7599 29.4404 26.4622C29.4404 26.1645 29.199 25.9231 28.9013 25.9231H28.3784C28.0807 25.9231 27.8394 26.1645 27.8394 26.4622ZM24.0777 30.2238C23.78 30.2238 23.5386 30.4651 23.5386 30.7628V31.2857C23.5386 31.5834 23.78 31.8248 24.0777 31.8248C24.3754 31.8248 24.6168 31.5834 24.6168 31.2857V30.7628C24.6168 30.4651 24.3754 30.2238 24.0777 30.2238ZM20.3161 26.4622C20.3161 26.1645 20.0748 25.9231 19.7771 25.9231H19.2542C18.9565 25.9231 18.7151 26.1645 18.7151 26.4622C18.7151 26.7599 18.9565 27.0013 19.2542 27.0013H19.7771C20.0748 27.0013 20.3161 26.7599 20.3161 26.4622Z" fill="#BC6F10"/>
</svg>
