<svg width="45" height="45" viewBox="0 0 45 45" fill="none" xmlns="http://www.w3.org/2000/svg">
<rect width="45" height="45" rx="9" fill="#D3EAF8"/>
<g clip-path="url(#clip0_312_2440)">
<path fill-rule="evenodd" clip-rule="evenodd" d="M22.9547 35.6054C22.7569 35.6054 22.5967 35.4452 22.5967 35.2468C22.5967 35.049 22.7569 34.8888 22.9547 34.8888C28.936 34.8888 33.8021 30.0227 33.8021 24.0413C33.8021 18.06 28.936 13.1933 22.9547 13.1933C16.9733 13.1933 12.1072 18.06 12.1072 24.0413C12.1072 24.2392 11.947 24.3993 11.7492 24.3993C11.5508 24.3993 11.3906 24.2392 11.3906 24.0413C11.3906 17.6643 16.5783 12.4767 22.9547 12.4767C29.3317 12.4767 34.5193 17.6643 34.5193 24.0413C34.5193 30.4177 29.3317 35.6054 22.9547 35.6054Z" fill="#1C78B0"/>
<path fill-rule="evenodd" clip-rule="evenodd" d="M11.7493 24.3993C11.7182 24.3993 11.6871 24.3957 11.6567 24.3874C11.5497 24.3587 11.4624 24.2828 11.4194 24.1812L9.87026 20.5373C9.79316 20.355 9.87803 20.1446 10.0603 20.0669C10.242 19.9898 10.453 20.0747 10.5301 20.257L11.8999 23.4789L14.6969 21.3734C14.8553 21.2545 15.08 21.2861 15.199 21.4445C15.3179 21.6023 15.2862 21.827 15.1284 21.9459L11.965 24.3276C11.9017 24.3748 11.8264 24.3993 11.7493 24.3993Z" fill="#1C78B0"/>
<path fill-rule="evenodd" clip-rule="evenodd" d="M34.9411 35.6054H10.0637C9.86585 35.6054 9.70508 35.4446 9.70508 35.2468C9.70508 35.049 9.86585 34.8888 10.0637 34.8888H34.9411C35.1389 34.8888 35.2991 35.049 35.2991 35.2468C35.2991 35.4446 35.1389 35.6054 34.9411 35.6054Z" fill="#1C78B0"/>
<path fill-rule="evenodd" clip-rule="evenodd" d="M32.7592 37.3122C32.6528 37.3122 32.547 37.265 32.4765 37.1748C32.3546 37.0188 32.3821 36.7935 32.5381 36.6715L34.3597 35.2467L32.5381 33.8219C32.3821 33.7 32.3546 33.4747 32.4765 33.3187C32.5984 33.1627 32.8237 33.1352 32.9797 33.2571L35.1624 34.9646C35.249 35.0328 35.2998 35.1368 35.2998 35.2467C35.2998 35.3573 35.249 35.4613 35.1624 35.5294L32.9797 37.2363C32.914 37.2877 32.8363 37.3122 32.7592 37.3122Z" fill="#1C78B0"/>
<path fill-rule="evenodd" clip-rule="evenodd" d="M27.1826 22.7098H18.7121C17.6703 22.7098 16.8223 21.8623 16.8223 20.82V17.5694C16.8223 16.5276 17.6703 15.6796 18.7121 15.6796H27.1826C28.2244 15.6796 29.0724 16.5276 29.0724 17.5694V20.82C29.0724 21.8623 28.2244 22.7098 27.1826 22.7098ZM18.7121 16.3968C18.0654 16.3968 17.5389 16.9227 17.5389 17.5694V20.82C17.5389 21.4667 18.0654 21.9932 18.7121 21.9932H27.1826C27.8293 21.9932 28.3552 21.4667 28.3552 20.82V17.5694C28.3552 16.9227 27.8293 16.3968 27.1826 16.3968H18.7121Z" fill="#1C78B0"/>
<path fill-rule="evenodd" clip-rule="evenodd" d="M27.0647 18.109H18.8326C18.6348 18.109 18.4746 17.9489 18.4746 17.7505C18.4746 17.5526 18.6348 17.3925 18.8326 17.3925H27.0647C27.2631 17.3925 27.4233 17.5526 27.4233 17.7505C27.4233 17.9489 27.2631 18.109 27.0647 18.109Z" fill="#1C78B0"/>
<path fill-rule="evenodd" clip-rule="evenodd" d="M27.0647 19.5536H18.8326C18.6348 19.5536 18.4746 19.3928 18.4746 19.195C18.4746 18.9972 18.6348 18.8364 18.8326 18.8364H27.0647C27.2631 18.8364 27.4233 18.9972 27.4233 19.195C27.4233 19.3928 27.2631 19.5536 27.0647 19.5536Z" fill="#1C78B0"/>
<path fill-rule="evenodd" clip-rule="evenodd" d="M27.0647 20.9975H18.8326C18.6348 20.9975 18.4746 20.8367 18.4746 20.6389C18.4746 20.4411 18.6348 20.2809 18.8326 20.2809H27.0647C27.2631 20.2809 27.4233 20.4411 27.4233 20.6389C27.4233 20.8367 27.2631 20.9975 27.0647 20.9975Z" fill="#1C78B0"/>
<path fill-rule="evenodd" clip-rule="evenodd" d="M27.1826 32.4021H18.7121C17.6703 32.4021 16.8223 31.5546 16.8223 30.5123V27.2622C16.8223 26.2199 17.6703 25.3718 18.7121 25.3718H27.1826C28.2244 25.3718 29.0724 26.2199 29.0724 27.2622V30.5123C29.0724 31.5546 28.2244 32.4021 27.1826 32.4021ZM18.7121 26.089C18.0654 26.089 17.5389 26.615 17.5389 27.2622V30.5123C17.5389 31.1589 18.0654 31.6855 18.7121 31.6855H27.1826C27.8293 31.6855 28.3552 31.1589 28.3552 30.5123V27.2622C28.3552 26.615 27.8293 26.089 27.1826 26.089H18.7121Z" fill="#1C78B0"/>
<path fill-rule="evenodd" clip-rule="evenodd" d="M27.0647 27.8013H18.8326C18.6348 27.8013 18.4746 27.6405 18.4746 27.4427C18.4746 27.2449 18.6348 27.0847 18.8326 27.0847H27.0647C27.2631 27.0847 27.4233 27.2449 27.4233 27.4427C27.4233 27.6405 27.2631 27.8013 27.0647 27.8013Z" fill="#1C78B0"/>
<path fill-rule="evenodd" clip-rule="evenodd" d="M27.0647 29.2458H18.8326C18.6348 29.2458 18.4746 29.085 18.4746 28.8872C18.4746 28.6893 18.6348 28.5286 18.8326 28.5286H27.0647C27.2631 28.5286 27.4233 28.6893 27.4233 28.8872C27.4233 29.085 27.2631 29.2458 27.0647 29.2458Z" fill="#1C78B0"/>
<path fill-rule="evenodd" clip-rule="evenodd" d="M27.0647 30.6897H18.8326C18.6348 30.6897 18.4746 30.529 18.4746 30.3311C18.4746 30.1333 18.6348 29.9725 18.8326 29.9725H27.0647C27.2631 29.9725 27.4233 30.1333 27.4233 30.3311C27.4233 30.529 27.2631 30.6897 27.0647 30.6897Z" fill="#1C78B0"/>
<path fill-rule="evenodd" clip-rule="evenodd" d="M24.2648 26.0889C24.067 26.0889 23.9062 25.9281 23.9062 25.7303V22.3518C23.9062 22.1533 24.067 21.9932 24.2648 21.9932C24.4627 21.9932 24.6228 22.1533 24.6228 22.3518V25.7303C24.6228 25.9281 24.4627 26.0889 24.2648 26.0889Z" fill="#1C78B0"/>
<path fill-rule="evenodd" clip-rule="evenodd" d="M24.271 26.0889C24.1604 26.0889 24.0564 26.0381 23.9883 25.9508L23.1366 24.8619C23.0147 24.7059 23.0422 24.4806 23.1982 24.3587C23.3542 24.2368 23.5795 24.2643 23.7014 24.4203L24.271 25.1482L24.84 24.4203C24.9619 24.2643 25.1872 24.2368 25.3432 24.3587C25.4992 24.4806 25.5267 24.7059 25.4048 24.8619L24.5531 25.9508C24.4856 26.0381 24.381 26.0889 24.271 26.0889Z" fill="#1C78B0"/>
<path fill-rule="evenodd" clip-rule="evenodd" d="M21.6359 26.0889C21.4381 26.0889 21.2773 25.9281 21.2773 25.7303V22.3518C21.2773 22.1533 21.4381 21.9932 21.6359 21.9932C21.8338 21.9932 21.9945 22.1533 21.9945 22.3518V25.7303C21.9945 25.9281 21.8338 26.0889 21.6359 26.0889Z" fill="#1C78B0"/>
<path fill-rule="evenodd" clip-rule="evenodd" d="M22.4859 23.7993C22.3796 23.7993 22.2744 23.7521 22.2038 23.6612L21.6343 22.9333L21.0647 23.6612C20.9428 23.8172 20.7175 23.8447 20.5615 23.7228C20.4055 23.6009 20.378 23.3755 20.4999 23.2196L21.3516 22.1306C21.4197 22.044 21.5237 21.9932 21.6343 21.9932C21.7442 21.9932 21.8488 22.044 21.9164 22.1306L22.768 23.2196C22.8906 23.3755 22.8625 23.6009 22.7071 23.7228C22.6413 23.7742 22.5636 23.7993 22.4859 23.7993Z" fill="#1C78B0"/>
<path fill-rule="evenodd" clip-rule="evenodd" d="M29.7603 12.8478C29.7095 12.8478 29.6575 12.8364 29.6091 12.8143C29.483 12.7551 29.4023 12.6284 29.4023 12.4892V9.30189C29.4023 8.41198 30.1261 7.68762 31.0166 7.68762H36.23C37.0918 7.68762 37.7934 8.38867 37.7934 9.25049V9.85233C37.7934 10.7142 37.0918 11.4152 36.23 11.4152H31.5945L29.991 12.7635C29.9253 12.8191 29.8434 12.8478 29.7603 12.8478ZM31.0166 8.40421C30.5218 8.40421 30.1189 8.80703 30.1189 9.30189V11.7194L31.233 10.7829C31.2975 10.7285 31.3794 10.6986 31.4637 10.6986H36.23C36.6967 10.6986 37.0763 10.3191 37.0763 9.85233V9.25049C37.0763 8.78372 36.6967 8.40421 36.23 8.40421H31.0166Z" fill="#1C78B0"/>
<path fill-rule="evenodd" clip-rule="evenodd" d="M32.1463 9.90971H31.4465C31.2487 9.90971 31.0879 9.74953 31.0879 9.55171C31.0879 9.35329 31.2487 9.19312 31.4465 9.19312H32.1463C32.3442 9.19312 32.5043 9.35329 32.5043 9.55171C32.5043 9.74953 32.3442 9.90971 32.1463 9.90971Z" fill="#1C78B0"/>
<path fill-rule="evenodd" clip-rule="evenodd" d="M33.9465 9.90971H33.2473C33.0488 9.90971 32.8887 9.74953 32.8887 9.55171C32.8887 9.35329 33.0488 9.19312 33.2473 9.19312H33.9465C34.1443 9.19312 34.3051 9.35329 34.3051 9.55171C34.3051 9.74953 34.1443 9.90971 33.9465 9.90971Z" fill="#1C78B0"/>
<path fill-rule="evenodd" clip-rule="evenodd" d="M35.7499 9.90971H35.05C34.8522 9.90971 34.6914 9.74953 34.6914 9.55171C34.6914 9.35329 34.8522 9.19312 35.05 9.19312H35.7499C35.9477 9.19312 36.1079 9.35329 36.1079 9.55171C36.1079 9.74953 35.9477 9.90971 35.7499 9.90971Z" fill="#1C78B0"/>
<path fill-rule="evenodd" clip-rule="evenodd" d="M15.2415 12.8478C15.1584 12.8478 15.0765 12.8191 15.0108 12.7635L13.4073 11.4152H8.77186C7.91004 11.4152 7.20898 10.7142 7.20898 9.85233V9.25049C7.20898 8.38867 7.91004 7.68762 8.77186 7.68762H13.9852C14.8757 7.68762 15.5995 8.41138 15.5995 9.30189V12.4892C15.5995 12.6284 15.5188 12.7551 15.3927 12.8143C15.3443 12.8364 15.2929 12.8478 15.2415 12.8478ZM8.77186 8.40421C8.30509 8.40421 7.92557 8.78372 7.92557 9.25049V9.85233C7.92557 10.3191 8.30509 10.6986 8.77186 10.6986H13.5382C13.6224 10.6986 13.7043 10.7285 13.7689 10.7829L14.8829 11.7194V9.30189C14.8829 8.80703 14.4801 8.40421 13.9852 8.40421H8.77186Z" fill="#1C78B0"/>
<path fill-rule="evenodd" clip-rule="evenodd" d="M13.5559 9.90971H12.8566C12.6588 9.90971 12.498 9.74953 12.498 9.55171C12.498 9.35329 12.6588 9.19312 12.8566 9.19312H13.5559C13.7537 9.19312 13.9145 9.35329 13.9145 9.55171C13.9145 9.74953 13.7537 9.90971 13.5559 9.90971Z" fill="#1C78B0"/>
<path fill-rule="evenodd" clip-rule="evenodd" d="M11.7538 9.90971H11.0539C10.8561 9.90971 10.6953 9.74953 10.6953 9.55171C10.6953 9.35329 10.8561 9.19312 11.0539 9.19312H11.7538C11.9516 9.19312 12.1118 9.35329 12.1118 9.55171C12.1118 9.74953 11.9516 9.90971 11.7538 9.90971Z" fill="#1C78B0"/>
<path fill-rule="evenodd" clip-rule="evenodd" d="M9.95043 9.90971H9.25117C9.05275 9.90971 8.89258 9.74953 8.89258 9.55171C8.89258 9.35329 9.05275 9.19312 9.25117 9.19312H9.95043C10.1483 9.19312 10.309 9.35329 10.309 9.55171C10.309 9.74953 10.1483 9.90971 9.95043 9.90971Z" fill="#1C78B0"/>
</g>
<defs>
<clipPath id="clip0_312_2440">
<rect width="30.6" height="30.6" fill="white" transform="translate(7.19922 7.19995)"/>
</clipPath>
</defs>
</svg>
