<svg width="45" height="46" viewBox="0 0 45 46" fill="none" xmlns="http://www.w3.org/2000/svg">
<rect y="0.300049" width="45" height="45" rx="9" fill="#E6E6E6"/>
<g clip-path="url(#clip0_333_3473)">
<path d="M36.3533 14.5201L35.4597 15.0358C37.3134 18.2571 37.9011 22.0534 37.108 25.6845C36.3149 29.3156 34.1981 32.5212 31.17 34.6763C28.142 36.8315 24.4199 37.7817 20.7294 37.3418C17.0388 36.9019 13.6444 35.1034 11.2078 32.2968H13.2188V31.2656H10.125C9.98825 31.2656 9.8571 31.3199 9.7604 31.4166C9.6637 31.5133 9.60938 31.6445 9.60938 31.7812V34.875H10.6406V33.21C12.1327 34.8769 13.9611 36.2088 16.0052 37.1179C18.0493 38.027 20.2628 38.4927 22.5 38.4843C25.3044 38.4835 28.0592 37.7451 30.488 36.3432C32.9168 34.9413 34.9342 32.9253 36.3378 30.4974C37.7413 28.0696 38.4815 25.3152 38.4843 22.5109C38.487 19.7065 37.7521 16.9507 36.3533 14.5201Z" fill="#666666"/>
<path d="M22.4998 7.54686C24.6429 7.53867 26.7623 7.99541 28.7118 8.8856C30.6614 9.77579 32.3946 11.0782 33.792 12.7031H31.7811V13.7344H34.8748C35.0116 13.7344 35.1427 13.68 35.2394 13.5833C35.3361 13.4866 35.3904 13.3555 35.3904 13.2187V10.125H34.3592V11.7899C32.8671 10.1231 31.0388 8.79119 28.9946 7.88209C26.9505 6.97299 24.737 6.50727 22.4998 6.51561C19.6954 6.51655 16.9406 7.25504 14.5118 8.65698C12.083 10.0589 10.0656 12.075 8.66214 14.5029C7.25864 16.9308 6.51837 19.6851 6.51563 22.4895C6.51289 25.2939 7.24777 28.0497 8.64652 30.4803L9.5401 29.9647C8.23155 27.6909 7.54406 25.1129 7.54662 22.4895C7.54918 19.8661 8.24171 17.2894 9.5547 15.0182C10.8677 12.747 12.755 10.8611 15.0271 9.54967C17.2993 8.23828 19.8764 7.54757 22.4998 7.54686Z" fill="#666666"/>
<path d="M10.6918 23.587L11.7189 23.4936C11.6901 23.1739 11.6746 22.847 11.6741 22.5227L10.6428 22.5253C10.6402 22.8795 10.6578 23.2368 10.6918 23.587Z" fill="#666666"/>
<path d="M10.6855 21.4631L11.7127 21.5518C11.7405 21.2306 11.7833 20.9068 11.8395 20.5897L10.8243 20.4087C10.7624 20.7562 10.716 21.111 10.6855 21.4631Z" fill="#666666"/>
<path d="M12.0653 25.4014C11.9792 25.092 11.906 24.7723 11.8482 24.4552L10.834 24.6393C10.8969 24.9873 10.9768 25.3369 11.0717 25.6772L12.0653 25.4014Z" fill="#666666"/>
<path d="M13.7492 28.8788C13.5594 28.621 13.379 28.3472 13.2119 28.0698L12.3281 28.6014C12.5107 28.9051 12.7087 29.2032 12.9165 29.4873L13.7492 28.8788Z" fill="#666666"/>
<path d="M15.0297 30.3375C14.7971 30.1158 14.5708 29.8796 14.3594 29.6362L13.5859 30.3169C13.82 30.5829 14.0675 30.8412 14.3217 31.0836L15.0297 30.3375Z" fill="#666666"/>
<path d="M11.0566 19.3718L12.0518 19.6425C12.1364 19.3331 12.2364 19.0237 12.3488 18.719L11.3825 18.358C11.2582 18.6906 11.1495 19.0314 11.0566 19.3718Z" fill="#666666"/>
<path d="M12.7488 27.2159C12.608 26.9256 12.4791 26.6255 12.3651 26.3239L11.4004 26.6884C11.5252 27.0184 11.6665 27.3469 11.8206 27.6681L12.7488 27.2159Z" fill="#666666"/>
<path d="M21.9846 34.3485L22.0284 33.3173C21.7036 33.3033 21.3782 33.275 21.0621 33.2322L20.9219 34.2562C21.2689 34.3021 21.6236 34.333 21.9846 34.3485Z" fill="#666666"/>
<path d="M23.043 34.347C23.3947 34.3305 23.751 34.2985 24.1011 34.2516L23.9639 33.2296C23.6432 33.2729 23.3178 33.3018 22.9961 33.3168L23.043 34.347Z" fill="#666666"/>
<path d="M15.08 13.2476C14.8036 13.4693 14.5349 13.7054 14.2812 13.9493L14.9959 14.6929C15.2279 14.4701 15.4734 14.2541 15.726 14.0509L15.08 13.2476Z" fill="#666666"/>
<path d="M28.1286 32.9414L27.6383 32.0339C27.3562 32.186 27.0623 32.3289 26.7617 32.4567L27.1691 33.4039C27.4975 33.2637 27.8193 33.108 28.1286 32.9414Z" fill="#666666"/>
<path d="M18.2575 32.4649C17.958 32.3376 17.6641 32.1958 17.381 32.0442L16.8906 32.9517C17.2 33.1182 17.5223 33.274 17.8507 33.4158L18.2575 32.4649Z" fill="#666666"/>
<path d="M11.8008 17.3788L12.7289 17.8248C12.8676 17.535 13.0218 17.2473 13.1878 16.9689L12.304 16.4414C12.122 16.7461 11.9529 17.0617 11.8008 17.3788Z" fill="#666666"/>
<path d="M19.8748 34.068L20.1017 33.0615C19.7845 32.9904 19.47 32.9068 19.1663 32.8037L18.8477 33.7834C19.1818 33.8953 19.5273 33.9891 19.8748 34.068Z" fill="#666666"/>
<path d="M14.3278 15.3967L13.5507 14.7197C13.3187 14.9858 13.096 15.2658 12.8887 15.5525L13.724 16.1573C13.9132 15.8954 14.1169 15.6422 14.3278 15.3967Z" fill="#666666"/>
<path d="M25.1499 34.0618C25.4933 33.9835 25.8382 33.8881 26.175 33.7788L25.8563 32.7991C25.5469 32.8991 25.2334 32.9862 24.9199 33.0569L25.1499 34.0618Z" fill="#666666"/>
<path d="M31.4337 30.2989L30.6566 29.6213C30.4463 29.8616 30.2204 30.0983 29.9863 30.3236L30.6974 31.0677C30.9552 30.8222 31.2027 30.5634 31.4337 30.2989Z" fill="#666666"/>
<path d="M30.6289 15.3457C30.8413 15.587 31.0466 15.8418 31.2379 16.1027L32.0696 15.4932C31.8597 15.207 31.6354 14.926 31.4029 14.6641L30.6289 15.3457Z" fill="#666666"/>
<path d="M32.625 18.6544C32.7395 18.9561 32.8421 19.2665 32.9287 19.5764L33.9218 19.2984C33.8269 18.9586 33.7155 18.6188 33.5892 18.2883L32.625 18.6544Z" fill="#666666"/>
<path d="M34.3081 21.3888C34.2756 21.0376 34.2266 20.6834 34.1627 20.3348L33.1484 20.5225C33.2072 20.8402 33.2516 21.1634 33.2815 21.4837L34.3081 21.3888Z" fill="#666666"/>
<path d="M16.5469 31.5466C16.2788 31.3697 16.0143 31.1779 15.7611 30.9763L15.1191 31.7812C15.3965 32.0024 15.6863 32.2123 15.9797 32.4056L16.5469 31.5466Z" fill="#666666"/>
<path d="M34.3592 22.4918L34.0375 22.467L33.328 22.5C33.328 22.8239 33.3135 23.1508 33.2852 23.471L34.3123 23.5617C34.3432 23.2116 34.3592 22.8543 34.3592 22.4918Z" fill="#666666"/>
<path d="M34.1712 24.614L33.1564 24.4315C33.0992 24.7481 33.027 25.0668 32.9414 25.3782L33.936 25.651C34.0294 25.3117 34.1088 24.9626 34.1712 24.614Z" fill="#666666"/>
<path d="M33.6071 26.6646L32.6418 26.3037C32.5289 26.6048 32.4 26.9054 32.2598 27.1968L33.1879 27.6443C33.3426 27.3236 33.4828 26.9946 33.6071 26.6646Z" fill="#666666"/>
<path d="M32.6842 28.5802L31.7994 28.0507C31.6344 28.3265 31.4539 28.5988 31.2637 28.8602L32.0974 29.4676C32.3058 29.1809 32.5032 28.8824 32.6842 28.5802Z" fill="#666666"/>
<path d="M31.7754 16.9106C31.9425 17.1875 32.0987 17.4742 32.2395 17.7629L33.1676 17.3118C33.0129 16.9952 32.8422 16.6806 32.6592 16.3774L31.7754 16.9106Z" fill="#666666"/>
<path d="M17.8086 11.6059L18.217 12.5526C18.5135 12.4252 18.8187 12.3092 19.125 12.2092L18.8032 11.2295C18.4665 11.3388 18.1319 11.4656 17.8086 11.6059Z" fill="#666666"/>
<path d="M21.0131 11.775L20.8729 10.7531C20.5228 10.801 20.1706 10.866 19.8262 10.9449L20.0587 11.9503C20.3722 11.8781 20.696 11.8173 21.0131 11.775Z" fill="#666666"/>
<path d="M16.8506 12.0704C16.5412 12.2396 16.2318 12.4236 15.9395 12.6196L16.5113 13.4765C16.7794 13.2981 17.0589 13.1295 17.343 12.9754L16.8506 12.0704Z" fill="#666666"/>
<path d="M22.9929 10.651C22.6418 10.6365 22.2824 10.6376 21.9297 10.6541L21.9782 11.6853C22.3004 11.6699 22.6284 11.6683 22.9501 11.6822L22.9929 10.651Z" fill="#666666"/>
<path d="M30.6645 13.8978C30.4066 13.6544 30.1375 13.4203 29.8611 13.2012L29.2207 14.0092C29.4728 14.2092 29.7198 14.4217 29.9544 14.6465L30.6645 13.8978Z" fill="#666666"/>
<path d="M28.9967 12.5784C28.7007 12.384 28.3929 12.2014 28.0825 12.0354L27.5957 12.9444C27.8798 13.0966 28.1603 13.2631 28.431 13.4405L28.9967 12.5784Z" fill="#666666"/>
<path d="M27.1233 11.576C26.7985 11.4389 26.4628 11.3141 26.1256 11.2058L25.8105 12.1876C26.1199 12.286 26.4247 12.4005 26.7206 12.5258L27.1233 11.576Z" fill="#666666"/>
<path d="M29.9005 31.7689L29.2555 30.963C29.0033 31.1646 28.7399 31.357 28.4707 31.5343L29.0379 32.3944C29.3349 32.2 29.6242 31.9876 29.9005 31.7689Z" fill="#666666"/>
<path d="M24.054 10.7438L23.9199 11.7668C24.2412 11.8085 24.5624 11.8653 24.8759 11.9354L25.1007 10.9289C24.7573 10.8469 24.4051 10.7876 24.054 10.7438Z" fill="#666666"/>
<path d="M27.1406 21.4688H17.8594V28.6875H27.1406V21.4688ZM19.4062 27.6562H18.375V26.625H19.4062V27.6562ZM19.4062 23.5312H18.375V22.5H19.4062V23.5312ZM23.5312 25.7077V26.1094C23.5312 26.3829 23.4226 26.6452 23.2292 26.8386C23.0358 27.032 22.7735 27.1406 22.5 27.1406C22.2265 27.1406 21.9642 27.032 21.7708 26.8386C21.5774 26.6452 21.4688 26.3829 21.4688 26.1094V25.7077C21.2719 25.533 21.1233 25.3107 21.0373 25.062C20.9512 24.8133 20.9306 24.5466 20.9774 24.2877C21.0455 23.907 21.2539 23.5657 21.5612 23.331C21.8686 23.0963 22.2528 22.9852 22.6379 23.0197C23.0231 23.0542 23.3815 23.2317 23.6422 23.5173C23.903 23.8029 24.0474 24.1758 24.0469 24.5625C24.0465 24.7789 24.0004 24.9929 23.9115 25.1902C23.8226 25.3876 23.6931 25.5639 23.5312 25.7077ZM26.625 27.6562H25.5938V26.625H26.625V27.6562ZM26.625 23.5312H25.5938V22.5H26.625V23.5312Z" fill="#666666"/>
<path d="M18.8906 20.4375H19.9219V18.8906C19.9219 18.2069 20.1935 17.5511 20.677 17.0676C21.1605 16.5841 21.8162 16.3125 22.5 16.3125C23.1838 16.3125 23.8395 16.5841 24.323 17.0676C24.8065 17.5511 25.0781 18.2069 25.0781 18.8906V20.4375H26.1094V18.8906C26.1094 17.9334 25.7291 17.0153 25.0522 16.3384C24.3753 15.6615 23.4573 15.2812 22.5 15.2812C21.5427 15.2812 20.6247 15.6615 19.9478 16.3384C19.2709 17.0153 18.8906 17.9334 18.8906 18.8906V20.4375Z" fill="#666666"/>
</g>
<defs>
<clipPath id="clip0_333_3473">
<rect width="33" height="33" fill="white" transform="translate(6 6)"/>
</clipPath>
</defs>
</svg>
