<svg width="45" height="45" viewBox="0 0 45 45" fill="none" xmlns="http://www.w3.org/2000/svg">
<rect width="45" height="45" rx="9" fill="#E1F8D3"/>
<g clip-path="url(#clip0_312_2439)">
<path d="M19.1068 19.0436V10.9193V10.9192C19.1066 9.60054 16.4872 9 14.0534 9C11.6196 9 9.00021 9.60059 9 10.9192V10.9193V19.0436C9 19.7165 9.59031 20.2244 10.7546 20.553C11.6309 20.8005 12.8024 20.9367 14.0535 20.9367C14.8973 20.9367 19.1068 20.8455 19.1068 19.0436ZM10.9082 10.2619C11.7422 9.99225 12.8592 9.84375 14.0534 9.84375C15.2476 9.84375 16.3646 9.9922 17.1986 10.2619C18.0674 10.5427 18.263 10.8379 18.2631 10.9192V10.9197C18.2624 11.0016 18.066 11.2963 17.1986 11.5768C16.9884 11.6447 16.7601 11.705 16.5173 11.7571C15.8053 11.8929 14.9414 11.9685 14.0536 11.9685C13.1648 11.9685 12.3001 11.8927 11.5877 11.7566C11.3455 11.7046 11.118 11.6445 10.9083 11.5767C10.0408 11.2963 9.84444 11.0016 9.84375 10.9197C9.84375 10.9196 9.84375 10.9194 9.84375 10.9192C9.84386 10.8379 10.0395 10.5427 10.9082 10.2619ZM9.84375 12.0747C10.0928 12.2093 10.3964 12.3274 10.7546 12.4286C10.9253 12.4768 11.1075 12.5207 11.2991 12.5602C12.1357 12.7481 13.1085 12.8387 14.0534 12.8387C15.006 12.8387 15.987 12.7467 16.8283 12.5556C17.3535 12.4474 17.8609 12.2939 18.263 12.0766V13.6273C18.263 13.8006 17.9644 14.0872 17.1229 14.3248C16.3308 14.5484 15.2121 14.6768 14.0534 14.6768C12.8948 14.6768 11.7759 14.5484 10.9839 14.3248C10.1423 14.0872 9.84375 13.8006 9.84375 13.6273V12.0747ZM9.84375 14.7829C10.0928 14.9175 10.3964 15.0356 10.7546 15.1368C11.6308 15.3842 12.8024 15.5204 14.0534 15.5204C14.6579 15.5204 16.9889 15.4735 18.263 14.7847V16.3355C18.263 16.5087 17.9644 16.7953 17.1229 17.0329C16.3308 17.2566 15.2121 17.3849 14.0534 17.3849C12.8948 17.3849 11.7759 17.2566 10.9839 17.0329C10.1423 16.7953 9.84375 16.5087 9.84375 16.3355V14.7829ZM9.84375 19.0436V17.491C10.0928 17.6257 10.3964 17.7438 10.7546 17.8449C11.6308 18.0924 12.8024 18.2286 14.0534 18.2286C14.6579 18.2286 16.9889 18.1816 18.263 17.4929V19.0436C18.263 19.2169 17.9644 19.5035 17.1229 19.7411C16.3308 19.9647 15.2121 20.093 14.0535 20.093C12.8948 20.093 11.776 19.9647 10.9839 19.7411C10.1423 19.5035 9.84375 19.2169 9.84375 19.0436ZM21.3799 14.1104C21.3799 13.8775 21.5688 13.6886 21.8018 13.6886H27.023C29.2382 13.6886 31.0405 15.4908 31.0405 17.7061V20.5045L32.6984 18.4022C32.8426 18.2192 33.1079 18.1879 33.2908 18.3322C33.4738 18.4765 33.5051 18.7418 33.3608 18.9247L30.9498 21.9821C30.8698 22.0835 30.7478 22.1427 30.6186 22.1427C30.4894 22.1427 30.3673 22.0835 30.2873 21.9821L27.8763 18.9247C27.7321 18.7417 27.7634 18.4765 27.9464 18.3322C28.1293 18.188 28.3945 18.2192 28.5389 18.4022L30.1967 20.5045V17.7061C30.1967 15.956 28.773 14.5323 27.0229 14.5323H21.8018C21.5688 14.5323 21.3799 14.3434 21.3799 14.1104ZM19.9315 33.2453C19.9315 33.4783 19.7426 33.6672 19.5096 33.6672H17.3996C15.3219 33.6672 13.6315 31.9767 13.6315 29.8989V23.4092L12.1409 25.2995C11.9966 25.4824 11.7312 25.5137 11.5484 25.3695C11.3655 25.2253 11.3341 24.96 11.4784 24.7771L13.7221 21.9317C13.8022 21.8303 13.9242 21.7711 14.0534 21.7711C14.1826 21.7711 14.3047 21.8302 14.3846 21.9317L16.6284 24.777C16.7727 24.96 16.7414 25.2253 16.5585 25.3695C16.4811 25.4305 16.3889 25.4601 16.2975 25.4601C16.1728 25.4601 16.0492 25.4051 15.966 25.2995L14.4753 23.4092V29.8989C14.4753 31.5115 15.7871 32.8234 17.3996 32.8234H19.5096C19.7426 32.8234 19.9315 33.0123 19.9315 33.2453ZM27.5405 25.7629H25.3762C25.1432 25.7629 24.9543 25.9518 24.9543 26.1848V35.5781C24.9543 35.8111 25.1432 36 25.3762 36H27.5405C27.7735 36 27.9624 35.8111 27.9624 35.5781V26.1848C27.9624 25.9518 27.7735 25.7629 27.5405 25.7629ZM27.1186 35.1562H25.7981V26.6066H27.1186V35.1562ZM35.5781 23.1959H33.4138C33.1808 23.1959 32.9919 23.3848 32.9919 23.6178V35.5781C32.9919 35.8111 33.1808 35.9999 33.4138 35.9999H35.5781C35.8111 35.9999 36 35.8111 36 35.5781V23.6178C36 23.3848 35.8111 23.1959 35.5781 23.1959ZM35.1562 35.1562H33.8357V24.0397H35.1562V35.1562ZM31.5594 27.4372H29.395C29.162 27.4372 28.9731 27.6261 28.9731 27.8591V35.5781C28.9731 35.8111 29.162 36 29.395 36H31.5594C31.7924 36 31.9813 35.8111 31.9813 35.5781V27.8591C31.9813 27.6261 31.7924 27.4372 31.5594 27.4372ZM31.1375 35.1562H29.8169V28.281H31.1375V35.1562ZM23.5217 30.2457H21.3574C21.1244 30.2457 20.9355 30.4346 20.9355 30.6676V35.5781C20.9355 35.8111 21.1244 35.9999 21.3574 35.9999H23.5217C23.7547 35.9999 23.9436 35.8111 23.9436 35.5781V30.6676C23.9436 30.4346 23.7547 30.2457 23.5217 30.2457ZM23.0998 35.1562H21.7792V31.0894H23.0998V35.1562Z" fill="#54B01C"/>
</g>
<defs>
<clipPath id="clip0_312_2439">
<rect width="27" height="27" fill="white" transform="translate(9 9)"/>
</clipPath>
</defs>
</svg>
