<svg width="331" height="226" viewBox="0 0 331 226" fill="none" xmlns="http://www.w3.org/2000/svg">
<path d="M57.4439 188.82L59.8103 188.215C60.0655 188.149 60.2203 187.886 60.1562 187.625C60.0915 187.366 59.8307 187.211 59.5787 187.273L57.2115 187.88C56.9563 187.946 56.802 188.209 56.8661 188.469C56.9312 188.732 57.195 188.887 57.4439 188.82Z" fill="black"/>
<path d="M60.9713 214.148C61.4287 214.214 61.8638 214.504 62.107 214.905C62.2449 215.131 62.5374 215.204 62.7625 215.062C62.9861 214.92 63.0549 214.622 62.9169 214.394C62.5231 213.746 61.8462 213.295 61.1062 213.187C60.8454 213.156 60.6045 213.334 60.5673 213.6C60.5301 213.865 60.7115 214.11 60.9713 214.148Z" fill="black"/>
<path d="M9.16856 207.014L7.95424 206.671C7.70365 206.604 7.4387 206.751 7.3689 207.01C7.29873 207.268 7.44792 207.535 7.70127 207.607L8.91368 207.948C9.16249 208.02 9.42891 207.871 9.49993 207.611C9.57026 207.353 9.42191 207.086 9.16856 207.014Z" fill="black"/>
<path d="M26.0602 187.563L24.9259 187.273C24.6721 187.21 24.4122 187.366 24.3485 187.626C24.2843 187.886 24.4391 188.15 24.6944 188.215L25.8287 188.505C26.095 188.57 26.3445 188.404 26.4061 188.151C26.4702 187.892 26.3154 187.628 26.0602 187.563Z" fill="black"/>
<path d="M24.4917 172.875H26.4145C26.6776 172.875 26.8905 172.658 26.8905 172.39C26.8905 172.121 26.6776 171.904 26.4145 171.904H24.4917C24.2285 171.904 24.0156 172.121 24.0156 172.39C24.0155 172.658 24.2285 172.875 24.4917 172.875Z" fill="black"/>
<path d="M29.2354 178.035C29.2474 178.035 29.26 178.035 29.2726 178.033L30.1056 177.968C30.3678 177.948 30.5635 177.715 30.5435 177.448C30.5231 177.181 30.299 176.957 30.0321 177.001L29.1991 177.067C28.9369 177.087 28.7412 177.32 28.7612 177.587C28.7802 177.842 28.989 178.035 29.2354 178.035Z" fill="black"/>
<path d="M19.3057 179.88L17.4512 179.086C17.2108 178.982 16.9291 179.098 16.8283 179.346C16.7265 179.593 16.8403 179.877 17.083 179.981L18.9375 180.775C18.9974 180.8 19.0602 180.813 19.1216 180.813C19.3075 180.813 19.4842 180.701 19.5604 180.515C19.6622 180.268 19.5483 179.983 19.3057 179.88Z" fill="black"/>
<path d="M15.9985 204.955C15.7819 204.801 15.4853 204.855 15.3356 205.075C15.1854 205.295 15.238 205.597 15.4536 205.75L17.1603 206.962C17.3763 207.116 17.673 207.061 17.8228 206.842C17.973 206.622 17.92 206.32 17.7043 206.166L15.9985 204.955Z" fill="black"/>
<path d="M23.0613 206.362C22.8572 206.195 22.5573 206.229 22.3919 206.437C22.2273 206.646 22.2603 206.951 22.4653 207.118L23.6443 208.082C23.8493 208.25 24.1481 208.217 24.3137 208.007C24.4783 207.799 24.4453 207.494 24.2402 207.326L23.0613 206.362Z" fill="black"/>
<path d="M21.7431 215.061C21.9679 215.203 22.2605 215.131 22.3986 214.905C22.6417 214.504 23.0768 214.214 23.5339 214.148C23.7942 214.11 23.9756 213.865 23.9384 213.599C23.9007 213.334 23.6515 213.152 23.4 213.187C22.6594 213.295 21.9825 213.746 21.5888 214.393C21.4507 214.622 21.5195 214.92 21.7431 215.061Z" fill="black"/>
<path d="M14.6374 213.225L16.3895 212.425C16.6294 212.316 16.7373 212.029 16.6299 211.785C16.522 211.541 16.2431 211.429 16.0009 211.54L14.2487 212.34C14.0088 212.449 13.901 212.736 14.0084 212.981C14.1186 213.23 14.4047 213.333 14.6374 213.225Z" fill="black"/>
<path d="M328.971 225.03H319.149L330.512 170.897C330.575 170.597 330.35 170.311 330.046 170.311H319.33V153.772C319.33 153.504 319.117 153.287 318.854 153.287H276.334V135.055C276.334 134.787 276.121 134.57 275.858 134.57H262.608L260.047 132.419C259.843 132.25 259.544 132.278 259.376 132.485C259.209 132.691 259.238 132.997 259.441 133.167L261.11 134.57H254.23L251.669 132.419C251.466 132.25 251.166 132.278 250.999 132.485C250.832 132.691 250.861 132.997 251.063 133.167L252.733 134.57H245.853L243.291 132.419C243.088 132.25 242.788 132.278 242.621 132.485C242.453 132.691 242.482 132.997 242.685 133.167L244.356 134.57H234.94V117.183H266.513C281.749 117.183 294.144 104.556 294.144 89.0356C294.144 77.5018 287.107 67.0108 276.586 62.7824C281.708 45.7461 265.42 29.6054 248.72 35.935C238.375 8.38778 203.296 2.31949 181.85 17.5957V4.096C181.85 3.34369 181.249 2.7316 180.51 2.7316H132.331C131.592 2.7316 130.992 3.34369 130.992 4.096V26.4284C130.992 27.1807 131.592 27.7929 132.331 27.7929H171.783C166.463 35.5036 164.062 44.9901 164.492 53.0876C151.929 57.903 143.512 70.3095 143.512 84.0771C143.512 102.332 158.089 117.183 176.007 117.183H203.736V134.57H191.899L193.569 133.167C193.772 132.997 193.801 132.691 193.633 132.485C193.466 132.277 193.167 132.249 192.963 132.419L190.402 134.57H183.521L185.192 133.167C185.394 132.997 185.423 132.691 185.256 132.485C185.089 132.277 184.788 132.249 184.586 132.419L182.024 134.57H175.144L176.814 133.167C177.017 132.997 177.046 132.691 176.879 132.485C176.711 132.277 176.412 132.249 176.208 132.419L173.646 134.57H161.799C161.536 134.57 161.323 134.787 161.323 135.055V153.287H149.661L142.84 144.451C142.75 144.334 142.612 144.266 142.466 144.266H115.62C115.357 144.266 115.144 144.483 115.144 144.751V170.311H104.426C104.122 170.311 103.898 170.597 103.96 170.897L115.323 225.03H90.0217C91.1188 223.285 89.479 219.323 85.9576 218.945L82.3872 218.567L77.8552 215.801C79.4718 215.526 81.0292 215.178 82.3682 214.074C82.4253 214.026 82.4919 213.967 82.53 213.929C85.1507 211.542 86.1398 205.634 79.3215 202.576C79.0401 202.46 78.7354 202.319 78.2932 202.169V114.728H78.3014C78.4739 114.708 78.6259 114.639 78.7118 114.491C81.8429 109.13 80.4705 76.3897 80.18 72.1159C85.7328 70.4411 95.7976 68.3178 99.6218 64.8696C105.69 59.3876 114.127 35.5275 114.483 34.5141C114.566 34.2786 114.459 34.0176 114.237 33.9114L113.202 33.4169C116.706 29.8233 119.877 29.4741 120.176 26.208C120.348 24.3244 119.193 22.6548 118.537 21.8726C128.104 16.0907 126.136 9.50653 114.718 17.5874C113.069 16.2682 111.215 16.7364 109.665 18.1886C109.265 16.9956 108.336 16.457 107.096 16.8625C104.516 17.7037 102.262 23.7308 101.055 27.612L100.288 27.2456C100.063 27.1371 99.7966 27.2238 99.6738 27.4431L87.0688 49.7977L68.957 52.4972C66.4352 51.9792 63.0885 51.4117 60.4952 51.1649L60.5773 50.027C61.4801 49.4599 63.5396 48.0756 63.806 47.093C64.8771 43.1737 59.8536 38.2276 59.016 37.4368C60.1188 36.7369 62.8404 34.8063 60.6704 34.0218C57.9966 33.0551 46.8707 37.1176 49.9757 43.7689C51.6851 47.4305 52.9596 49.0468 53.7869 49.5519L53.488 51.1025C46.8344 51.704 40.3317 53.5441 36.3081 59.0091C36.1989 59.1456 25.385 72.8242 25.4613 87.8543C25.5087 96.791 33.8196 120.171 34.1733 121.162C34.2589 121.402 34.5098 121.529 34.7438 121.465L35.0393 121.384V175.748C33.8207 174.468 32.5352 173.303 31.2215 172.275C26.6168 168.522 18.9467 165.012 13.5219 167.491C9.83963 169.223 8.15404 173.658 8.93276 176.835C9.82548 180.799 14.2622 184.355 17.3398 187.033C21.7776 190.959 25.4927 194.292 29.4505 199.733C29.755 200.201 32.4981 203.638 35.0393 209.339V210.426C33.3065 208.747 31.3642 207.214 29.3173 205.934C24.0113 202.931 19.1763 201.043 13.103 201.043C8.16026 201.043 5.2585 202.559 5.16242 202.586C1.70661 204.134 -0.678457 206.889 0.173446 210.668C1.30968 215.861 6.46399 215.927 11.6748 216.18C19.8934 216.664 23.2785 217.189 31.3166 220.856C33.4208 221.904 35.3155 223.185 36.8293 224.233C36.8677 224.52 36.9869 224.784 37.1404 225.03H2.87712C2.61401 225.03 2.4011 225.247 2.4011 225.515C2.4011 225.783 2.61401 226 2.87712 226C18.885 226 312.732 226 328.971 226C329.234 226 329.447 225.783 329.447 225.515C329.447 225.247 329.234 225.03 328.971 225.03ZM78.9596 203.469C84.8865 206.16 84.163 211.146 81.873 213.22C81.835 213.269 81.7874 213.298 81.7588 213.337C80.3794 214.473 78.3067 214.802 76.5127 214.976L74.8466 213.958V211.386H78.2932C79.347 211.865 78.7869 211.527 79.7308 212.124C79.9498 212.26 80.245 212.192 80.3783 211.969C80.5211 211.736 80.4545 211.445 80.226 211.299C79.5881 210.901 78.9407 210.542 78.2933 210.222V203.197C78.7243 203.354 78.6912 203.357 78.9596 203.469ZM107.386 17.7864C108.156 17.5371 108.742 17.8061 108.883 19.0688C108.745 19.2587 108.502 19.6028 108.226 20.0467C108.085 20.2731 108.151 20.573 108.374 20.7161C108.593 20.8582 108.888 20.7944 109.031 20.566C110.199 18.6827 111.973 16.9966 113.824 18.143C113.264 18.4971 112.45 19.0861 111.784 19.8743C111.612 20.0775 111.635 20.3841 111.834 20.5584C112.034 20.7337 112.335 20.7097 112.506 20.5072C113.513 19.3141 114.871 18.6652 114.967 18.5951C125.338 11.0245 126.883 15.9599 117.562 21.3273C117.197 21.4841 114.935 22.559 114.228 25.3548C114.162 25.6143 114.315 25.8787 114.57 25.946C114.823 26.012 115.083 25.8577 115.15 25.5974C115.499 24.2144 116.642 22.8978 117.676 22.3489C118.176 22.9101 119.38 24.4449 119.227 26.1175C118.976 28.8661 115.82 29.207 112.291 32.9766C111.231 32.4705 116.131 34.8099 101.924 28.0272C103.743 22.1282 105.776 18.3118 107.386 17.7864ZM55.4734 44.0702C57.0491 44.9541 58.8399 44.7692 58.1813 43.2356C57.702 42.1195 57.2126 40.1877 57.6555 38.8597L58.5303 38.3057C59.6214 39.3745 63.7501 43.6806 62.8886 46.8335C62.7579 47.3148 61.2229 48.5025 59.8752 49.3264C59.7427 49.4074 59.6566 49.5496 59.6455 49.7069C59.6383 49.8062 59.1568 56.4247 59.1862 56.0203L54.4564 51.1917C54.4557 51.1909 54.4546 51.1908 54.4539 51.19L54.4435 51.1794L54.7694 49.4881C54.8404 49.3741 54.8869 49.2292 54.906 49.0618C55.0521 47.7784 54.1285 46.1564 54.1285 46.1564C54.1285 46.1564 52.1618 42.2123 55.4734 44.0702ZM34.9203 120.412C33.7809 117.165 26.4565 95.9776 26.4133 87.8493C26.3553 76.4168 32.7737 65.7503 35.6701 61.5226C35.5322 62.5795 35.5923 63.8072 36.1755 64.9963C36.2927 65.2343 36.5769 65.3334 36.8143 65.2133C37.0495 65.0934 37.1448 64.802 37.0272 64.5623C36.5152 63.519 36.6489 60.6645 37.3393 59.2709C41.3347 54.1516 47.5789 52.5773 53.9375 52.0365L59.2509 57.4606C59.5174 57.7322 60.0312 57.5945 60.0626 57.1536L60.4255 52.1286C62.9098 52.3661 66.4369 52.9624 68.8476 53.4649C68.9015 53.4767 68.9573 53.4781 69.0122 53.4697L87.1367 50.7682L90.1964 55.3946C90.342 55.6149 90.6366 55.6767 90.8575 55.5258C91.076 55.3761 91.1337 55.0747 90.9867 54.8526L87.926 50.2247L100.281 28.3137C105.136 30.6338 108.526 32.2538 113.439 34.6019C112.686 36.6984 109.172 46.3031 105.308 54.1934C105.629 51.1831 104.594 49.4825 104.53 49.3811C104.388 49.157 104.094 49.0906 103.874 49.2352C103.653 49.3783 103.588 49.6777 103.728 49.9036C106.114 53.7618 102.436 61.0308 98.9903 64.1436C95.3002 67.4713 84.6233 69.7213 79.5351 71.3003C78.0752 71.7556 76.7865 71.9008 75.2697 71.7125C75.0033 71.6732 74.7709 71.8694 74.7393 72.1347C74.7072 72.4005 74.8927 72.6426 75.1535 72.6752C76.5941 72.8556 78.029 72.743 79.2514 72.4099C79.6137 77.459 80.6477 108.26 78.0191 113.757L47.6502 113.662L41.3103 88.1186L47.3084 81.0803C47.4809 80.8779 47.4595 80.5719 47.261 80.3961C47.0643 80.2208 46.7621 80.2407 46.5896 80.4445L40.571 87.5064H36.4071C36.1439 87.5064 35.931 87.7234 35.931 87.9915C35.931 88.2596 36.1439 88.4766 36.4071 88.4766H40.417C41.1275 91.3948 37.8431 77.9052 47.366 117.017L34.9203 120.412ZM73.8943 211.872V213.987L70.7239 216.16L65.2493 214.462V211.872H73.8943ZM49.8634 211.387H50.8822L50.9964 210.31C54.2588 207.376 57.9137 205.177 61.8789 203.76L62.1074 206.428C61.936 206.225 61.6504 206.196 61.4409 206.361L60.2603 207.331C60.0604 207.496 60.0223 207.796 60.1937 208.01C60.3733 208.23 60.6906 208.231 60.8601 208.078L62.0408 207.117C62.0884 207.079 62.1264 207.03 62.155 206.972L62.3835 209.524C58.2934 210.851 54.3761 213.165 50.9365 216.038L50.9298 216.034L47.5689 213.987C47.5688 213.732 49.6783 211.571 49.8634 211.387ZM47.5307 213.211V211.386C47.6338 211.386 49.2905 211.386 49.1874 211.386C48.4764 212.111 48.0867 212.55 47.5307 213.211ZM55.3094 177.068L54.4716 177L54.9667 172.207C56.271 171.256 57.5944 170.451 58.9084 169.801L59.0892 171.906H58.0895C57.8324 171.906 57.6135 172.12 57.6135 172.391C57.6135 172.653 57.8325 172.876 58.0895 172.876H59.1749L59.6795 178.708C57.4135 180.406 55.4237 182.405 53.6717 184.626L54.3668 177.961C54.3763 177.97 54.3953 177.97 54.4049 177.97C54.4162 177.971 54.2879 177.96 55.2712 178.038C55.5188 178.038 55.7283 177.844 55.7473 177.582C55.7664 177.32 55.5665 177.087 55.3094 177.068ZM55.0999 170.936L57.2231 150.609L58.813 168.772C57.5659 169.364 56.3282 170.092 55.0999 170.936ZM59.7843 179.843L60.8126 191.574C57.3868 194.919 54.2435 198.888 51.7581 202.974L53.4814 186.46C55.2904 183.967 57.3754 181.725 59.7843 179.843ZM60.9173 192.825L61.7932 202.761C57.989 204.082 54.4067 206.144 51.1392 208.903L51.52 205.293C53.9195 200.985 56.971 196.841 60.9173 192.825ZM62.4692 210.513L62.5453 211.387H64.2973C64.2967 211.484 64.2667 216.395 64.2687 216.083C61.451 216.58 58.4933 217.436 55.6617 218.634L55.0714 218.567L51.8057 216.577L51.8033 216.576C55.0313 213.923 58.6821 211.772 62.4692 210.513ZM30.2121 199.161C26.328 193.791 22.52 190.335 17.9585 186.295C15.1141 183.825 10.6844 180.277 9.85615 176.612C9.37551 172.699 10.9973 169.86 13.9121 168.374C18.9779 166.06 26.2453 169.519 30.6309 173.032C32.1638 174.235 33.6491 175.622 35.0392 177.155V191.147C31.0404 183.549 25.1945 177.301 16.6922 174.419C16.4446 174.332 16.1686 174.468 16.0924 174.72C16.0067 174.982 16.14 175.254 16.3876 175.341C25.2325 178.329 31.1356 185.121 35.0392 193.281V207.117C32.7101 202.457 30.2761 199.258 30.2121 199.161ZM36.8958 219.12C28.2793 210.203 15.1308 204.478 4.27685 211.299C4.05786 211.445 3.98169 211.736 4.1245 211.969C4.25779 212.192 4.55295 212.269 4.78147 212.124C15.4545 205.4 28.5459 211.464 36.8672 220.488C36.8585 220.963 36.817 223.213 36.8196 223.069C35.382 222.069 33.6586 220.944 31.7354 219.983C23.7151 216.332 20.6264 215.748 11.7222 215.209C6.90013 214.972 2.09963 215.05 1.10637 210.455C0.367532 207.158 2.4835 204.858 5.52408 203.479C5.67243 203.436 8.4346 202.014 13.0743 202.014C19.6073 201.867 24.3287 204.475 28.8315 206.768C33.1104 209.451 36.7041 213.35 36.9815 214.103C36.9798 214.203 36.8938 219.219 36.8958 219.12ZM36.9815 212.473C36.8778 212.358 36.4781 211.892 35.9818 211.387H36.972C36.9825 212.586 36.9814 212.465 36.9815 212.473ZM36.9807 120.978L46.8239 118.273C48.3125 118.933 51.821 120.835 52.4087 122.741C52.6656 123.575 52.266 124.535 51.4849 124.655C50.0163 124.876 47.3994 122.928 46.5152 122.157C46.3264 121.993 46.0462 122.003 45.8704 122.182C45.6947 122.359 45.6816 122.644 45.8406 122.838C49.1846 126.9 52.2069 131.806 51.3761 132.633C51.2734 132.737 51.192 132.747 51.0981 132.729C49.7098 132.466 47.3796 127.382 47.3245 127.285C47.2117 127.085 46.9362 126.95 46.689 127.075C46.4575 127.191 46.3585 127.474 46.4659 127.712C46.945 128.779 49.047 132.999 48.5072 134.447C48.409 134.709 48.202 134.77 47.9526 134.646C46.5874 133.961 45.097 129.49 44.6225 128.019C44.5412 127.767 44.2743 127.629 44.027 127.708C43.7783 127.788 43.6393 128.057 43.7146 128.311C44.0499 129.445 45.2714 133.568 44.6639 134.692C44.5563 134.892 44.3298 134.848 44.1464 134.723C42.7948 133.796 42.0073 128.763 41.8452 127.899C41.7964 127.64 41.5542 127.462 41.299 127.512C41.0442 127.555 40.8699 127.798 40.9061 128.059C40.9201 128.16 41.7767 133.335 40.9717 133.767C39.9643 133.509 37.2584 122.124 36.9807 120.978ZM37.9336 213.948C37.9336 213.505 37.9336 211.287 37.9336 211.387H46.5786C46.5786 211.595 46.5786 214.026 46.5786 213.907C46.5749 213.917 46.5884 213.892 46.531 214.016L43.4082 216.16C30.9707 212.306 45.9788 216.955 38.1335 214.53V214.521C38.0763 214.336 38.0097 214.142 37.9336 213.948ZM37.7908 222.108C37.8813 217.1 37.9153 215.434 37.9145 215.471C40.6734 216.323 43.4864 217.192 43.351 217.15C43.4842 217.198 43.6271 217.169 43.7509 217.092L47.0737 214.821L54.6714 219.449C54.7286 219.488 54.7952 219.508 54.8714 219.517C57.0597 220.007 60.2503 219.208 61.6503 222.108C57.6471 222.108 44.3392 222.108 37.7908 222.108ZM62.697 225.03C62.9002 224.706 63.0214 224.323 63.0214 223.913C63.0214 218.907 57.823 218.893 57.7278 218.848C59.778 218.1 61.942 217.492 64.2497 217.072C64.2478 217.169 64.1075 224.33 64.1164 223.874C64.1093 224.29 64.2233 224.689 64.4362 225.03H62.697ZM65.116 221.623L65.2303 215.471L70.6667 217.15C70.8 217.198 70.9524 217.169 71.0666 217.092L74.3894 214.811L81.9967 219.449C82.0538 219.488 82.1204 219.508 82.1871 219.517C84.6858 220.013 87.1611 219.333 88.6899 221.623H65.116V221.623ZM318.378 154.257V170.311H311.883V164.248C311.883 163.957 311.659 163.729 311.373 163.729H242.96C242.675 163.729 242.451 163.957 242.451 164.248V170.311H235.956V145.236H262.095L268.916 154.072C269.006 154.189 269.144 154.257 269.29 154.257H318.378ZM132.331 26.8226C132.118 26.8226 131.944 26.6458 131.944 26.4284V4.096C131.944 3.87855 132.118 3.70183 132.331 3.70183H180.51C180.724 3.70183 180.898 3.87855 180.898 4.096V26.4284C180.898 26.6407 180.73 26.8216 180.51 26.8216C170.845 26.8218 135.136 26.8225 132.331 26.8226ZM176.007 116.213C158.615 116.213 144.464 101.797 144.464 84.0771C144.464 70.5932 152.778 58.4549 165.154 53.8726C165.356 53.7977 165.484 53.5941 165.465 53.3752C164.835 45.8777 167.279 35.712 172.944 27.7928H180.51C181.257 27.7928 181.853 27.1696 181.853 26.4236V18.7728C202.968 3.22643 238.048 9.26237 247.997 36.7314C248.09 36.9933 248.378 37.1118 248.619 37.0142C264.84 30.4657 280.91 46.3679 275.544 62.9187C275.464 63.1656 275.59 63.4332 275.829 63.5252C286.214 67.4986 293.191 77.7504 293.191 89.0355C293.191 104.021 281.223 116.213 266.513 116.213H176.007ZM116.096 145.236H142.235L149.056 154.072C149.146 154.189 149.283 154.257 149.429 154.257H198.518V170.311H192.023V164.248C192.023 163.957 191.799 163.729 191.514 163.729H123.101C122.815 163.729 122.591 163.957 122.591 164.248V170.311H116.096V145.236ZM198.315 225.03H116.296L105.014 171.281C112.462 171.281 198.343 171.281 209.598 171.281L198.315 225.03ZM199.289 225.03L210.652 170.897C210.714 170.597 210.49 170.311 210.186 170.311H199.47V153.772C199.47 153.504 199.257 153.287 198.994 153.287H162.275V135.54H173.866L176.208 137.507C176.414 137.678 176.713 137.646 176.878 137.441C177.046 137.234 177.017 136.928 176.814 136.758L175.364 135.54H182.244L184.585 137.507C184.791 137.678 185.09 137.646 185.256 137.441C185.423 137.234 185.394 136.928 185.192 136.758L183.741 135.54H190.622L192.963 137.507C193.169 137.678 193.468 137.646 193.633 137.441C193.8 137.234 193.772 136.928 193.569 136.758L192.119 135.54H204.212C204.475 135.54 204.688 135.323 204.688 135.055V117.183H233.988V135.055C233.988 135.323 234.2 135.54 234.464 135.54H244.135L242.685 136.758C242.482 136.928 242.453 137.234 242.621 137.441C242.786 137.646 243.085 137.678 243.291 137.507L245.633 135.54H252.513L251.063 136.758C250.86 136.928 250.832 137.234 250.999 137.441C251.164 137.646 251.463 137.678 251.669 137.507L254.01 135.54H260.89L259.44 136.758C259.238 136.928 259.209 137.234 259.376 137.441C259.542 137.646 259.84 137.678 260.047 137.507L262.388 135.54H275.381V153.287H269.521L262.7 144.451C262.61 144.334 262.472 144.266 262.326 144.266H235.48C235.217 144.266 235.004 144.483 235.004 144.751V170.311H224.285C223.981 170.311 223.757 170.597 223.819 170.897L235.183 225.03H199.289ZM318.175 225.03H236.157L224.874 171.281C407.927 171.281 285.849 171.281 329.458 171.281L318.175 225.03Z" fill="black"/>
<path d="M150.583 84.0768C150.583 83.8087 150.37 83.5917 150.107 83.5917C149.844 83.5917 149.631 83.8087 149.631 84.0768C149.631 92.9234 153.918 101.209 161.099 106.24C161.316 106.391 161.613 106.335 161.761 106.114C161.91 105.894 161.855 105.592 161.638 105.44C154.716 100.59 150.583 92.6036 150.583 84.0768Z" fill="black"/>
<path d="M208.547 16.7028C219.981 17.2481 229.668 22.0237 235.825 30.1506C235.987 30.3639 236.285 30.4008 236.493 30.2383C236.701 30.0743 236.739 29.7697 236.578 29.5575C230.248 21.2017 220.309 16.2925 208.592 15.7335C208.342 15.7183 208.105 15.9282 208.094 16.1954C208.081 16.4631 208.285 16.6901 208.547 16.7028Z" fill="black"/>
<path d="M270.562 54.9001C270.822 54.8646 271.006 54.6206 270.97 54.3548C269.977 46.7939 263.579 41.0927 256.085 41.0927C255.822 41.0927 255.609 41.3096 255.609 41.5778C255.609 41.8459 255.822 42.0629 256.085 42.0629C263.103 42.0629 269.097 47.4027 270.028 54.4836C270.061 54.7451 270.297 54.9353 270.562 54.9001Z" fill="black"/>
<path d="M154.74 208.848C154.931 209.061 155.204 209.191 155.486 209.191C155.778 209.191 156.05 209.061 156.232 208.838L165.76 197.794C166.319 197.142 165.86 196.116 165.013 196.116H161.665V183.551C161.665 182.994 161.219 182.54 160.673 182.54H150.309C149.754 182.54 149.308 182.994 149.308 183.551V196.116H145.968C145.112 196.116 144.663 197.165 145.222 197.794L154.74 208.848Z" fill="black"/>
<path d="M176.353 206.97C176.09 206.97 175.877 207.187 175.877 207.455V215.4H135.099V207.455C135.099 207.187 134.886 206.97 134.623 206.97C134.359 206.97 134.146 207.187 134.146 207.455V215.885C134.146 216.154 134.359 216.37 134.623 216.37H176.353C176.616 216.37 176.829 216.154 176.829 215.885V207.455C176.829 207.187 176.616 206.97 176.353 206.97Z" fill="black"/>
<path d="M274.597 208.848C275.021 209.321 275.72 209.291 276.09 208.838L285.617 197.794C286.176 197.143 285.718 196.116 284.871 196.116H281.522V183.551C281.522 182.994 281.076 182.54 280.53 182.54H270.166C269.611 182.54 269.165 182.994 269.165 183.551V196.116H265.826C264.969 196.116 264.52 197.165 265.08 197.794L274.597 208.848Z" fill="black"/>
<path d="M296.211 206.97C295.947 206.97 295.735 207.187 295.735 207.455V215.4H254.956V207.455C254.956 207.187 254.743 206.97 254.48 206.97C254.217 206.97 254.004 207.187 254.004 207.455V215.885C254.004 216.154 254.217 216.37 254.48 216.37H296.211C296.474 216.37 296.687 216.154 296.687 215.885V207.455C296.687 207.187 296.474 206.97 296.211 206.97Z" fill="black"/>
<path d="M239.583 90.7875H184.837C181.096 90.7875 178.053 93.8893 178.053 97.7017C178.053 101.514 181.096 104.616 184.837 104.616H239.583C243.325 104.616 246.368 101.514 246.368 97.7017C246.368 93.8892 243.325 90.7875 239.583 90.7875ZM239.583 103.645H184.837C181.621 103.645 179.005 100.979 179.005 97.7016C179.005 94.4241 181.621 91.7577 184.837 91.7577H239.583C242.799 91.7577 245.416 94.4241 245.416 97.7016C245.416 100.979 242.799 103.645 239.583 103.645Z" fill="black"/>
<path d="M239.582 93.6039H184.836C182.618 93.6039 180.814 95.4421 180.814 97.7019C180.814 99.9618 182.618 101.8 184.836 101.8H239.582C241.799 101.8 243.603 99.9618 243.603 97.7019C243.603 95.4421 241.799 93.6039 239.582 93.6039ZM239.582 100.83H206.003V94.5741H239.582C241.274 94.5741 242.651 95.9774 242.651 97.7019C242.651 99.4264 241.274 100.83 239.582 100.83Z" fill="black"/>
<path d="M212.204 83.2732C226.149 83.2732 237.493 71.7123 237.493 57.5017C237.493 43.2982 226.149 31.7426 212.204 31.7426C198.265 31.7426 186.926 43.2982 186.926 57.5017C186.926 71.7123 198.265 83.2732 212.204 83.2732ZM212.203 32.7129H212.204C225.623 32.7129 236.541 43.833 236.541 57.5016H229.043C229.043 48.0458 221.489 40.3529 212.204 40.3529H212.203V32.7129ZM212.204 41.3231C220.964 41.3231 228.091 48.5807 228.091 57.5017C228.091 66.4293 220.964 73.6927 212.204 73.6927C203.45 73.6927 196.328 66.4293 196.328 57.5017C196.328 48.5807 203.45 41.3231 212.204 41.3231Z" fill="black"/>
<path d="M204.875 59.4719C205.939 59.4719 206.802 58.5925 206.802 57.5077C206.802 56.4229 205.939 55.5435 204.875 55.5435C203.81 55.5435 202.947 56.4229 202.947 57.5077C202.947 58.5925 203.81 59.4719 204.875 59.4719Z" fill="black"/>
<path d="M219.543 59.4719C220.604 59.4719 221.47 58.5961 221.47 57.5077C221.47 56.4262 220.604 55.5435 219.543 55.5435C218.481 55.5435 217.615 56.4262 217.615 57.5077C217.615 58.5961 218.481 59.4719 219.543 59.4719Z" fill="black"/>
<path d="M212.197 60.5095C213.819 60.5095 215.143 59.1711 215.143 57.508C215.143 55.8551 213.819 54.5064 212.197 54.5064C210.575 54.5064 209.252 55.8552 209.252 57.508C209.252 59.1711 210.575 60.5095 212.197 60.5095Z" fill="black"/>
<path d="M177.594 15.2625C177.594 10.7442 173.987 7.06827 169.553 7.06827H143.287C138.853 7.06827 135.246 10.7442 135.246 15.2625C135.246 19.7813 138.853 23.4572 143.287 23.4572H169.553C173.987 23.4572 177.594 19.7813 177.594 15.2625ZM169.553 22.487H143.287C139.378 22.487 136.198 19.246 136.198 15.2626C136.198 11.2791 139.378 8.03866 143.287 8.03866H169.553C173.462 8.03866 176.642 11.2792 176.642 15.2626C176.642 19.2459 173.462 22.487 169.553 22.487Z" fill="black"/>
<path d="M143.824 9.97192C140.956 9.97192 138.635 12.3377 138.635 15.2598C138.635 18.1819 140.956 20.5575 143.824 20.5575C146.691 20.5575 149.022 18.1819 149.022 15.2598C149.022 12.3377 146.691 9.97192 143.824 9.97192Z" fill="black"/>
<path d="M38.1993 89.4361H36.4077C36.1446 89.4361 35.9316 89.6531 35.9316 89.9212C35.9316 90.1893 36.1446 90.4063 36.4077 90.4063H38.1993C38.4624 90.4063 38.6754 90.1893 38.6754 89.9212C38.6754 89.6531 38.4624 89.4361 38.1993 89.4361Z" fill="black"/>
<path d="M87.9363 56.3703C88.0868 56.5918 88.3848 56.6431 88.5983 56.4916C88.814 56.3386 88.8679 56.0363 88.7173 55.8159L87.595 54.1715C87.4463 53.9512 87.1487 53.8967 86.933 54.0502C86.7173 54.2033 86.6633 54.5055 86.814 54.7259L87.9363 56.3703Z" fill="black"/>
<path d="M77.3496 108.646C77.6094 108.699 77.859 108.528 77.9112 108.268C78.7787 103.949 78.5114 97.7049 78.1343 93.2274C78.1116 92.9607 77.8828 92.7579 77.6193 92.7858C77.3575 92.8086 77.1632 93.0436 77.186 93.3107C77.5574 97.7239 77.8229 103.868 76.9786 108.073C76.9256 108.336 77.092 108.592 77.3496 108.646Z" fill="black"/>
<path d="M45.1098 98.0834C44.856 98.1539 44.7072 98.4211 44.777 98.6794L47.8704 110.156C47.9391 110.413 48.2001 110.566 48.4552 110.495C48.709 110.424 48.8578 110.157 48.788 109.899L45.6947 98.4226C45.6254 98.1634 45.3627 98.01 45.1098 98.0834Z" fill="black"/>
<path d="M41.3266 80.7599C41.5496 80.9002 41.8436 80.8296 41.9812 80.6008L45.645 74.5238C45.783 74.2954 45.7128 73.997 45.4888 73.8567C45.2652 73.7151 44.9713 73.7866 44.8342 74.0159L41.1704 80.0929C41.0323 80.3213 41.1025 80.6197 41.3266 80.7599Z" fill="black"/>
<path d="M317.046 111.256C318.157 111.256 319.059 110.337 319.059 109.205C319.059 108.072 318.157 107.156 317.046 107.156C315.934 107.156 315.035 108.072 315.035 109.205C315.035 110.337 315.934 111.256 317.046 111.256Z" fill="black"/>
<path d="M296.493 62.5025C298.153 63.3619 299.735 64.4213 301.193 65.6507C301.394 65.8208 301.695 65.7935 301.862 65.5862C302.031 65.3797 302.002 65.0741 301.799 64.9031C300.287 63.6282 298.647 62.5295 296.924 61.6374C296.692 61.5171 296.404 61.6113 296.285 61.8502C296.165 62.0894 296.259 62.3812 296.493 62.5025Z" fill="black"/>
<path d="M276.616 32.3756C277.727 32.3756 278.629 31.4566 278.629 30.3241C278.629 29.1916 277.727 28.2751 276.616 28.2751C275.505 28.2751 274.605 29.1916 274.605 30.3241C274.606 31.4566 275.505 32.3756 276.616 32.3756Z" fill="black"/>
<path d="M126.873 122.102C126.873 123.235 127.775 124.154 128.886 124.154C129.998 124.154 130.897 123.235 130.897 122.102C130.897 120.97 129.997 120.053 128.886 120.053C127.775 120.053 126.873 120.97 126.873 122.102Z" fill="black"/>
<path d="M101.748 111.939C100.023 112.832 98.383 113.93 96.8721 115.205C96.6694 115.376 96.6406 115.681 96.8088 115.888C96.9762 116.095 97.2773 116.123 97.4783 115.952C98.9352 114.724 100.517 113.665 102.179 112.804C102.413 112.683 102.507 112.391 102.387 112.152C102.27 111.913 101.982 111.819 101.748 111.939Z" fill="black"/>
<path d="M126.875 50.1914C127.986 50.1914 128.885 49.2724 128.885 48.1398C128.885 47.0074 127.986 46.0909 126.875 46.0909C125.763 46.0909 124.861 47.0074 124.861 48.1398C124.861 49.2724 125.763 50.1914 126.875 50.1914Z" fill="black"/>
<path d="M108.308 73.0567C106.584 73.9488 104.944 75.0475 103.432 76.3224C103.23 76.4934 103.201 76.7994 103.37 77.0055C103.537 77.212 103.836 77.2406 104.04 77.07C105.496 75.8405 107.077 74.7812 108.739 73.9218C108.973 73.8005 109.067 73.5086 108.948 73.2694C108.829 73.0307 108.545 72.9369 108.308 73.0567Z" fill="black"/>
<path d="M194.713 147.363C194.481 147.243 194.193 147.338 194.074 147.576C193.954 147.815 194.048 148.107 194.282 148.228C195.944 149.089 197.525 150.148 198.982 151.376C199.183 151.546 199.484 151.519 199.651 151.312C199.82 151.105 199.791 150.8 199.588 150.629C198.078 149.355 196.438 148.256 194.713 147.363Z" fill="black"/>
<path d="M40.8136 47.1123L42.2585 45.791C42.4542 45.6119 42.4705 45.3054 42.2948 45.106C42.1181 44.9056 41.8169 44.8899 41.6225 45.069L40.1776 46.3903C39.9819 46.5689 39.9657 46.8759 40.1414 47.0754C40.3168 47.2745 40.6177 47.2915 40.8136 47.1123Z" fill="black"/>
<path d="M291.647 126.498C291.472 126.697 291.487 127.004 291.684 127.183L293.128 128.505C293.323 128.684 293.624 128.668 293.8 128.468C293.976 128.269 293.959 127.962 293.764 127.783L292.32 126.462C292.126 126.283 291.824 126.299 291.647 126.498Z" fill="black"/>
<path d="M250.253 15.9232L251.697 14.6014C251.893 14.4223 251.909 14.1158 251.733 13.9164C251.557 13.717 251.254 13.7013 251.061 13.8804L249.617 15.2012C249.422 15.3798 249.405 15.6868 249.581 15.8863C249.756 16.0854 250.057 16.1023 250.253 15.9232Z" fill="black"/>
<path d="M165.397 86.2152C165.157 86.3242 165.05 86.6113 165.157 86.8558C165.917 88.5921 166.492 90.4294 166.865 92.3168C166.917 92.5808 167.171 92.7502 167.425 92.6968C167.683 92.6438 167.85 92.388 167.798 92.1255C167.411 90.1678 166.815 88.2619 166.027 86.4607C165.92 86.2152 165.637 86.1053 165.397 86.2152Z" fill="black"/>
<path d="M14.2558 110.952L15.7346 109.482C15.9229 109.295 15.9266 108.988 15.743 108.796C15.5593 108.604 15.2586 108.601 15.0698 108.787L13.5909 110.258C13.4027 110.445 13.3989 110.752 13.5826 110.944C13.7663 111.136 14.0675 111.139 14.2558 110.952Z" fill="black"/>
<path d="M189.147 3.64393C190.011 4.3566 191.279 4.22077 191.979 3.34062C192.678 2.46047 192.543 1.16986 191.679 0.45719C190.816 -0.25556 189.551 -0.120121 188.852 0.760027C188.152 1.64018 188.283 2.93118 189.147 3.64393Z" fill="black"/>
<path d="M153.281 46.565C153.576 46.565 153.798 46.2973 153.753 46.004L153.447 44.0493C153.405 43.784 153.153 43.604 152.901 43.6471C152.642 43.6892 152.465 43.938 152.506 44.2027L152.812 46.1556C152.849 46.3949 153.052 46.565 153.281 46.565Z" fill="black"/>
<path d="M98.8777 6.15063C99.9889 6.15063 100.891 5.23155 100.891 4.09902C100.891 2.96648 99.989 2.05014 98.8777 2.05014C97.7664 2.05014 96.8672 2.96656 96.8672 4.09902C96.8672 5.23155 97.7664 6.15063 98.8777 6.15063Z" fill="black"/>
<path d="M74.9603 23.4004C75.1558 23.5793 75.4568 23.5629 75.6326 23.3634C75.8083 23.164 75.792 22.8574 75.5963 22.6783L74.1515 21.3565C73.9567 21.1779 73.6555 21.194 73.4793 21.3935C73.3036 21.5929 73.3198 21.8994 73.5156 22.0786L74.9603 23.4004Z" fill="black"/>
</svg>
