<svg width="334" height="243" viewBox="0 0 334 243" fill="none" xmlns="http://www.w3.org/2000/svg">
<path d="M67.8015 37.6217C75.3441 37.6217 81.4468 30.6418 81.4468 22.0511C81.4468 13.438 75.3441 6.4693 67.8015 6.4693C60.2785 6.4693 54.166 13.4381 54.166 22.0511C54.166 30.6418 60.2785 37.6217 67.8015 37.6217ZM73.3164 22.0511C73.3164 20.9631 74.7368 20.9732 74.7368 22.0511C74.7368 25.9662 72.2389 29.2324 68.9574 29.8588V30.5747C68.9574 31.2398 68.2748 31.6232 67.8211 31.2346L66.1265 29.814C65.7447 29.4927 65.7262 28.8496 66.1265 28.4941L67.8211 27.0735C68.2769 26.695 68.9574 27.0504 68.9574 27.7334V28.2033C71.4455 27.588 73.3164 25.0602 73.3164 22.0511ZM66.391 14.2882V13.5163C66.391 12.863 67.0364 12.4665 67.5273 12.8563L69.2121 14.2769C69.6114 14.613 69.5957 15.2859 69.2121 15.5857L67.5273 17.0175C67.0295 17.4109 66.391 17.0131 66.391 16.3575V15.9661C64.0302 16.682 62.2964 19.1316 62.2964 22.0511C62.2964 22.4985 61.9732 22.8565 61.5813 22.8565C61.1797 22.8565 60.8663 22.4986 60.8663 22.0511C60.8663 18.2367 63.2367 15.0376 66.391 14.2882Z" fill="black"/>
<path d="M328.346 241.882C328.37 241.815 328.384 241.74 328.384 241.662V213.082C328.384 212.769 328.168 212.523 327.894 212.523C327.782 212.523 321.459 212.521 321.713 212.521C321.737 212.409 321.723 212.242 321.723 205.734C321.823 205.734 328.303 205.733 327.894 205.733C328.168 205.733 328.384 205.487 328.384 205.174V176.594C328.384 176.281 328.168 176.035 327.894 176.035C327.777 176.035 321.458 176.034 321.713 176.034C321.738 175.92 321.723 175.541 321.723 169.247C321.823 169.247 328.303 169.245 327.894 169.245C328.168 169.245 328.384 168.999 328.384 168.686V140.106C328.384 139.804 328.168 139.547 327.894 139.547C324.05 139.547 314.813 139.547 309.718 139.547C309.718 139.546 309.718 139.545 309.718 139.544V123.305L312 119.414H309.718V116.261L312 112.37H309.718V87.853C309.718 87.5439 309.499 87.2938 309.228 87.2938H295.546L292.141 84.6892V87.2938H289.377L285.972 84.6892V87.2938H253.313L256.427 55.3217C256.45 54.9483 256.21 54.6594 255.899 54.6594C67.5743 54.7029 67.2587 54.7029 66.9592 54.703C66.7095 54.703 66.5001 54.9171 66.4723 55.2006L62.6472 94.4447C60.6915 92.6185 58.5919 91.2332 56.3568 90.5419C53.1019 89.5349 49.8319 88.8192 46.8549 88.3091C46.5692 87.2383 46.0565 85.6296 45.4859 85.3347C45.0623 85.1158 44.3387 84.8894 43.4511 84.6734L43.3585 83.2678C44.5007 82.9811 47.1007 82.2213 47.7268 81.112C49.6897 77.6342 48.0275 67.0186 47.2524 62.7593C47.9522 62.4541 48.5026 62.0759 48.6727 61.6055C50.1663 57.473 43.6622 50.6228 34.7357 53.4507C25.809 56.2786 30.1127 60.3573 30.1127 60.3573C30.1127 60.3573 27.4047 60.7399 27.4047 63.6821C27.4047 66.4761 30.1198 77.6274 33.4688 80.8857C33.5219 81.0289 33.5688 81.1526 33.6007 81.2343L33.3654 83.5855C32.9405 83.6122 32.553 83.6536 32.2376 83.7198C31.555 83.863 31.3592 86.122 31.3046 87.1781C26.344 87.4587 17.5021 88.3856 14.3151 91.4445C6.15305 99.2789 2.85896 122.954 3.63891 135.273C4.42429 147.681 12.983 149.587 15.3219 149.875C13.5103 159.938 11.1036 178.341 13.1485 188.401C13.1997 188.654 13.3977 188.833 13.6254 188.833H13.8228L13.4382 241.882H0V243C18.5285 243 319.942 243 333.049 243V241.882L328.346 241.882ZM236.331 236.57C236.135 236.358 235.825 236.364 235.638 236.589C234.377 238.103 233.453 239.929 232.918 241.882H228.375C229.918 238.918 231.777 237.301 231.797 237.283C232.197 236.944 231.938 236.239 231.493 236.275C229.549 236.332 227.782 237.098 226.251 238.499C228.548 234.273 231.19 231.989 231.224 231.96C231.598 231.643 231.415 230.956 230.921 230.951C225.542 231.1 221.974 234.757 219.67 238.735C222.791 229.126 228.892 223.847 228.962 223.788C229.358 223.452 229.111 222.755 228.659 222.78C217.579 223.086 212.325 234.702 210.132 241.882H201.841C201.795 239.933 202.054 237.938 202.608 236.094C202.696 235.803 202.561 235.485 202.304 235.384C202.048 235.284 201.771 235.439 201.683 235.732C201.084 237.719 200.815 239.787 200.861 241.882H193.784C195.538 236.642 197.96 231.751 201.005 227.34C201.173 227.098 201.136 226.746 200.924 226.555C200.713 226.365 200.405 226.405 200.236 226.648C197.052 231.259 194.532 236.384 192.733 241.882H175.876C175.892 241.582 176.301 243.414 166.521 206.271C178.402 206.278 223.047 206.306 241.249 206.318C241.513 206.318 241.745 206.089 241.776 205.776L250.677 114.371H260.593V116.864L263.852 114.371H266.761V116.864L270.02 114.371H282.724V139.544C282.724 139.545 282.724 139.546 282.724 139.547H254.309C254.038 139.547 253.819 139.797 253.819 140.106V168.688C253.819 168.997 254.038 169.247 254.309 169.247H260.484C260.5 175.926 260.453 175.726 260.509 176.034H254.309C254.038 176.034 253.819 176.284 253.819 176.593V205.175C253.819 205.484 254.038 205.734 254.309 205.734H260.484C260.5 212.4 260.453 212.212 260.509 212.521H254.309C254.038 212.521 253.819 212.771 253.819 213.08C253.834 243.586 253.784 241.682 253.859 241.881H233.952C234.455 240.219 235.263 238.663 236.348 237.36C236.534 237.136 236.527 236.782 236.331 236.57ZM105.833 229.457C105.669 229.212 105.362 229.163 105.147 229.352C101.279 232.725 99.1631 238.626 99.3719 241.882H94.8956C95.9793 239.597 97.4214 238.346 97.4363 238.334C97.8371 237.994 97.5748 237.295 97.1322 237.325C96.0148 237.358 94.9784 237.713 94.0476 238.374C95.5102 235.948 97.0183 234.649 97.0398 234.631C97.4164 234.311 97.223 233.62 96.7366 233.622C93.4541 233.711 91.1274 235.649 89.5048 237.982C91.7464 232.164 95.4201 228.982 95.4648 228.944C95.8542 228.613 95.6259 227.908 95.1611 227.935C91.0052 228.05 87.5519 230.4 84.8868 234.924C82.2523 230.46 78.7153 228.048 74.6177 227.935C74.1274 227.935 73.9365 228.625 74.3145 228.945C74.3589 228.982 78.0338 232.155 80.2764 237.985C78.6537 235.651 76.3262 233.711 73.0422 233.622C72.5115 233.688 72.3844 234.331 72.7395 234.632C72.761 234.649 74.2696 235.942 75.7346 238.376C74.8028 237.714 73.7654 237.358 72.6467 237.325C72.1676 237.309 71.9605 238.01 72.3425 238.334C72.3575 238.346 73.7887 239.584 74.883 241.882H61.6212L61.6858 206.27H128.775L136.257 233.973H124.454C124.159 233.973 123.927 234.238 123.927 234.575V241.838C123.927 241.854 123.933 241.866 123.934 241.881H100.339C100.339 241.879 100.341 241.877 100.341 241.874C100.564 237.344 102.583 232.995 105.741 230.241C105.956 230.054 105.997 229.703 105.833 229.457ZM76.981 241.226H75.691C75.1844 240.186 74.6196 239.354 74.1327 238.738C75.218 239.146 76.1712 239.979 76.981 241.226ZM74.5081 234.935C77.685 235.701 79.7168 238.558 80.9546 241.226H78.2126C77.1235 238.259 75.5709 236.147 74.5081 234.935ZM87.4792 241.226H82.2996C80.9288 235.127 77.7979 231.064 76.0769 229.205C79.4432 229.808 82.2614 232.171 84.4702 236.249C84.6629 236.605 85.1124 236.601 85.3029 236.25C87.5174 232.172 90.338 229.808 93.7019 229.205C91.981 231.064 88.85 235.126 87.4792 241.226ZM91.5663 241.226H88.8242C90.0621 238.558 92.0938 235.701 95.2707 234.935C94.2079 236.147 92.6554 238.259 91.5663 241.226ZM95.6433 238.739C95.1559 239.355 94.5915 240.187 94.0874 241.226H92.7979C93.6072 239.98 94.5589 239.149 95.6433 238.739ZM97.8798 100.995C97.6727 100.808 97.3748 100.842 97.2045 101.071C95.3351 103.569 103.968 92.0337 78.9636 125.444C78.1032 122.608 75.3583 114.123 71.1062 106.171L75.2897 65.8325H237.703L225.908 179.649H63.4848L66.5372 150.232C69.1958 152.632 74.3323 156.859 77.7094 156.438C96.9232 154.075 112.541 116.885 113.197 115.303C113.293 115.071 113.239 114.785 113.056 114.622L110.969 112.748C115.074 111.235 118.752 107.214 120.395 103.755C121.612 101.192 121.936 97.5539 119.813 97.8545C121.615 94.9479 119.441 93.3964 118.286 93.5168C119.118 91.929 119.519 90.4456 118.783 89.3303C118.068 88.2429 117.216 88.1691 116.355 88.5002C116.701 87.9609 117.116 87.3836 117.548 86.7997C118.654 87.6724 119.973 88.1708 121.335 88.1708H136.857C132.077 93.7393 129.159 102.165 130.747 109.797C122.775 111.945 115.847 120.242 114.164 129.749C112.177 140.962 118.039 150.442 127.603 150.442H178.688C188.013 150.442 197.228 141.259 199.229 129.972C201.14 119.22 195.948 110.77 188.045 109.449C193.796 91.2096 177.646 79.703 164.534 92.151C164.107 90.6926 163.864 89.4313 162.66 87.3859C162.562 87.2983 158.829 79.6261 149.482 80.8142C149.66 76.3358 146.526 72.7455 142.747 72.7455H121.335C119.536 72.7455 117.84 73.5505 116.56 75.0122C114.986 76.8101 114.236 79.3857 114.733 82.0386C112.264 84.7884 109.765 88.6484 108.428 90.8258C108.359 89.5663 108.097 87.978 107.282 87.0287C106.742 86.3978 106.044 86.1177 105.202 86.2029C101.32 86.5717 100.014 98.3179 99.6658 102.598L97.8832 100.997C97.8829 100.997 97.8826 100.997 97.8823 100.997L97.8798 100.995ZM107.752 93.1913C107.965 93.2782 108.201 93.1881 108.326 92.9745C110.3 89.5813 118.247 77.1745 120.127 80.5412C120.545 81.2913 117.647 84.9497 117.085 85.6906C117.084 85.693 117.083 85.6963 117.081 85.6987C116.054 87.0721 115.072 88.4481 114.661 89.5693L112.787 92.1694C112.615 92.4081 112.645 92.7604 112.854 92.957C113.063 93.153 113.371 93.119 113.544 92.8805L115.389 90.3204C117.011 89.1548 117.529 89.286 118.001 90.0027C118.681 91.0333 117.401 93.2165 115.917 95.4213C115.755 95.6627 115.791 96.0074 115.999 96.198C116.207 96.3886 116.509 96.3547 116.681 96.1221C118.457 93.7107 121.44 94.2874 117.688 98.9993C117.3 99.4854 117.845 100.206 118.323 99.8404C121.152 97.679 120.925 100.292 119.533 103.222C117.9 106.663 114.135 110.695 110.025 111.9L100.587 103.425C101.027 97.0725 102.625 87.57 105.284 87.317C105.821 87.2608 106.251 87.4252 106.582 87.8108C107.539 88.9239 107.52 91.6499 107.432 92.6063C107.408 92.8625 107.541 93.104 107.752 93.1913ZM115.584 81.119C115.41 79.1933 115.993 77.2421 117.253 75.8031C118.348 74.5529 119.798 73.8642 121.335 73.8642H142.747C146.438 73.8642 149.243 77.8213 148.35 82.0126C147.79 84.7547 145.576 87.0523 142.747 87.0523C134.903 87.0523 126.291 87.0523 121.335 87.0523C120.186 87.0523 119.103 86.6781 118.172 85.965C118.561 85.4482 118.982 84.8851 119.353 84.3698C121.963 86.1962 125.38 84.0162 125.38 80.4636C125.38 77.9356 123.588 75.8998 121.384 75.8998C119.461 75.8998 117.859 77.4554 117.486 79.5283C117.368 79.6052 117.256 79.6667 117.133 79.7574C116.558 80.1762 115.692 81.0108 115.584 81.119ZM161.848 88.0108C163.437 90.7334 164.135 93.9517 164.112 97.238C164.11 97.6141 164.358 97.8023 164.605 97.8007C164.848 97.7991 165.089 97.615 165.092 97.2468C165.1 95.9062 164.985 94.6175 164.775 93.3994C177.432 80.7927 193.01 92.2335 186.912 109.709C186.792 110.054 186.993 110.434 187.317 110.472C194.997 111.373 200.114 119.374 198.268 129.749C196.355 140.543 187.572 149.323 178.688 149.323H127.603C118.625 149.323 113.267 140.448 115.125 129.971C116.737 120.859 123.379 112.926 131.01 110.891C131.325 112.092 131.747 113.239 132.282 114.3C132.418 114.568 132.717 114.66 132.952 114.505C133.186 114.351 133.266 114.01 133.132 113.742C129.728 107.008 130.936 95.9793 138.253 88.1707C143.646 88.1569 147.738 88.8068 149.371 81.9439C158.13 80.6498 161.75 87.9241 161.848 88.0108ZM63.1275 173.584C62.9088 164.166 61.496 152.742 59.8955 143.511C61.1316 144.894 63.2277 147.157 65.6364 149.409L63.1275 173.584ZM161.001 206.275L168.313 233.973H137.282L129.802 206.275H161.001ZM272.238 102.073H274.999V104.68L278.406 102.073H295.789V123.212H293.507L295.789 127.102V130.256H293.507L295.789 134.146V139.544C295.789 139.545 295.789 139.546 295.789 139.547H283.703C283.703 139.546 283.703 139.545 283.703 139.544V113.812C283.703 113.503 283.484 113.253 283.213 113.253H270.317L266.761 110.533V113.253H264.148L260.593 110.533V113.253H250.786L251.874 102.073H268.83V104.68L272.238 102.073ZM323.592 140.665V168.129C246.115 167.932 261.581 168.128 254.799 168.129V140.665H323.592ZM323.592 177.153V204.616C246.115 204.419 261.581 204.616 254.799 204.616V177.153H323.592ZM323.592 213.64V241.103H254.799V213.64H323.592ZM285.972 88.4123V91.0202L289.381 88.4123H292.141V91.0202L295.55 88.4123H308.738V112.37H306.456L308.738 116.261V119.414H306.456L308.738 123.305V139.544C308.738 139.545 308.739 139.546 308.739 139.547H296.768C296.768 139.546 296.768 139.545 296.768 139.544V134.147L299.051 130.256H296.768V127.103L299.051 123.212H296.768V101.514C296.768 101.205 296.549 100.955 296.279 100.955H278.406L274.999 98.3488V100.955H272.237L268.83 98.3488V100.955H251.983L253.205 88.4123H285.972ZM67.3973 55.8216H247.42L232.881 205.152C89.7959 205.117 204.682 205.097 61.6877 205.152L61.7175 188.768C61.8598 188.706 61.9825 188.596 62.0246 188.42C62.559 186.193 62.8753 183.585 63.0331 180.767H226.344C226.592 180.767 226.801 180.555 226.83 180.273L238.74 65.3388C238.776 65.0095 238.549 64.7139 238.254 64.7139H74.8544C74.6062 64.7139 74.3971 64.9258 74.368 65.2077L70.2763 104.659C68.4095 101.356 66.1381 97.9872 63.5468 95.3271L67.3973 55.8216ZM34.5483 81.6164C36.7803 82.4316 41.5096 81.1251 42.5941 78.9197C43.7502 76.5688 42.5104 69.4314 42.5104 69.4314C42.5104 69.4314 45.9872 67.163 42.5104 63.8414C42.5104 63.8414 44.5667 63.6428 46.3148 63.1034C47.2437 68.2398 48.5083 77.662 46.9031 80.5057C46.5712 81.0944 44.4853 81.881 42.7433 82.2715C42.4999 82.326 42.3306 82.5801 42.3492 82.8625L42.4539 84.4502C39.9994 83.944 36.7381 83.5473 34.3547 83.5524L34.5483 81.6164ZM13.6222 171.46C14.4757 164.565 18.9545 163.728 19.166 163.693C19.4334 163.65 19.6199 163.368 19.5831 163.063C19.5453 162.757 19.2999 162.53 19.0325 162.586C18.9875 162.593 15.9309 163.127 14.0123 166.717C14.0232 166.604 17.8023 138.482 17.8196 138.369C17.8588 138.063 17.6737 137.779 17.4059 137.735C17.1352 137.684 16.8893 137.901 16.8505 138.207L15.4958 148.78C13.5076 148.591 5.3693 147.089 4.6156 135.193C4.35141 131.019 4.51576 126.356 4.98296 121.872C6.46565 109.287 12.7685 107.949 13.0571 107.894C13.6933 107.776 13.5447 106.679 12.905 106.79C12.6735 106.831 8.94393 107.587 6.30114 113.114C8.08218 104.119 11.0895 96.0018 14.9454 92.301C21.5466 85.965 46.6382 88.694 56.1003 91.621C58.0463 92.2229 59.8941 93.4083 61.6364 94.9743C58.6442 93.5814 55.8445 93.4404 55.653 93.4332C55.412 93.4207 55.157 93.6643 55.1475 93.9728C55.1384 94.2814 55.3498 94.5403 55.62 94.5507C55.6862 94.5537 61.6977 94.857 65.3153 99.0079C70.9099 106.284 75.8151 118.196 78.2721 126.613L77.0742 134.543C77.0227 134.883 77.2522 135.197 77.5572 135.197C77.7911 135.197 77.9983 135.005 78.0394 134.733L79.2366 126.808C81.1199 124.292 72.416 135.922 97.6469 102.209C100.285 105.002 107.548 111.232 112.14 115.223C110.371 119.316 95.2284 153.161 77.6032 155.323C72.4269 155.961 60.2155 143.07 57.1488 138.329C56.0632 136.225 54.9583 134.95 53.2395 130.318C53.1333 130.033 52.8468 129.902 52.5972 130.021C52.3485 130.142 52.2322 130.47 52.3375 130.755C54.0831 135.458 56.1442 139.154 58.631 142.056C58.8012 142.986 59.7897 148.498 60.6785 155.644C58.6717 151.274 55.6921 150.136 55.4981 150.066C55.2384 149.972 54.9649 150.138 54.8845 150.433C54.8036 150.728 54.9471 151.042 55.2054 151.135C62.4347 153.729 62.5286 172.363 62.0308 180.931H24.2671C23.9964 180.931 23.7773 181.181 23.7773 181.49C23.7773 181.799 23.9963 182.05 24.2671 182.05H61.9563C61.7994 184.108 61.5486 186.025 61.172 187.713C53.7413 187.714 14.1201 187.714 14.0185 187.714C13.196 183.286 13.229 177.341 13.6222 171.46ZM36.2402 233.027C29.0796 212.859 31.1954 201.561 31.2934 201.091C31.3522 200.789 31.6069 200.588 31.8811 200.666C32.1358 200.733 32.3023 201.035 32.2435 201.337C32.224 201.449 30.1179 212.803 37.1413 232.602C37.2809 232.978 37.0191 233.362 36.7397 233.362L37.3661 241.882H35.8509L36.5438 233.351C36.4166 233.306 36.299 233.183 36.2402 233.027ZM211.17 241.882C213.236 235.299 217.888 225.234 227.198 224.015C224.891 226.384 219.855 232.438 217.781 241.882H211.17ZM229.461 232.213C227.955 233.821 225.345 237.086 223.633 241.882H219.195C221.06 237.706 224.262 233.089 229.461 232.213ZM224.837 241.882C226.258 239.536 227.998 238.101 230.027 237.595C229.229 238.515 228.157 239.949 227.234 241.882H224.837Z" fill="black"/>
<path d="M145.345 184.165C142.151 184.165 139.181 187.131 138.722 190.777C138.252 194.622 140.625 197.603 143.841 197.603C146.938 197.603 149.979 194.756 150.464 190.99C150.947 187.244 148.622 184.165 145.345 184.165Z" fill="black"/>
<path d="M179.369 92.9143C182.783 94.5649 184.879 98.5143 184.841 103.221C184.838 103.53 185.055 103.783 185.326 103.786C185.328 103.786 185.328 103.786 185.33 103.786C185.599 103.786 185.817 103.539 185.82 103.232C185.862 98.0632 183.537 93.715 179.751 91.8842C179.5 91.7657 179.215 91.8962 179.11 92.1813C179.003 92.4659 179.12 92.7936 179.369 92.9143Z" fill="black"/>
<path d="M123.093 118.506C118.712 123.15 116.19 130.233 117.459 136.62C117.518 136.916 117.776 137.109 118.046 137.041C118.309 136.973 118.475 136.673 118.415 136.372C117.214 130.336 119.673 123.657 123.759 119.325C123.957 119.115 123.969 118.761 123.785 118.535C123.601 118.307 123.291 118.295 123.093 118.506Z" fill="black"/>
<path d="M150.454 122.021H153.293L151.195 133.856C151.088 134.457 151.4 134.938 151.896 134.938H159.71C160.199 134.938 160.681 134.457 160.787 133.856L162.885 122.021H165.724C166.461 122.021 167.064 120.996 166.728 120.273L161.169 108.541C160.882 107.965 160.201 108.031 159.765 108.541L150.062 120.273C149.479 121.005 149.721 122.021 150.454 122.021Z" fill="black"/>
<path d="M258.58 147.589H286.084C286.354 147.589 286.574 147.339 286.574 147.03C286.574 146.721 286.355 146.471 286.084 146.471H258.58C258.309 146.471 258.09 146.721 258.09 147.03C258.09 147.339 258.309 147.589 258.58 147.589Z" fill="black"/>
<path d="M258.58 152.5H286.084C286.354 152.5 286.574 152.25 286.574 151.941C286.574 151.632 286.355 151.382 286.084 151.382H258.58C258.309 151.382 258.09 151.632 258.09 151.941C258.09 152.25 258.309 152.5 258.58 152.5Z" fill="black"/>
<path d="M258.58 157.411H286.084C286.354 157.411 286.574 157.161 286.574 156.852C286.574 156.543 286.355 156.293 286.084 156.293H258.58C258.309 156.293 258.09 156.543 258.09 156.852C258.09 157.161 258.309 157.411 258.58 157.411Z" fill="black"/>
<path d="M258.58 162.323H286.084C286.354 162.323 286.574 162.072 286.574 161.763C286.574 161.454 286.355 161.204 286.084 161.204H258.58C258.309 161.204 258.09 161.454 258.09 161.763C258.09 162.072 258.309 162.323 258.58 162.323Z" fill="black"/>
<path d="M313.855 164.05C314.126 164.05 314.345 163.799 314.345 163.49V145.031C314.345 144.722 314.126 144.472 313.855 144.472C313.584 144.472 313.365 144.722 313.365 145.031V163.49C313.365 163.799 313.584 164.05 313.855 164.05Z" fill="black"/>
<path d="M309.052 164.05C309.323 164.05 309.542 163.799 309.542 163.49V145.031C309.542 144.722 309.323 144.472 309.052 144.472C308.782 144.472 308.562 144.722 308.562 145.031V163.49C308.563 163.799 308.782 164.05 309.052 164.05Z" fill="black"/>
<path d="M304.246 164.05C304.516 164.05 304.735 163.799 304.735 163.49V145.031C304.735 144.722 304.516 144.472 304.246 144.472C303.975 144.472 303.756 144.722 303.756 145.031V163.49C303.756 163.799 303.975 164.05 304.246 164.05Z" fill="black"/>
<path d="M299.435 164.05C299.706 164.05 299.925 163.799 299.925 163.49V145.031C299.925 144.722 299.706 144.472 299.435 144.472C299.164 144.472 298.945 144.722 298.945 145.031V163.49C298.945 163.799 299.164 164.05 299.435 164.05Z" fill="black"/>
<path d="M318.662 164.05C318.932 164.05 319.152 163.799 319.152 163.49V145.031C319.152 144.722 318.932 144.472 318.662 144.472C318.391 144.472 318.172 144.722 318.172 145.031V163.49C318.172 163.799 318.391 164.05 318.662 164.05Z" fill="black"/>
<path d="M258.58 184.076H286.084C286.354 184.076 286.574 183.826 286.574 183.517C286.574 183.207 286.355 182.957 286.084 182.957H258.58C258.309 182.957 258.09 183.207 258.09 183.517C258.09 183.826 258.309 184.076 258.58 184.076Z" fill="black"/>
<path d="M258.58 188.987H286.084C286.354 188.987 286.574 188.737 286.574 188.428C286.574 188.119 286.355 187.869 286.084 187.869H258.58C258.309 187.869 258.09 188.119 258.09 188.428C258.09 188.737 258.309 188.987 258.58 188.987Z" fill="black"/>
<path d="M258.58 193.899H286.084C286.354 193.899 286.574 193.648 286.574 193.339C286.574 193.03 286.355 192.78 286.084 192.78H258.58C258.309 192.78 258.09 193.03 258.09 193.339C258.09 193.648 258.309 193.899 258.58 193.899Z" fill="black"/>
<path d="M258.58 198.81H286.084C286.354 198.81 286.574 198.559 286.574 198.25C286.574 197.941 286.355 197.691 286.084 197.691H258.58C258.309 197.691 258.09 197.941 258.09 198.25C258.09 198.559 258.309 198.81 258.58 198.81Z" fill="black"/>
<path d="M313.855 200.537C314.126 200.537 314.345 200.287 314.345 199.977V181.518C314.345 181.208 314.126 180.958 313.855 180.958C313.584 180.958 313.365 181.208 313.365 181.518V199.977C313.365 200.287 313.584 200.537 313.855 200.537Z" fill="black"/>
<path d="M309.052 200.537C309.323 200.537 309.542 200.287 309.542 199.977V181.518C309.542 181.208 309.323 180.958 309.052 180.958C308.782 180.958 308.562 181.208 308.562 181.518V199.977C308.563 200.287 308.782 200.537 309.052 200.537Z" fill="black"/>
<path d="M304.246 200.537C304.516 200.537 304.735 200.287 304.735 199.977V181.518C304.735 181.208 304.516 180.958 304.246 180.958C303.975 180.958 303.756 181.208 303.756 181.518V199.977C303.756 200.287 303.975 200.537 304.246 200.537Z" fill="black"/>
<path d="M299.435 200.537C299.706 200.537 299.925 200.287 299.925 199.977V181.518C299.925 181.208 299.706 180.958 299.435 180.958C299.164 180.958 298.945 181.208 298.945 181.518V199.977C298.945 200.287 299.164 200.537 299.435 200.537Z" fill="black"/>
<path d="M318.662 200.537C318.932 200.537 319.152 200.287 319.152 199.977V181.518C319.152 181.208 318.932 180.958 318.662 180.958C318.391 180.958 318.172 181.208 318.172 181.518V199.977C318.172 200.287 318.391 200.537 318.662 200.537Z" fill="black"/>
<path d="M258.58 220.563H286.084C286.354 220.563 286.574 220.313 286.574 220.004C286.574 219.695 286.355 219.445 286.084 219.445H258.58C258.309 219.445 258.09 219.695 258.09 220.004C258.09 220.313 258.309 220.563 258.58 220.563Z" fill="black"/>
<path d="M258.58 225.474H286.084C286.354 225.474 286.574 225.224 286.574 224.915C286.574 224.606 286.355 224.356 286.084 224.356H258.58C258.309 224.356 258.09 224.606 258.09 224.915C258.09 225.224 258.309 225.474 258.58 225.474Z" fill="black"/>
<path d="M258.58 230.386H286.084C286.354 230.386 286.574 230.136 286.574 229.826C286.574 229.517 286.355 229.267 286.084 229.267H258.58C258.309 229.267 258.09 229.517 258.09 229.826C258.09 230.135 258.309 230.386 258.58 230.386Z" fill="black"/>
<path d="M258.58 235.297H286.084C286.354 235.297 286.574 235.047 286.574 234.737C286.574 234.428 286.355 234.178 286.084 234.178H258.58C258.309 234.178 258.09 234.428 258.09 234.737C258.09 235.047 258.309 235.297 258.58 235.297Z" fill="black"/>
<path d="M313.855 237.024C314.126 237.024 314.345 236.774 314.345 236.465V218.005C314.345 217.696 314.126 217.446 313.855 217.446C313.584 217.446 313.365 217.696 313.365 218.005V236.465C313.365 236.774 313.584 237.024 313.855 237.024Z" fill="black"/>
<path d="M309.052 237.024C309.323 237.024 309.542 236.774 309.542 236.465V218.005C309.542 217.696 309.323 217.446 309.052 217.446C308.782 217.446 308.562 217.696 308.562 218.005V236.465C308.563 236.774 308.782 237.024 309.052 237.024Z" fill="black"/>
<path d="M304.246 237.024C304.516 237.024 304.735 236.774 304.735 236.465V218.005C304.735 217.696 304.516 217.446 304.246 217.446C303.975 217.446 303.756 217.696 303.756 218.005V236.465C303.756 236.774 303.975 237.024 304.246 237.024Z" fill="black"/>
<path d="M299.435 237.024C299.706 237.024 299.925 236.774 299.925 236.465V218.005C299.925 217.696 299.706 217.446 299.435 217.446C299.164 217.446 298.945 217.696 298.945 218.005V236.465C298.945 236.774 299.164 237.024 299.435 237.024Z" fill="black"/>
<path d="M318.662 237.024C318.932 237.024 319.152 236.774 319.152 236.465V218.005C319.152 217.696 318.932 217.446 318.662 217.446C318.391 217.446 318.172 217.696 318.172 218.005V236.465C318.172 236.774 318.391 237.024 318.662 237.024Z" fill="black"/>
<path d="M292.761 162.947C294.296 162.947 295.543 161.524 295.543 159.763C295.543 158.009 294.296 156.585 292.761 156.585C291.225 156.585 289.979 158.009 289.979 159.763C289.979 161.524 291.225 162.947 292.761 162.947Z" fill="black"/>
<path d="M292.761 152.209C294.296 152.209 295.543 150.786 295.543 149.025C295.543 147.271 294.296 145.84 292.761 145.84C291.225 145.84 289.979 147.271 289.979 149.025C289.979 150.786 291.225 152.209 292.761 152.209Z" fill="black"/>
<path d="M292.761 199.435C294.296 199.435 295.543 198.011 295.543 196.25C295.543 194.496 294.296 193.073 292.761 193.073C291.225 193.073 289.979 194.496 289.979 196.25C289.979 198.011 291.225 199.435 292.761 199.435Z" fill="black"/>
<path d="M292.761 188.696C294.296 188.696 295.543 187.273 295.543 185.512C295.543 183.758 294.296 182.327 292.761 182.327C291.225 182.327 289.979 183.758 289.979 185.512C289.979 187.273 291.225 188.696 292.761 188.696Z" fill="black"/>
<path d="M292.761 235.922C294.296 235.922 295.543 234.498 295.543 232.737C295.543 230.983 294.296 229.56 292.761 229.56C291.225 229.56 289.979 230.983 289.979 232.737C289.979 234.498 291.225 235.922 292.761 235.922Z" fill="black"/>
<path d="M292.761 225.183C294.298 225.183 295.543 223.757 295.543 221.998C295.543 220.239 294.298 218.814 292.761 218.814C291.224 218.814 289.979 220.239 289.979 221.998C289.979 223.757 291.224 225.183 292.761 225.183Z" fill="black"/>
<path d="M103.906 170.99H194.114L197.268 157.579H107.06L103.906 170.99ZM112.752 163.35H158.282C158.546 163.35 158.771 163.608 158.771 163.91C158.771 164.223 158.546 164.469 158.282 164.469H112.752C112.477 164.469 112.262 164.223 112.262 163.91C112.262 163.608 112.477 163.35 112.752 163.35Z" fill="black"/>
<path d="M284.5 56.593C293.679 56.593 301.123 48.1029 301.123 37.6218C301.123 27.1408 293.679 18.6507 284.5 18.6507C275.331 18.6507 267.887 27.1408 267.887 37.6218C267.887 48.1029 275.331 56.593 284.5 56.593ZM285.94 43.8971C285.178 44.7898 283.863 44.8259 283.07 43.8971C282.286 43.0022 282.286 41.5369 283.07 40.6309C283.863 39.736 285.147 39.736 285.94 40.6309C286.724 41.5369 286.724 43.0022 285.94 43.8971ZM288.996 39.0536C288.806 39.2714 288.501 39.2824 288.301 39.0536C286.234 36.6702 282.81 36.6319 280.709 39.0536C280.513 39.2661 280.2 39.2661 280.014 39.0536C279.818 38.8299 279.818 38.4832 280.014 38.2594C282.486 35.4361 286.483 35.4126 288.996 38.2594C289.182 38.4831 289.182 38.8299 288.996 39.0536ZM291.073 36.6822C290.86 36.9012 290.569 36.8794 290.377 36.6822C287.164 32.9894 281.899 32.9412 278.623 36.6822C278.437 36.8947 278.123 36.8947 277.937 36.6822C277.741 36.4585 277.741 36.1006 277.937 35.888C281.576 31.7322 287.445 31.745 291.073 35.888C291.269 36.1117 291.269 36.4585 291.073 36.6822ZM275.851 33.5167C280.589 28.1053 288.348 28.0102 293.15 33.5167C293.346 33.7293 293.346 34.0871 293.15 34.2996C292.99 34.5024 292.677 34.5434 292.464 34.2996C288.096 29.3116 280.962 29.257 276.546 34.2996C276.36 34.5234 276.047 34.5234 275.851 34.2996C275.664 34.0871 275.664 33.7292 275.851 33.5167Z" fill="black"/>
<path d="M94.7387 223.381C91.1342 223.698 88.3429 226.496 85.7505 229.184C85.5501 229.391 85.5352 229.745 85.717 229.973C85.8987 230.202 86.2077 230.22 86.4086 230.012C88.8118 227.521 91.4784 224.791 94.8142 224.495C95.084 224.472 95.2858 224.203 95.2647 223.896C95.2438 223.588 95.0157 223.33 94.7387 223.381Z" fill="black"/>
<path d="M107.381 215.924C107.145 215.772 106.845 215.869 106.715 216.139C105.026 219.581 102.632 222.586 99.7914 224.828C99.5691 225.004 99.5131 225.351 99.667 225.605C99.8219 225.863 100.131 225.921 100.348 225.747C103.311 223.41 105.808 220.276 107.569 216.685C107.702 216.416 107.617 216.076 107.381 215.924Z" fill="black"/>
<path d="M218.15 218.777C213.776 221.592 210.182 225.994 208.03 231.175C207.914 231.454 208.018 231.787 208.263 231.92C208.506 232.051 208.799 231.934 208.915 231.654C210.982 226.682 214.432 222.454 218.631 219.752C219.2 219.386 218.708 218.411 218.15 218.777Z" fill="black"/>
<path d="M245.262 219.544C245.397 219.81 245.694 219.903 245.931 219.749C246.166 219.594 246.246 219.252 246.111 218.985L243.436 213.689C243.301 213.421 243.001 213.329 242.767 213.483C242.532 213.639 242.452 213.98 242.587 214.248L245.262 219.544Z" fill="black"/>
<path d="M243.211 9.18238C244.92 10.1737 246.547 11.3949 248.047 12.8118C248.252 13.0063 248.56 12.9782 248.737 12.7375C248.909 12.4994 248.879 12.1465 248.671 11.9499C247.115 10.4806 245.428 9.21405 243.655 8.18498C243.415 8.04683 243.12 8.15438 242.997 8.43024C242.874 8.70558 242.97 9.04255 243.211 9.18238Z" fill="black"/>
<path d="M224.077 2.49881C224.278 2.70506 224.588 2.68623 224.768 2.45618C224.949 2.22622 224.932 1.87288 224.731 1.66636L223.245 0.14306C223.044 -0.062842 222.734 -0.0442688 222.553 0.18569C222.372 0.415649 222.389 0.768989 222.59 0.97551L224.077 2.49881Z" fill="black"/>
<path d="M216.845 40.295C217.988 40.295 218.913 39.2354 218.913 37.9299C218.913 36.6242 217.988 35.5677 216.845 35.5677C215.701 35.5677 214.773 36.6242 214.773 37.9299C214.773 39.2354 215.701 40.295 216.845 40.295Z" fill="black"/>
<path d="M184.526 30.8396C186.025 29.4233 187.651 28.2026 189.362 27.2102C189.603 27.0704 189.699 26.7334 189.576 26.4582C189.454 26.1834 189.158 26.0758 188.918 26.2129C187.143 27.2425 185.456 28.509 183.902 29.9778C183.694 30.1749 183.664 30.5272 183.837 30.7654C184.01 31.0038 184.319 31.0359 184.526 30.8396Z" fill="black"/>
<path d="M121.112 40.9921C122.821 41.9828 124.447 43.2041 125.947 44.6214C126.155 44.8182 126.464 44.7851 126.636 44.5471C126.809 44.309 126.78 43.9567 126.571 43.7595C125.016 42.2897 123.329 41.0232 121.555 39.9947C121.312 39.8548 121.019 39.9652 120.897 40.2399C120.775 40.5158 120.871 40.8522 121.112 40.9921Z" fill="black"/>
<path d="M100.457 31.9947C100.277 32.2241 100.293 32.578 100.495 32.7845L101.981 34.3083C102.182 34.5146 102.492 34.4957 102.672 34.2657C102.853 34.0357 102.837 33.6824 102.635 33.4759L101.149 31.952C100.95 31.7478 100.64 31.7658 100.457 31.9947Z" fill="black"/>
<path d="M51.6198 7.10373L53.1058 5.58043C53.3072 5.374 53.324 5.02057 53.1432 4.79061C52.9619 4.55959 52.6524 4.54101 52.4515 4.74798L50.9654 6.27128C50.764 6.47771 50.7473 6.83114 50.9281 7.0611C51.1087 7.2907 51.4183 7.31025 51.6198 7.10373Z" fill="black"/>
<path d="M37.3646 40.9636C38.8645 39.5462 40.4917 38.3255 42.2002 37.3342C42.4413 37.1944 42.5375 36.8574 42.415 36.5821C42.2921 36.3068 41.9965 36.1964 41.7564 36.3368C39.9838 37.3653 38.2959 38.6319 36.74 40.1017C36.532 40.2983 36.5023 40.6511 36.6749 40.8893C36.8461 41.1265 37.1557 41.1609 37.3646 40.9636Z" fill="black"/>
<path d="M98.7501 8.83357C99.8934 8.83357 100.821 7.774 100.821 6.46845C100.821 5.16281 99.8934 4.10632 98.7501 4.10632C97.6068 4.10632 96.6816 5.16281 96.6816 6.46845C96.6816 7.774 97.6067 8.83357 98.7501 8.83357Z" fill="black"/>
<path d="M119.856 218.776C121 218.776 121.925 217.716 121.925 216.411C121.925 215.105 121 214.049 119.856 214.049C118.713 214.049 117.785 215.105 117.785 216.411C117.785 217.716 118.713 218.776 119.856 218.776Z" fill="black"/>
<path d="M320.199 120.694C321.343 120.694 322.271 119.634 322.271 118.329C322.271 117.023 321.343 115.966 320.199 115.966C319.056 115.966 318.131 117.023 318.131 118.329C318.131 119.634 319.056 120.694 320.199 120.694Z" fill="black"/>
<path d="M306.493 77.1806L307.979 75.6568C308.18 75.4503 308.197 75.0969 308.017 74.8669C307.835 74.6359 307.526 74.6179 307.325 74.8243L305.838 76.3481C305.637 76.5546 305.62 76.908 305.801 77.138C305.982 77.3676 306.291 77.3871 306.493 77.1806Z" fill="black"/>
<path d="M75.6974 134.525C75.9251 134.525 76.1288 134.343 76.1767 134.079L76.8042 130.599C76.8587 130.296 76.6879 130 76.4235 129.938C76.1561 129.878 75.8993 130.071 75.8448 130.373L75.2172 133.853C75.1551 134.197 75.3844 134.525 75.6974 134.525Z" fill="black"/>
</svg>
