<svg width="34" height="46" viewBox="0 0 34 46" fill="none" xmlns="http://www.w3.org/2000/svg">
<path fill-rule="evenodd" clip-rule="evenodd" d="M0.123047 6.8938V39.1077C0.123047 42.4526 7.6802 45.1642 17.0017 45.1642V6.8938H0.123047Z" fill="#0072C6"/>
<path fill-rule="evenodd" clip-rule="evenodd" d="M16.7715 45.1631H17.0027C26.3243 45.1631 33.8814 42.4526 33.8814 39.1077V6.8938H16.7715V45.1637V45.1631Z" fill="#0072C6"/>
<path opacity="0.15" fill-rule="evenodd" clip-rule="evenodd" d="M16.7754 45.1624H17.0066C26.3282 45.1624 33.8853 42.4519 33.8853 39.1069V6.89307H16.7754V45.163V45.1624Z" fill="white"/>
<path fill-rule="evenodd" clip-rule="evenodd" d="M33.8804 6.89239C33.8804 10.2368 26.3233 12.9479 17.0017 12.9479C7.6802 12.9479 0.123047 10.2368 0.123047 6.89239C0.123047 3.548 7.6802 0.836914 17.0017 0.836914C26.3233 0.836914 33.8804 3.548 33.8804 6.89239Z" fill="white"/>
<path fill-rule="evenodd" clip-rule="evenodd" d="M30.4324 6.54426C30.4324 8.75224 24.4208 10.5397 17.0049 10.5397C9.58892 10.5397 3.57617 8.75224 3.57617 6.54426C3.57617 4.33627 9.58892 2.54883 17.0049 2.54883C24.4208 2.54883 30.4324 4.33738 30.4324 6.54426Z" fill="#7FBA00"/>
<path fill-rule="evenodd" clip-rule="evenodd" d="M27.6187 8.98551C29.3764 8.31009 30.433 7.46457 30.433 6.54536C30.4324 4.33738 24.4208 2.54883 17.0037 2.54883C9.58667 2.54883 3.57617 4.33738 3.57617 6.54536C3.57617 7.46402 4.63222 8.31009 6.39041 8.98551C8.84514 8.04136 12.6817 7.43244 17.0043 7.43244C21.3269 7.43244 25.1623 8.04136 27.6187 8.98551Z" fill="#B8D432"/>
<path fill-rule="evenodd" clip-rule="evenodd" d="M11.6408 29.2534C11.6408 30.2546 11.2746 31.0297 10.5409 31.5788C9.80724 32.1279 8.79564 32.4033 7.5033 32.4033C6.40393 32.4033 5.48517 32.2071 4.74701 31.8143V29.4589C5.59882 30.1753 6.53728 30.5338 7.56237 30.5338C8.05748 30.5338 8.44063 30.4358 8.71069 30.2391C8.98075 30.0424 9.11578 29.7831 9.11578 29.4584C9.11578 29.1398 8.98581 28.8627 8.72588 28.6273C8.46595 28.3918 7.93708 28.0876 7.13985 27.7147C5.51499 26.9601 4.70312 25.9284 4.70312 24.6246C4.70312 23.6783 5.05701 22.9192 5.76592 22.3474C6.47482 21.7756 7.41497 21.4902 8.58804 21.4902C9.62833 21.4902 10.4891 21.626 11.1739 21.8953V24.0955C10.4559 23.6046 9.63845 23.3597 8.7225 23.3597C8.26228 23.3597 7.89826 23.4561 7.63102 23.6495C7.50397 23.7358 7.4008 23.8521 7.33085 23.9876C7.2609 24.1231 7.22639 24.2737 7.23043 24.4257C7.23043 24.7593 7.33789 25.033 7.55394 25.2463C7.76998 25.4596 8.21108 25.7234 8.87948 26.0375C9.87532 26.5041 10.5842 26.9767 11.0084 27.4576C11.4327 27.9385 11.6408 28.5381 11.6408 29.2534ZM23.1015 26.8697C23.1015 28.1109 22.8162 29.1885 22.2468 30.1C21.6775 31.0114 20.8752 31.652 19.8405 32.0204L22.9299 34.8534H19.8107L17.6046 32.4027C16.6589 32.3689 15.8054 32.1207 15.0453 31.6597C14.2852 31.1987 13.6978 30.5671 13.2848 29.7648C12.8718 28.9625 12.6642 28.0682 12.6642 27.0825C12.6642 25.9888 12.8882 25.0136 13.336 24.1575C13.7839 23.3015 14.414 22.6427 15.2264 22.1817C16.0389 21.7207 16.9689 21.4902 18.0198 21.4902C18.9994 21.4902 19.8776 21.7135 20.6529 22.1601C21.4282 22.6067 22.0291 23.2411 22.4578 24.0656C22.8865 24.89 23.1015 25.8253 23.1015 26.8697ZM20.5764 27.0027C20.5764 25.9328 20.3412 25.0884 19.8703 24.4673C19.3994 23.8462 18.7563 23.5359 17.9388 23.5359C17.1067 23.5359 16.4411 23.8473 15.9404 24.4695C15.4397 25.0917 15.1904 25.9217 15.1904 26.9567C15.1904 27.9873 15.4352 28.8096 15.9252 29.4251C16.4152 30.0407 17.0662 30.3482 17.8786 30.3482C18.7062 30.3482 19.3617 30.0501 19.8472 29.4545C20.3328 28.8589 20.5764 28.0422 20.5764 27.0027ZM31.206 32.2188H24.8625V21.6675H27.2615V30.2911H31.2055L31.206 32.2188Z" fill="white"/>
</svg>
