<svg width="52" height="52" viewBox="0 0 52 52" fill="none" xmlns="http://www.w3.org/2000/svg">
<path fill-rule="evenodd" clip-rule="evenodd" d="M16.9492 23.9543V28.56C17.6609 29.8114 18.6707 30.8595 19.885 31.6071V23.9543H16.9492Z" fill="#AECBFA"/>
<path fill-rule="evenodd" clip-rule="evenodd" d="M22.3711 19.7151V32.9016C23.003 32.9839 23.6399 33.019 24.2768 33.0066C24.8485 33.0431 25.4219 33.0431 25.9937 33.0066V19.7151H22.3711Z" fill="#669DF6"/>
<path fill-rule="evenodd" clip-rule="evenodd" d="M28.8125 25.7581V31.5195C30.0334 30.7252 31.0374 29.6288 31.7312 28.3323V25.7581H28.8125Z" fill="#AECBFA"/>
<path fill-rule="evenodd" clip-rule="evenodd" d="M35.8497 33.5677L33.4117 36.0544C33.3432 36.1229 33.2888 36.2046 33.2516 36.2948C33.2145 36.385 33.1953 36.4819 33.1953 36.5797C33.1953 36.6776 33.2145 36.7744 33.2516 36.8647C33.2888 36.9549 33.3432 37.0366 33.4117 37.1051L39.4894 43.3043C39.6243 43.4401 39.8063 43.5163 39.9959 43.5163C40.1855 43.5163 40.3674 43.4401 40.5023 43.3043L42.9574 40.8001C43.0906 40.6625 43.1653 40.4769 43.1653 40.2835C43.1653 40.0901 43.0906 39.9045 42.9574 39.7669L36.8798 33.5677C36.8126 33.4978 36.7325 33.4423 36.6441 33.4044C36.5556 33.3664 36.4607 33.3469 36.3647 33.3469C36.2688 33.3469 36.1738 33.3664 36.0854 33.4044C35.9969 33.4423 35.9168 33.4978 35.8497 33.5677Z" fill="#4285F4"/>
<path fill-rule="evenodd" clip-rule="evenodd" d="M24.2798 8.49048C21.2238 8.49048 18.2363 9.41483 15.6953 11.1466C13.1543 12.8784 11.1738 15.3399 10.0043 18.2198C8.83482 21.0997 8.52883 24.2687 9.12503 27.326C9.72124 30.3832 11.1929 33.1915 13.3538 35.3957C15.5148 37.5999 18.268 39.101 21.2653 39.7091C24.2627 40.3172 27.3695 40.0051 30.1929 38.8122C33.0163 37.6193 35.4296 35.5992 37.1274 33.0074C38.8253 30.4156 39.7315 27.3684 39.7315 24.2512C39.7315 22.1815 39.3318 20.132 38.5553 18.2198C37.7788 16.3077 36.6406 14.5702 35.2058 13.1067C33.771 11.6432 32.0676 10.4822 30.1929 9.69019C28.3182 8.89814 26.309 8.49048 24.2798 8.49048ZM24.2798 35.9667C22.013 35.9632 19.7981 35.2746 17.9147 33.9879C16.0313 32.7012 14.564 30.8741 13.6981 28.7372C12.8322 26.6004 12.6066 24.2498 13.0496 21.9823C13.4927 19.7147 14.5846 17.632 16.1875 15.997C17.7904 14.3621 19.8323 13.2483 22.0554 12.7964C24.2785 12.3445 26.583 12.5747 28.6779 13.4579C30.7728 14.3411 32.5641 15.8377 33.8256 17.7588C35.0871 19.6798 35.7622 21.9391 35.7656 24.2512C35.7678 25.7903 35.4723 27.3148 34.8959 28.7372C34.3195 30.1597 33.4735 31.4521 32.4065 32.5404C31.3395 33.6288 30.0724 34.4916 28.6779 35.0796C27.2834 35.6675 25.7888 35.969 24.2798 35.9667Z" fill="#669DF6"/>
</svg>
