<svg width="37" height="37" viewBox="0 0 37 37" fill="none" xmlns="http://www.w3.org/2000/svg">
<g clip-path="url(#clip0_694_4364)">
<path d="M36.9668 32.1759C36.9705 32.8195 36.825 33.4565 36.54 34.0446C36.255 34.6327 35.8371 35.1585 35.3138 35.5872C34.7906 36.0159 34.174 36.3377 33.505 36.5312C32.836 36.7247 32.1298 36.7855 31.4332 36.7097C28.8974 36.3654 27.0393 34.3408 27.1011 31.9896V4.95757C27.0398 2.60384 28.9026 0.578149 31.4416 0.23761C32.1376 0.162834 32.8429 0.224486 33.5109 0.41849C34.1789 0.612494 34.7945 0.934427 35.3168 1.36299C35.8391 1.79156 36.2562 2.317 36.5407 2.90454C36.8251 3.49208 36.9704 4.12835 36.9668 4.77125V32.1759Z" fill="#F9AB00"/>
<path d="M5.91919 27.6956C8.64358 27.6956 10.8521 29.722 10.8521 32.2216C10.8521 34.7213 8.64358 36.7476 5.91919 36.7476C3.19481 36.7476 0.986328 34.7213 0.986328 32.2217C0.986328 29.7222 3.19481 27.6956 5.91919 27.6956ZM18.8986 13.9777C16.1614 14.1154 14.0375 16.2221 14.1012 18.7367V30.8941C14.1012 34.1935 15.6835 36.1965 18.0017 36.6234C18.7204 36.7571 19.4626 36.7424 20.1743 36.5802C20.886 36.4181 21.5495 36.1126 22.1166 35.6859C22.6837 35.2593 23.1401 34.7221 23.4528 34.1135C23.7656 33.5049 23.9267 32.84 23.9246 32.1672V18.5272C23.9259 17.9242 23.7962 17.327 23.5432 16.7705C23.2902 16.2139 22.919 15.7092 22.4511 15.2857C21.9832 14.8622 21.4282 14.5285 20.8182 14.3039C20.2083 14.0794 19.5557 13.9684 18.8986 13.9777Z" fill="#E37400"/>
</g>
<defs>
<clipPath id="clip0_694_4364">
<rect width="35.9766" height="36.6198" fill="white" transform="translate(0.986328 0.205811)"/>
</clipPath>
</defs>
</svg>
