<svg width="48" height="49" viewBox="0 0 48 49" fill="none" xmlns="http://www.w3.org/2000/svg">
<path d="M20.465 11.9928C21.9272 10.4445 23.959 9.48338 26.2112 9.48338C29.2019 9.48338 31.8105 11.1812 33.1993 13.7018C34.4419 13.1364 35.7878 12.8446 37.1489 12.8454C42.5425 12.8454 46.9146 17.3369 46.9146 22.8717C46.9146 28.4103 42.5425 32.9018 37.1489 32.9018C36.4913 32.9018 35.8483 32.8345 35.2237 32.7073C34.0003 34.9287 31.6672 36.4284 28.9925 36.4284C27.8719 36.4284 26.8138 36.1666 25.8695 35.6954C24.6277 38.6648 21.7399 40.7478 18.3707 40.7478C14.862 40.7478 11.875 38.489 10.7287 35.3214C10.229 35.4299 9.70727 35.486 9.17453 35.486C4.9971 35.486 1.61328 32.0042 1.61328 27.711C1.61328 24.8314 3.13435 22.3183 5.3939 20.9757C4.91403 19.8537 4.6676 18.6428 4.67011 17.4192C4.67011 12.4789 8.60872 8.47364 13.4695 8.47364C16.3206 8.4699 18.8594 9.85361 20.465 11.9928Z" fill="#00A1E0"/>
<path d="M8.17464 25.2096C8.14525 25.2844 8.18566 25.2994 8.19301 25.3143C8.27751 25.3779 8.36569 25.4228 8.4502 25.4752C8.91313 25.7257 9.34667 25.7968 9.80593 25.7968C10.7355 25.7968 11.3123 25.2919 11.3123 24.4841V24.4692C11.3123 23.7212 10.662 23.4482 10.0484 23.2537L9.96759 23.2276C9.50833 23.0742 9.10786 22.9433 9.10786 22.6367V22.6217C9.10786 22.3562 9.33932 22.1617 9.69938 22.1617C10.0999 22.1617 10.5738 22.2964 10.8788 22.4684C10.8788 22.4684 10.9669 22.5282 11 22.4385C11.0184 22.3899 11.1727 21.9673 11.1874 21.9224C11.2058 21.8738 11.1727 21.8364 11.1433 21.8177C10.7943 21.6008 10.313 21.4549 9.81328 21.4549H9.72143C8.87271 21.4549 8.27751 21.9785 8.27751 22.7264V22.7414C8.27751 23.5305 8.9315 23.7885 9.54507 23.968L9.64427 23.998C10.0925 24.1363 10.4783 24.2597 10.4783 24.5776V24.5926C10.4783 24.8843 10.2284 25.1049 9.8243 25.1049C9.66631 25.1049 9.16664 25.1012 8.62655 24.7534C8.56042 24.716 8.52368 24.6861 8.47224 24.6562C8.44652 24.6375 8.38039 24.6113 8.351 24.6973L8.17464 25.2096ZM21.7797 25.2096C21.7503 25.2844 21.7908 25.2994 21.7981 25.3143C21.8826 25.3779 21.9708 25.4228 22.0553 25.4752C22.5182 25.7257 22.9518 25.7968 23.411 25.7968C24.3406 25.7968 24.9174 25.2919 24.9174 24.4841V24.4692C24.9174 23.7212 24.2671 23.4482 23.6535 23.2537L23.5727 23.2276C23.1134 23.0742 22.713 22.9433 22.713 22.6367V22.6217C22.713 22.3562 22.9444 22.1617 23.3045 22.1617C23.705 22.1617 24.1789 22.2964 24.4839 22.4684C24.4839 22.4684 24.572 22.5282 24.6051 22.4385C24.6235 22.3899 24.7778 21.9673 24.7925 21.9224C24.8109 21.8738 24.7778 21.8364 24.7484 21.8177C24.3994 21.6008 23.9181 21.4549 23.4184 21.4549H23.3265C22.4778 21.4549 21.8826 21.9785 21.8826 22.7264V22.7414C21.8826 23.5305 22.5366 23.7885 23.1502 23.968L23.2494 23.998C23.6976 24.1363 24.0834 24.2597 24.0834 24.5776V24.5926C24.0834 24.8843 23.8335 25.1049 23.4294 25.1049C23.2714 25.1049 22.7717 25.1012 22.2317 24.7534C22.1655 24.716 22.1288 24.6861 22.0773 24.6562C22.059 24.6449 21.9818 24.615 21.9561 24.6973L21.7797 25.2096ZM31.0641 23.624C31.0641 24.0802 30.9796 24.443 30.8143 24.6973C30.6526 24.9479 30.4028 25.0713 30.0611 25.0713C29.7157 25.0713 29.4696 24.9479 29.3079 24.6973C29.1463 24.443 29.0618 24.0802 29.0618 23.624C29.0618 23.1677 29.1426 22.8087 29.3079 22.5544C29.4696 22.3038 29.7157 22.1842 30.0611 22.1842C30.4065 22.1842 30.6526 22.3038 30.818 22.5544C30.9796 22.805 31.0641 23.164 31.0641 23.624ZM31.8394 22.775C31.7622 22.5133 31.6446 22.2814 31.4866 22.0907C31.3253 21.8931 31.1217 21.7358 30.8914 21.6307C30.6563 21.5185 30.3734 21.4624 30.0611 21.4624C29.7451 21.4624 29.4659 21.5185 29.2308 21.6307C28.9919 21.7429 28.7935 21.8999 28.6356 22.0907C28.4776 22.2851 28.36 22.5133 28.2829 22.775C28.2057 23.0368 28.169 23.3211 28.169 23.624C28.169 23.9269 28.2057 24.2111 28.2829 24.4729C28.36 24.7347 28.4776 24.9666 28.6356 25.1573C28.7935 25.3517 28.9956 25.5051 29.2308 25.6135C29.4696 25.722 29.7488 25.7781 30.0611 25.7781C30.3771 25.7781 30.6563 25.722 30.8914 25.6135C31.1266 25.5051 31.3287 25.348 31.4866 25.1573C31.6446 24.9666 31.7622 24.7347 31.8394 24.4729C31.9165 24.2111 31.9533 23.9269 31.9533 23.624C31.9533 23.3211 31.9165 23.0331 31.8394 22.775ZM38.2102 24.9479C38.1845 24.8693 38.111 24.8992 38.111 24.8992C37.9971 24.9441 37.8795 24.9853 37.7509 25.004C37.6224 25.0226 37.4791 25.0339 37.3248 25.0339C36.95 25.0339 36.6524 24.9217 36.4356 24.6973C36.2225 24.4729 36.1013 24.1101 36.1013 23.6165C36.1013 23.1677 36.2078 22.8311 36.3989 22.5768C36.5863 22.3225 36.8765 22.1916 37.2586 22.1916C37.5783 22.1916 37.8244 22.229 38.0779 22.3113C38.0779 22.3113 38.1404 22.3375 38.1698 22.2552C38.2359 22.0645 38.2874 21.9261 38.3608 21.7167C38.3829 21.6569 38.3314 21.6307 38.3131 21.6232C38.2139 21.5821 37.9751 21.5185 37.795 21.4923C37.626 21.4661 37.4313 21.4512 37.2145 21.4512C36.8875 21.4512 36.5973 21.5073 36.3511 21.6195C36.105 21.7317 35.8919 21.885 35.7265 22.0795C35.5568 22.2796 35.4281 22.5123 35.3481 22.7638C35.2636 23.0256 35.2232 23.3098 35.2232 23.6128C35.2232 24.2672 35.3959 24.7983 35.7412 25.1835C36.0829 25.5724 36.601 25.7706 37.2733 25.7706C37.6701 25.7706 38.0779 25.6883 38.3719 25.5724C38.3719 25.5724 38.427 25.5462 38.4049 25.4789L38.2102 24.9479ZM39.5696 23.1827C39.6064 22.9284 39.6762 22.7152 39.7827 22.5507C39.9444 22.3001 40.1869 22.1617 40.5322 22.1617C40.8776 22.1617 41.1054 22.3001 41.267 22.5507C41.3773 22.7152 41.4213 22.9359 41.4397 23.1827H39.5696ZM42.1782 22.6255C42.1121 22.3712 41.9504 22.1169 41.8402 22.0009C41.6712 21.8139 41.5058 21.6868 41.3405 21.6157C41.1022 21.5132 40.846 21.4611 40.5873 21.4624C40.2603 21.4624 39.9627 21.5185 39.7202 21.6344C39.4778 21.7504 39.2757 21.9074 39.114 22.1056C38.956 22.3001 38.8348 22.5357 38.7576 22.7975C38.6805 23.0593 38.6437 23.3472 38.6437 23.6502C38.6437 23.9568 38.6842 24.2448 38.7613 24.5028C38.8421 24.7646 38.9707 24.9927 39.1434 25.1835C39.3161 25.3742 39.5365 25.5238 39.8048 25.6285C40.0693 25.7332 40.3889 25.7856 40.7563 25.7856C41.5132 25.7818 41.9137 25.6098 42.079 25.52C42.1084 25.5051 42.1341 25.4752 42.101 25.3929L41.9284 24.903C41.9026 24.8319 41.8292 24.8581 41.8292 24.8581C41.6418 24.9292 41.3736 25.0563 40.7527 25.0563C40.3448 25.0563 40.0436 24.9329 39.8562 24.7422C39.6615 24.5477 39.5659 24.2597 39.5512 23.8521L42.1782 23.8558C42.1782 23.8558 42.248 23.8558 42.2554 23.7848C42.259 23.7474 42.3472 23.2276 42.1782 22.6255ZM18.5392 23.1827C18.5759 22.9284 18.6458 22.7152 18.7523 22.5507C18.914 22.3001 19.1565 22.1617 19.5018 22.1617C19.8472 22.1617 20.075 22.3001 20.2366 22.5507C20.3432 22.7152 20.3909 22.9359 20.4093 23.1827H18.5392ZM21.1515 22.6255C21.0853 22.3712 20.9237 22.1169 20.8171 22.0009C20.6481 21.8139 20.4828 21.6868 20.3175 21.6157C20.0792 21.5132 19.8229 21.4611 19.5643 21.4624C19.2373 21.4624 18.9397 21.5185 18.6972 21.6344C18.4547 21.7504 18.2526 21.9074 18.091 22.1056C17.933 22.3001 17.8117 22.5357 17.7346 22.7975C17.6574 23.0593 17.6207 23.3472 17.6207 23.6502C17.6207 23.9568 17.6611 24.2448 17.7383 24.5028C17.8191 24.7646 17.9477 24.9927 18.1204 25.1835C18.293 25.3742 18.5135 25.5238 18.7817 25.6285C19.0462 25.7332 19.3659 25.7856 19.7333 25.7856C20.4901 25.7818 20.8906 25.6098 21.0559 25.52C21.0853 25.5051 21.1111 25.4752 21.078 25.3929L20.9053 24.903C20.8796 24.8319 20.8061 24.8581 20.8061 24.8581C20.6187 24.9292 20.3505 25.0563 19.7296 25.0563C19.3218 25.0563 19.0205 24.9329 18.8331 24.7422C18.6384 24.5477 18.5429 24.2597 18.5282 23.8521L21.1551 23.8558C21.1551 23.8558 21.225 23.8558 21.2323 23.7848C21.2323 23.7474 21.3205 23.2276 21.1515 22.6255ZM12.8628 24.9329C12.7599 24.8506 12.7452 24.8282 12.7121 24.7758C12.6607 24.6935 12.635 24.5776 12.635 24.428C12.635 24.1924 12.7121 24.0241 12.8701 23.9119C12.8664 23.9119 13.0942 23.71 13.6306 23.7175C14.0054 23.7212 14.3434 23.781 14.3434 23.781V24.9965C14.3434 24.9965 14.0091 25.0675 13.6343 25.0937C13.0979 25.1236 12.8628 24.9329 12.8628 24.9329ZM13.9099 23.0555C13.8033 23.0481 13.6637 23.0443 13.4984 23.0443C13.2743 23.0443 13.0575 23.0742 12.8517 23.1303C12.646 23.1864 12.4623 23.2724 12.3043 23.3884C12.1463 23.5043 12.0177 23.6539 11.9222 23.8297C11.8303 24.0054 11.7826 24.2149 11.7826 24.4467C11.7826 24.6823 11.823 24.888 11.9038 25.0563C11.9847 25.2246 12.0986 25.3667 12.2455 25.4752C12.3925 25.5836 12.5725 25.6621 12.7819 25.7108C12.9877 25.7594 13.2228 25.7818 13.4763 25.7818C13.7445 25.7818 14.0127 25.7594 14.2736 25.7145C14.5308 25.6696 14.8468 25.6061 14.9349 25.5836C15.0231 25.5612 15.1186 25.535 15.1186 25.535C15.1848 25.52 15.1774 25.449 15.1774 25.449V23.0032C15.1774 22.4684 15.0378 22.0682 14.7586 21.8251C14.483 21.5783 14.0789 21.4549 13.5535 21.4549C13.3551 21.4549 13.0391 21.4811 12.8517 21.5222C12.8517 21.5222 12.2786 21.6344 12.0434 21.8214C12.0434 21.8214 11.992 21.8551 12.0214 21.9261L12.2088 22.4347C12.2308 22.502 12.2933 22.4796 12.2933 22.4796C12.2933 22.4796 12.3116 22.4721 12.3374 22.4572C12.8444 22.1767 13.48 22.1842 13.48 22.1842C13.7629 22.1842 13.9834 22.2403 14.1303 22.3562C14.2736 22.4684 14.3471 22.6367 14.3471 22.992V23.1041C14.1156 23.0742 13.9099 23.0555 13.9099 23.0555ZM35.0872 21.6793C35.0945 21.6609 35.0943 21.6404 35.0868 21.6222C35.0792 21.604 35.0648 21.5895 35.0468 21.5821C35.0027 21.5634 34.7786 21.5147 34.6059 21.5035C34.2753 21.4848 34.0916 21.5409 33.9299 21.6157C33.7682 21.6905 33.5882 21.8102 33.4853 21.9486V21.6232C33.4853 21.5783 33.4523 21.5409 33.4082 21.5409H32.7358C32.6917 21.5409 32.6587 21.5783 32.6587 21.6232V25.6098C32.6587 25.6547 32.6954 25.6921 32.7395 25.6921H33.4302C33.4743 25.6921 33.5111 25.6547 33.5111 25.6098V23.6165C33.5111 23.351 33.5405 23.0817 33.5992 22.9134C33.6544 22.7489 33.7352 22.6142 33.8307 22.5207C33.9262 22.4273 34.0365 22.3599 34.154 22.3225C34.2753 22.2851 34.4112 22.2702 34.5067 22.2702C34.6427 22.2702 34.797 22.3076 34.797 22.3076C34.8484 22.3151 34.8741 22.2814 34.8925 22.2365C34.9329 22.1169 35.0615 21.7504 35.0872 21.6793Z" fill="white"/>
<path d="M28.6154 19.8319C28.5309 19.8058 28.4538 19.7871 28.3546 19.7684C28.2554 19.7497 28.1341 19.7422 27.9982 19.7422C27.5242 19.7422 27.1495 19.8806 26.8849 20.1498C26.6241 20.4191 26.4477 20.8267 26.3559 21.3615L26.3228 21.541H25.7276C25.7276 21.541 25.6541 21.5373 25.6394 21.6195L25.5402 22.1768C25.5329 22.2291 25.5549 22.2628 25.6247 22.2628H26.2052L25.6174 25.6061C25.5733 25.8754 25.5182 26.096 25.4594 26.2643C25.4006 26.4289 25.3455 26.5523 25.2757 26.6458C25.2096 26.7318 25.1471 26.7954 25.0369 26.8328C24.945 26.8627 24.8421 26.8777 24.7282 26.8777C24.6658 26.8777 24.5813 26.8664 24.5188 26.8552C24.4564 26.844 24.4233 26.829 24.3755 26.8103C24.3755 26.8103 24.3094 26.7842 24.28 26.8515C24.258 26.9076 24.1037 27.3414 24.0853 27.3937C24.0669 27.4461 24.0926 27.4872 24.1257 27.5022C24.2029 27.5284 24.2616 27.5471 24.3645 27.5733C24.5115 27.6069 24.6327 27.6107 24.7503 27.6107C24.9928 27.6107 25.2132 27.577 25.3933 27.5097C25.577 27.4424 25.7349 27.3227 25.8782 27.1656C26.0325 26.9936 26.1281 26.8141 26.2199 26.5673C26.3118 26.3242 26.3889 26.0213 26.4514 25.6697L27.0429 22.2628H27.9063C27.9063 22.2628 27.9798 22.2665 27.9945 22.1843L28.0937 21.627C28.101 21.5747 28.079 21.541 28.0092 21.541H27.1678C27.1715 21.5223 27.2119 21.2194 27.3074 20.9389C27.3479 20.8192 27.425 20.722 27.4912 20.6547C27.5573 20.5874 27.6308 20.5425 27.7116 20.5163C27.7961 20.4901 27.888 20.4752 27.9945 20.4752C28.0717 20.4752 28.1525 20.4827 28.2113 20.4976C28.2921 20.5163 28.3252 20.5238 28.3472 20.5313C28.4317 20.5575 28.4464 20.5313 28.4611 20.4901L28.6632 19.9292C28.6852 19.8656 28.6338 19.8394 28.6154 19.8319ZM16.8878 25.6099C16.8878 25.6548 16.8547 25.6922 16.8106 25.6922H16.1125C16.0685 25.6922 16.0391 25.6548 16.0391 25.6099V19.9067C16.0391 19.8619 16.0685 19.8245 16.1125 19.8245H16.8106C16.8547 19.8245 16.8878 19.8619 16.8878 19.9067V25.6099Z" fill="white"/>
</svg>
