<svg width="118" height="142" viewBox="0 0 118 142" fill="none" xmlns="http://www.w3.org/2000/svg">
<path d="M22.4937 7.96V16.36C22.4937 17.2 22.7004 17.8467 23.1137 18.3C23.527 18.7533 24.1337 18.98 24.9337 18.98C25.7337 18.98 26.347 18.7533 26.7737 18.3C27.2004 17.8467 27.4137 17.2 27.4137 16.36V7.96H30.8337V16.34C30.8337 17.5933 30.567 18.6533 30.0337 19.52C29.5004 20.3867 28.7804 21.04 27.8737 21.48C26.9804 21.92 25.9804 22.14 24.8737 22.14C23.767 22.14 22.7737 21.9267 21.8937 21.5C21.027 21.06 20.3404 20.4067 19.8337 19.54C19.327 18.66 19.0737 17.5933 19.0737 16.34V7.96H22.4937ZM51.7953 22H48.3753L42.6553 13.34V22H39.2353V7.96H42.6553L48.3753 16.66V7.96H51.7953V22ZM63.6943 7.96V22H60.2743V7.96H63.6943ZM82.2728 7.96V10.7H78.5528V22H75.1328V10.7H71.4128V7.96H82.2728ZM93.4092 10.7V13.54H97.9892V16.18H93.4092V19.26H98.5892V22H89.9892V7.96H98.5892V10.7H93.4092Z" fill="#3B6ED3"/>
<path d="M99.9528 40.3603C99.3983 38.6982 100.162 36.5843 101.774 35.7279C76.8044 28.6668 50.0542 30.5768 24.4001 34.845C18.2998 35.8599 11.3956 36.8943 6.03516 40.1675C11.2472 39.793 14.8474 34.5186 46.786 33.5782C64.7523 33.0494 83.0278 33.6918 99.1669 41.8776C99.2956 41.3111 99.5742 40.7954 99.9528 40.3603Z" fill="#CCCCCC"/>
<path d="M67.7763 116.262C73.0854 117.833 78.7695 117.371 84.2519 116.597C89.7343 115.823 95.2397 114.748 100.763 115.141C106.285 115.534 111.974 117.626 115.322 122.036C115.189 116.658 115.056 111.28 114.922 105.902C101.834 109.432 88.6139 112.474 75.2988 115.018C67.9144 116.429 59.9834 117.631 53.1133 114.578L67.7763 116.262Z" fill="#CCCCCC"/>
<path d="M68.384 87.0865C73.4269 89.1343 79.0358 89.1811 84.4748 88.9792C89.9139 88.7773 95.4344 88.3632 100.74 89.576C106.046 90.7887 111.232 93.9505 113.35 98.9644C115.259 91.1467 115.382 82.8988 113.71 75.0273C95.1385 84.0724 74.1076 88.0024 53.5234 86.2744C56.1766 86.1024 58.8298 85.9303 61.4831 85.7582L68.384 87.0865Z" fill="#CCCCCC"/>
<path d="M116.154 59.6914C112.606 57.9422 110.572 54.4398 110.572 51.3027C108.747 52.0442 106.857 52.6403 104.931 53.1345C104.996 53.3163 105.054 53.4907 105.127 53.6652H105.134C105.665 55.1191 106.305 56.5221 107.053 57.8814C107.25 58.2303 107.119 58.6737 106.77 58.8699C106.419 59.0571 105.97 58.9347 105.781 58.5791C104.807 56.8174 103.98 54.8829 103.513 53.4834C101.176 54.0276 98.5591 54.4787 96.1859 54.8501C76.908 57.8378 57.3029 58.7101 37.8359 57.4453L45.8612 58.0994C63.349 63.4821 82.0778 57.0482 100.119 59.3062C102.731 59.61 105.528 60.1301 107.991 61.0435C108.129 60.8836 108.333 60.7819 108.558 60.7746L108.892 60.7819C109.3 60.7964 109.612 61.1236 109.605 61.5306C109.605 61.5888 109.598 61.647 109.583 61.6979C112.789 63.1662 115.493 65.4125 116.511 68.7055C116.227 65.7102 116.111 62.7009 116.154 59.6914Z" fill="#CCCCCC"/>
<path d="M117.463 41.6657C116.751 41.9128 116.075 42.2326 115.45 42.6179C111.654 37.9404 97.2777 35.3078 91.3231 34.4037C80.9285 32.8108 69.6258 32.1721 59.1932 32.1721C25.5949 32.1721 2.18078 38.6054 2.18078 44.3845C2.18078 47.1031 7.5891 50.0689 16.6465 52.3296C17.2353 52.4749 17.5915 53.0711 17.4389 53.6527C17.2934 54.2341 16.7046 54.5904 16.1231 54.4449C8.76665 52.6131 0 49.3783 0 44.3844C0 30.9845 62.8324 25.9896 98.6578 33.5096C106.319 35.1088 114.745 37.7112 117.463 41.6657Z" fill="#3B6ED3"/>
<path d="M103.719 54.0688C82.7523 59.7132 45.5671 60.4376 20.7994 55.4936C20.2106 55.3773 19.8253 54.8029 19.9489 54.2142C20.0652 53.6255 20.6394 53.2402 21.2282 53.3564C31.7323 55.4573 45.2167 56.6131 59.1881 56.6131C72.7675 56.6131 90.056 55.4662 103.029 52.0117C103.174 52.5059 103.526 53.5674 103.719 54.0688Z" fill="#3B6ED3"/>
<path d="M110.602 51.7737C108.995 52.4424 107.171 53.075 105.135 53.6637H105.128C104.965 53.2728 104.609 52.1852 104.438 51.6138C106.844 50.916 108.952 50.16 110.718 49.3457C110.564 50.1604 110.53 51.0138 110.602 51.7737Z" fill="#3B6ED3"/>
<path d="M115.324 62.8452C115.227 64.3419 115.114 65.9631 115.114 66.6935C115.114 72.9831 92.1475 79.9911 59.1918 79.9911C26.2361 79.9911 3.26993 72.9831 3.26993 66.6935C3.26993 64.171 2.51946 55.6115 2.67077 46.4483C2.68075 45.8459 2.20079 45.3497 1.59817 45.3398H1.57969C0.986273 45.3398 0.499955 45.8162 0.489972 46.4121C0.333978 55.9082 1.08913 64.1213 1.08913 66.6935C1.08913 76.7469 31.025 82.1718 59.1917 82.1718C87.3585 82.1718 117.295 76.7469 117.295 66.6935C117.295 66.2354 117.345 65.3829 117.415 64.2974C116.566 64.1432 115.848 63.5529 115.324 62.8452Z" fill="#3B6ED3"/>
<path d="M1.51227 43.7586C0.91026 43.7586 0.421875 43.2741 0.421875 42.6717V42.6646C0.421875 42.0623 0.91026 41.5742 1.51227 41.5742C2.11429 41.5742 2.60267 42.0623 2.60267 42.6646C2.60267 43.2671 2.11429 43.7586 1.51227 43.7586Z" fill="#3B6ED3"/>
<path d="M58.933 88.2772C30.8223 88.2772 0.945312 83.2306 0.945312 73.8779C0.945312 72.3527 1.74889 70.8906 3.33262 69.5323C3.79053 69.1394 4.47841 69.194 4.87026 69.6501C5.26211 70.1073 5.20958 70.7959 4.75236 71.1878C3.67334 72.1131 3.12602 73.0182 3.12602 73.8779C3.12602 79.657 26.0453 86.0964 58.9329 86.0964C91.8169 86.0964 114.733 79.657 114.733 73.8779C114.733 73.0789 114.258 72.238 113.323 71.3791C112.879 70.9716 112.85 70.282 113.258 69.8383C113.666 69.3949 114.355 69.3659 114.798 69.7726C116.201 71.0617 116.913 72.4428 116.913 73.8779C116.914 83.2306 87.0408 88.2772 58.933 88.2772Z" fill="#3B6ED3"/>
<path d="M58.9356 111.662C31.3388 111.662 2.00923 106.237 2.00923 96.1837C2.00923 95.4543 1.93754 94.0775 1.84665 92.3347C1.63658 88.3207 1.31989 82.2551 1.42215 75.9027C1.43213 75.3067 1.91835 74.8301 2.51255 74.8301C2.51828 74.8301 2.52393 74.8301 2.53035 74.8301C3.13236 74.8401 3.61223 75.3359 3.60295 75.9378C3.50147 82.2157 3.81588 88.2365 4.02387 92.2212C4.1204 94.0651 4.19002 95.3972 4.19002 96.1837C4.19002 102.473 26.6735 109.481 58.9356 109.481C91.1977 109.481 113.68 102.473 113.68 96.1837C113.68 95.5618 113.75 94.47 113.846 92.959C114.096 89.0355 114.514 82.4687 114.224 75.8653L115.313 75.8103L116.404 75.8174C116.697 82.49 116.275 89.1302 116.022 93.0978C115.932 94.5133 115.861 95.6313 115.861 96.1836C115.861 106.237 86.5317 111.662 58.9356 111.662Z" fill="#3B6ED3"/>
<path d="M2.44196 73.2469C1.83995 73.2469 1.35156 72.7624 1.35156 72.16V72.1529C1.35156 71.5505 1.83995 71.0625 2.44196 71.0625C3.04397 71.0625 3.53234 71.5505 3.53234 72.1529C3.53234 72.7553 3.04397 73.2469 2.44196 73.2469Z" fill="#3B6ED3"/>
<path d="M59.3002 117.779C31.1895 117.779 1.3125 112.733 1.3125 103.38C1.3125 101.754 2.22538 100.202 4.025 98.7655C4.49636 98.3899 5.18206 98.4673 5.55768 98.9376C5.93321 99.4083 5.85586 100.094 5.38519 100.47C4.13012 101.472 3.49338 102.451 3.49338 103.38C3.49338 109.159 26.4127 115.598 59.3002 115.598C92.2531 115.598 114.389 109.281 114.389 103.38C114.389 102.042 114.139 101.135 112.817 100.177C112.329 99.8235 112.22 99.1416 112.573 98.6539C112.928 98.1655 113.61 98.058 114.096 98.4111C116.276 99.9906 116.57 101.809 116.57 103.38C116.57 112.733 87.063 117.779 59.3002 117.779Z" fill="#3B6ED3"/>
<path d="M59.2928 141.169C31.6975 141.169 2.36936 135.743 2.36936 125.688C2.36936 124.957 2.29766 123.576 2.20677 121.828C1.99739 117.817 1.68218 111.755 1.7801 105.408C1.7893 104.806 2.29835 104.352 2.88752 104.334C3.48953 104.344 3.9701 104.839 3.9609 105.442C3.86367 111.715 4.17671 117.733 4.384 121.715C4.48053 123.564 4.55014 124.901 4.55014 125.688C4.55014 131.979 27.0322 138.989 59.2929 138.989C64.911 138.989 70.4643 138.772 75.7984 138.346C76.3891 138.295 76.9236 138.745 76.9719 139.346C77.0202 139.946 76.5722 140.472 75.9717 140.52C70.5807 140.951 64.969 141.169 59.2928 141.169Z" fill="#3B6ED3"/>
<path d="M80.624 140.078C80.0738 140.078 79.601 139.663 79.5414 139.103C79.4775 138.505 79.9112 137.968 80.5097 137.904C103.552 135.449 114.047 129.848 114.047 125.683C114.047 125.222 114.057 124.451 114.07 123.433L114.09 121.843C114.104 120.499 114.118 118.891 114.118 117.114C114.118 113.137 114.04 109.161 113.892 105.615L113.881 105.411C113.878 105.381 113.877 105.351 113.877 105.321C113.877 104.718 114.365 104.227 114.967 104.227C115.562 104.227 116.045 104.699 116.058 105.29L116.068 105.479C116.22 109.1 116.299 113.107 116.299 117.114C116.299 118.9 116.285 120.515 116.271 121.867L116.251 123.461C116.238 124.466 116.228 125.228 116.228 125.683C116.228 133.505 97.8969 138.244 80.7411 140.072C80.7013 140.076 80.6623 140.078 80.624 140.078Z" fill="#3B6ED3"/>
<path d="M2.80915 102.745C2.20713 102.745 1.71875 102.261 1.71875 101.658V101.651C1.71875 101.049 2.20713 100.561 2.80915 100.561C3.41116 100.561 3.89953 101.049 3.89953 101.651C3.89953 102.254 3.41116 102.745 2.80915 102.745Z" fill="#3B6ED3"/>
<path d="M12.3107 65.8821C13.4381 65.8821 14.3519 64.7695 14.3519 63.3971C14.3519 62.0247 13.4381 60.9121 12.3107 60.9121C11.1834 60.9121 10.2695 62.0247 10.2695 63.3971C10.2695 64.7695 11.1834 65.8821 12.3107 65.8821Z" fill="#3B6ED3"/>
<path d="M12.3188 66.971C10.5924 66.971 9.1875 65.3671 9.1875 63.3957C9.1875 61.4243 10.5923 59.8203 12.3188 59.8203C14.046 59.8203 15.4509 61.4244 15.4509 63.3957C15.4509 65.367 14.046 66.971 12.3188 66.971ZM12.3188 62.0011C11.8127 62.0011 11.3683 62.6528 11.3683 63.3957C11.3683 64.1386 11.8127 64.7902 12.3188 64.7902C12.8257 64.7902 13.2701 64.1386 13.2701 63.3957C13.2701 62.6528 12.8256 62.0011 12.3188 62.0011Z" fill="#3B6ED3"/>
<path d="M22.7834 68.5402C23.9107 68.5402 24.8246 67.4277 24.8246 66.0553C24.8246 64.6829 23.9107 63.5703 22.7834 63.5703C21.6561 63.5703 20.7422 64.6829 20.7422 66.0553C20.7422 67.4277 21.6561 68.5402 22.7834 68.5402Z" fill="#3B6ED3"/>
<path d="M22.7922 69.6292C21.0651 69.6292 19.6602 68.0252 19.6602 66.0539C19.6602 64.0826 21.065 62.4785 22.7922 62.4785C24.5186 62.4785 25.9235 64.0826 25.9235 66.0539C25.9235 68.0252 24.5186 69.6292 22.7922 69.6292ZM22.7922 64.6594C22.2853 64.6594 21.841 65.3111 21.841 66.054C21.841 66.7969 22.2853 67.4485 22.7922 67.4485C23.2984 67.4485 23.7427 66.7969 23.7427 66.054C23.7427 65.3111 23.2984 64.6594 22.7922 64.6594Z" fill="#3B6ED3"/>
<path d="M33.9865 70.4934C35.1138 70.4934 36.0277 69.3808 36.0277 68.0084C36.0277 66.636 35.1138 65.5234 33.9865 65.5234C32.8592 65.5234 31.9453 66.636 31.9453 68.0084C31.9453 69.3808 32.8592 70.4934 33.9865 70.4934Z" fill="#3B6ED3"/>
<path d="M33.9797 71.5827C32.2526 71.5827 30.8477 69.9788 30.8477 68.0073C30.8477 66.0357 32.2526 64.4316 33.9797 64.4316C35.7061 64.4316 37.111 66.0357 37.111 68.0073C37.111 69.9787 35.7061 71.5827 33.9797 71.5827ZM33.9797 66.6124C33.4728 66.6124 33.0285 67.2641 33.0285 68.0073C33.0285 68.7502 33.4728 69.4019 33.9797 69.4019C34.4859 69.4019 34.9302 68.7502 34.9302 68.0073C34.9302 67.2641 34.4859 66.6124 33.9797 66.6124Z" fill="#3B6ED3"/>
<path d="M31.0405 98.4801C32.1607 98.3542 32.9446 97.1466 32.7913 95.7828C32.638 94.4191 31.6056 93.4156 30.4854 93.5415C29.3651 93.6675 28.5813 94.8751 28.7346 96.2388C28.8879 97.6026 29.9203 98.6061 31.0405 98.4801Z" fill="#3B6ED3"/>
<path d="M27.6527 96.3809C27.289 93.1545 30.5927 91.2316 32.7624 93.3422C34.8599 95.3805 33.9047 99.2764 31.1638 99.5842C29.4623 99.7733 27.8769 98.3772 27.6527 96.3809ZM30.6093 94.6456C29.7919 94.7371 29.4643 96.3579 30.2863 97.1567C31.3516 98.1953 32.3572 95.9905 31.2425 94.9057C31.1375 94.8035 30.8477 94.6195 30.6093 94.6456Z" fill="#3B6ED3"/>
<path d="M41.7475 99.9469C42.8678 99.821 43.6516 98.6134 43.4983 97.2496C43.345 95.8859 42.3126 94.8824 41.1924 95.0083C40.0722 95.1342 39.2883 96.3419 39.4416 97.7056C39.5949 99.0694 40.6273 100.073 41.7475 99.9469Z" fill="#3B6ED3"/>
<path d="M38.9194 95.3265C39.977 93.6984 42.0707 93.4622 43.4626 94.8161C44.7292 96.0469 44.9826 98.1866 44.0093 99.6841C43.5053 100.461 42.7229 100.962 41.8633 101.058C39.125 101.362 37.3235 97.7846 38.9194 95.3265ZM40.5195 97.6113C40.5888 98.2263 41.0329 98.9484 41.6198 98.8909C42.1976 98.8264 42.4793 98.0251 42.4099 97.3991C42.3645 96.9955 42.1941 96.6239 41.9428 96.3797C41.1881 95.6454 40.4004 96.5536 40.5195 97.6113Z" fill="#3B6ED3"/>
<path d="M53.0757 100.646C54.1959 100.52 54.9798 99.3126 54.8265 97.9488C54.6732 96.5851 53.6408 95.5816 52.5205 95.7075C51.4003 95.8335 50.6165 97.0411 50.7698 98.4049C50.9231 99.7686 51.9555 100.772 53.0757 100.646Z" fill="#3B6ED3"/>
<path d="M52.8905 101.775C52.133 101.775 51.3848 101.463 50.7999 100.894C50.1837 100.295 49.7883 99.4643 49.686 98.5546C49.4653 96.5957 50.682 94.8448 52.3978 94.6516C54.1143 94.4617 55.6896 95.896 55.9096 97.8554C56.1304 99.8143 54.913 101.565 53.1971 101.758C53.0949 101.769 52.9926 101.775 52.8905 101.775ZM52.708 96.8151C52.6853 96.8151 52.6633 96.8165 52.6412 96.819C52.1386 96.8754 51.7695 97.5729 51.8526 98.3111C51.898 98.7147 52.0684 99.086 52.3197 99.3305C52.434 99.4416 52.6661 99.6194 52.9529 99.5907C53.4569 99.5343 53.8261 98.8371 53.743 98.0989C53.6635 97.3929 53.1892 96.8151 52.708 96.8151Z" fill="#3B6ED3"/>
<path d="M17.072 122.508C17.099 121.136 16.2072 120.006 15.0801 119.983C13.953 119.961 13.0174 121.056 12.9904 122.428C12.9633 123.8 13.8551 124.93 14.9822 124.952C16.1093 124.975 17.0449 123.88 17.072 122.508Z" fill="#3B6ED3"/>
<path d="M15.0142 126.037C14.9958 126.037 14.9781 126.037 14.9603 126.036C14.0957 126.02 13.27 125.593 12.6964 124.866C12.1647 124.191 11.8814 123.316 11.8992 122.4C11.9177 121.485 12.235 120.621 12.793 119.968C13.3822 119.279 14.2014 118.887 15.0469 118.887C15.0654 118.887 15.0831 118.887 15.1009 118.887C15.9655 118.904 16.7911 119.331 17.3647 120.058C17.8964 120.733 18.1796 121.608 18.1619 122.523C18.1434 123.439 17.8261 124.302 17.2681 124.956C16.6789 125.645 15.8597 126.037 15.0142 126.037ZM15.0462 121.068C14.765 121.068 14.5528 121.266 14.4506 121.385C14.2227 121.651 14.0878 122.037 14.08 122.443C14.0715 122.849 14.1915 123.24 14.4087 123.515C14.5073 123.64 14.7161 123.851 15.0028 123.856C15.296 123.855 15.5061 123.66 15.6105 123.539C15.8383 123.272 15.9732 122.887 15.981 122.481C15.9895 122.075 15.8696 121.684 15.6524 121.409C15.5537 121.284 15.345 121.073 15.0582 121.068C15.0539 121.068 15.0505 121.068 15.0462 121.068Z" fill="#3B6ED3"/>
<path d="M27.486 125.375C27.5131 124.003 26.6213 122.873 25.4942 122.85C24.3671 122.828 23.4315 123.922 23.4044 125.295C23.3774 126.667 24.2692 127.797 25.3963 127.819C26.5234 127.841 27.459 126.747 27.486 125.375Z" fill="#3B6ED3"/>
<path d="M25.4284 128.91C25.4099 128.91 25.3922 128.91 25.3737 128.909C24.5091 128.892 23.6841 128.466 23.1106 127.738C22.5782 127.064 22.2949 126.188 22.3133 125.273C22.3524 123.302 23.7665 121.737 25.5142 121.76C27.2407 121.794 28.6136 123.425 28.5752 125.396C28.5369 127.346 27.1299 128.91 25.4284 128.91ZM25.4595 123.94C24.9584 123.94 24.5083 124.579 24.494 125.316C24.4855 125.722 24.6055 126.113 24.8227 126.388C24.9214 126.513 25.1294 126.724 25.4162 126.729C25.9579 126.74 26.3802 126.097 26.3944 125.354C26.4094 124.611 25.9778 123.95 25.4716 123.94C25.4673 123.94 25.4639 123.94 25.4595 123.94Z" fill="#3B6ED3"/>
<path d="M38.6227 127.541C38.6498 126.169 37.758 125.039 36.6309 125.016C35.5038 124.994 34.5682 126.088 34.5411 127.461C34.5141 128.833 35.4059 129.963 36.533 129.985C37.6601 130.007 38.5957 128.913 38.6227 127.541Z" fill="#3B6ED3"/>
<path d="M36.5657 131.077C36.5472 131.077 36.5295 131.076 36.511 131.076C34.7846 131.042 33.4116 129.411 33.45 127.44C33.4891 125.468 34.9422 123.882 36.6509 123.927C38.3773 123.961 39.7503 125.592 39.7119 127.563C39.6736 129.513 38.2673 131.077 36.5657 131.077ZM36.5962 126.107C36.0951 126.107 35.645 126.746 35.6307 127.482C35.6158 128.225 36.0474 128.886 36.5536 128.896C37.0725 128.882 37.5169 128.263 37.5311 127.52C37.546 126.777 37.1144 126.117 36.6083 126.107C36.604 126.107 36.6005 126.107 36.5962 126.107Z" fill="#3B6ED3"/>
<path d="M5.05448 77.8771C6.81182 79.675 9.25171 80.6143 11.6463 81.3804C24.0366 85.3442 37.2041 86.0234 50.2006 86.5893C67.3689 87.3368 84.8461 87.9079 101.449 83.4753C106.367 82.1623 111.441 80.2285 114.571 76.2143C115.415 75.1318 116.065 73.4963 115.143 72.4793C114.227 71.4691 112.581 71.9323 111.318 72.4456C94.3441 79.3399 75.5248 82.4599 57.2212 81.6776C40.2576 80.9526 23.3193 79.9026 7.36798 72.399C5.60049 71.5676 3.44861 70.4892 3.05624 72.9713C2.786 74.6801 3.91069 76.7071 5.05448 77.8771Z" fill="#3B6ED3"/>
<path d="M5.27717 107.459C7.03451 109.257 9.47443 110.197 11.869 110.963C24.2593 114.926 37.4268 115.606 50.4233 116.172C67.5916 116.919 85.0688 117.49 101.672 113.058C106.59 111.745 111.663 109.811 114.794 105.797C115.638 104.714 116.289 102.514 115.367 101.498C114.451 100.487 113.968 100.333 112.705 100.847C95.7309 107.741 75.7475 112.042 57.4438 111.26C40.4803 110.535 23.5419 109.485 7.59062 101.981C5.82312 101.15 3.67122 100.071 3.27885 102.553C3.00879 104.262 4.13339 106.289 5.27717 107.459Z" fill="#3B6ED3"/>
</svg>
