<svg width="46" height="46" viewBox="0 0 46 46" fill="none" xmlns="http://www.w3.org/2000/svg">
<path d="M41.3029 2.18359H4.28691C3.01903 2.18359 1.99121 3.21141 1.99121 4.4793V41.4953C1.99121 42.7632 3.01903 43.791 4.28691 43.791H41.3029C42.5708 43.791 43.5986 42.7632 43.5986 41.4953V4.4793C43.5986 3.21141 42.5708 2.18359 41.3029 2.18359Z" fill="#3D5A98"/>
<path d="M30.6959 43.7874V27.6753H36.1029L36.9115 21.3964H30.6959V17.3886C30.6959 15.571 31.2021 14.33 33.8072 14.33H37.133V8.70498C35.5225 8.53744 33.9041 8.45764 32.285 8.46592C27.4967 8.46592 24.199 11.3839 24.199 16.7663V21.3964H18.792V27.6753H24.199V43.7874H30.6959Z" fill="white"/>
</svg>
