<svg width="70" height="21" viewBox="0 0 70 21" fill="none" xmlns="http://www.w3.org/2000/svg">
<g clip-path="url(#clip0_240_2725)">
<path d="M0.545898 4.68555H2.95173V10.0093H8.0258V4.68555H10.4347V17.7537H8.0258V12.3182H2.95173V17.7537H0.545898V4.68555ZM18.0564 13.4972C18.0564 14.5912 17.1616 15.4814 16.0635 15.4814C14.965 15.4814 14.0707 14.5912 14.0707 13.4972V7.87092H11.7891V13.4972C11.7891 15.8445 13.7067 17.7537 16.0635 17.7537C18.4197 17.7537 20.3372 15.8445 20.3372 13.4972V7.87092H18.0564V13.4972ZM26.7065 7.93682C25.5747 7.93682 24.7847 8.26394 24.0218 9.00984V4.68555H21.7328V12.6996C21.7328 15.6994 23.9104 17.7537 26.3568 17.7537C29.0765 17.7537 31.4594 15.6627 31.4594 12.8454C31.4594 10.0638 29.262 7.93682 26.7065 7.93682ZM26.7633 15.6446C25.2123 15.6446 24.0263 14.3544 24.0263 12.8454C24.0263 11.3362 25.2123 10.0455 26.7633 10.0455C28.0776 10.0455 29.2643 11.3362 29.2643 12.8454C29.2643 14.3544 28.0776 15.6446 26.7633 15.6446ZM35.3038 8.51118C35.3038 7.36514 36.0705 7.00179 36.9098 7.00179C37.5856 7.00179 38.4797 7.51078 39.0633 8.12904L40.5596 6.38394C39.8118 5.3842 38.2971 4.6932 37.0559 4.6932C34.5734 4.6932 32.7847 6.12944 32.7847 8.51118C32.7847 12.9286 38.2423 11.5284 38.2423 14.0014C38.2423 14.7641 37.4942 15.4374 36.6368 15.4374C35.2856 15.4374 34.8474 14.7829 34.2271 14.0919L32.5658 15.8004C33.6251 17.0913 34.9388 17.7461 36.5086 17.7461C38.863 17.7461 40.7613 16.2917 40.7613 14.019C40.7613 9.11078 35.3038 10.638 35.3038 8.51118ZM46.7872 7.80877C44.3411 7.80877 42.1633 9.86192 42.1633 12.8623V20.8971H44.4521V16.5523C45.2152 17.2976 46.0048 17.6253 47.1369 17.6253C49.6924 17.6253 51.89 15.4986 51.89 12.717C51.89 9.89924 49.5064 7.80877 46.7872 7.80877ZM47.1939 15.5168C45.6431 15.5168 44.4569 14.2249 44.4569 12.717C44.4569 11.2077 45.6431 9.91709 47.1939 9.91709C48.5079 9.91709 49.6948 11.2077 49.6948 12.717C49.6948 14.2249 48.5079 15.5168 47.1939 15.5168ZM68.7385 15.6446C67.3884 15.6446 67.0052 15.0631 67.0052 14.172V10.2273H69.1037V8.22783H67.0052V5.59159L64.6879 6.62756V14.6629C64.6879 16.7174 66.111 17.7537 68.0631 17.7537C68.3551 17.7537 68.7571 17.7349 68.9764 17.6811L69.5423 15.6089C69.2868 15.6265 68.9949 15.6446 68.7385 15.6446Z" fill="#45535E"/>
<path d="M62.7029 10.3437C62.2641 9.59178 61.6468 8.98896 60.8752 8.53513C60.2985 8.20077 59.7005 7.98855 59.0267 7.89741V5.50815C59.7005 5.22319 60.1187 4.59245 60.1187 3.85661C60.1187 2.85366 59.3112 2.0409 58.305 2.0409C57.2981 2.0409 56.4764 2.85366 56.4764 3.85661C56.4764 4.59245 56.8705 5.22319 57.5443 5.50815V7.89849C57.0052 7.97607 56.4462 8.14345 55.9357 8.40064C54.8931 7.61191 51.474 5.02439 49.474 3.51312C49.5214 3.34278 49.558 3.16721 49.558 2.98198C49.558 1.87111 48.6548 0.970703 47.539 0.970703C46.4233 0.970703 45.5205 1.87111 45.5205 2.98198C45.5205 4.09285 46.4242 4.99339 47.54 4.99339C47.9206 4.99339 48.2726 4.88251 48.5763 4.70023L48.9984 5.01916L54.7982 9.18131C54.4916 9.46171 54.206 9.78063 53.9776 10.1385C53.5147 10.868 53.2318 11.6707 53.2318 12.5463V12.729C53.2318 13.3436 53.349 13.9239 53.5488 14.469C53.7246 14.9449 53.9818 15.3777 54.3002 15.769L52.3754 17.6908C52.0964 17.5874 51.7934 17.5662 51.5027 17.6297C51.2119 17.6932 50.9457 17.8387 50.7358 18.049C50.5905 18.193 50.4753 18.3643 50.3969 18.553C50.3185 18.7418 50.2785 18.9441 50.2792 19.1483C50.2794 19.5635 50.4417 19.9537 50.7366 20.2472C50.8811 20.3921 51.0531 20.5069 51.2425 20.5851C51.4319 20.6633 51.635 20.7033 51.8401 20.7028C52.0452 20.7034 52.2484 20.6634 52.4379 20.5852C52.6273 20.507 52.7994 20.3921 52.9439 20.2472C53.0893 20.1032 53.2045 19.932 53.2829 19.7433C53.3613 19.5547 53.4014 19.3524 53.4008 19.1483C53.4008 18.9876 53.3759 18.8308 53.329 18.6818L55.3185 16.7C55.5913 16.8876 55.8859 17.0456 56.2026 17.1818C56.8272 17.4508 57.5167 17.6147 58.2712 17.6147H58.4095C59.2437 17.6147 60.0306 17.4196 60.7703 17.0204C61.5498 16.5985 62.1599 16.0216 62.6208 15.2851C63.0841 14.5465 63.3392 13.7306 63.3392 12.8328V12.788C63.3392 11.9049 63.134 11.0902 62.7029 10.3437ZM60.272 14.5012C59.7319 15.0989 59.1112 15.4671 58.4095 15.4671H58.2939C57.8931 15.4671 57.501 15.3567 57.1172 15.1561C56.6846 14.9351 56.3558 14.62 56.0867 14.2209C55.8085 13.8292 55.6576 13.4016 55.6576 12.9482V12.8104C55.6576 12.3647 55.7434 11.942 55.9599 11.5428C56.1913 11.1064 56.5038 10.7671 56.9194 10.4973C57.3275 10.2294 57.7633 10.0979 58.2487 10.0979H58.2939C58.734 10.0979 59.1507 10.1844 59.544 10.3848C59.9446 10.5985 60.272 10.8904 60.5257 11.2745C60.7722 11.6586 60.9188 12.073 60.966 12.5244C60.9734 12.6182 60.9772 12.7143 60.9772 12.8061C60.9772 13.4188 60.7421 13.9861 60.272 14.5012Z" fill="#F8761F"/>
</g>
<defs>
<clipPath id="clip0_240_2725">
<rect width="69" height="20" fill="white" transform="translate(0.537109 0.970703)"/>
</clipPath>
</defs>
</svg>
