<svg width="47" height="47" viewBox="0 0 47 47" fill="none" xmlns="http://www.w3.org/2000/svg">
<g clip-path="url(#clip0_240_2469)">
<path d="M35.9375 0.970703H11.5C5.54568 0.970703 0.71875 5.79763 0.71875 11.752V36.1895C0.71875 42.1438 5.54568 46.9707 11.5 46.9707H35.9375C41.8918 46.9707 46.7188 42.1438 46.7188 36.1895V11.752C46.7188 5.79763 41.8918 0.970703 35.9375 0.970703Z" fill="url(#paint0_radial_240_2469)"/>
<path d="M35.9375 0.970703H11.5C5.54568 0.970703 0.71875 5.79763 0.71875 11.752V36.1895C0.71875 42.1438 5.54568 46.9707 11.5 46.9707H35.9375C41.8918 46.9707 46.7188 42.1438 46.7188 36.1895V11.752C46.7188 5.79763 41.8918 0.970703 35.9375 0.970703Z" fill="url(#paint1_radial_240_2469)"/>
<path d="M23.7204 6.00195C18.8404 6.00195 18.2279 6.02334 16.3113 6.11048C14.3984 6.19817 13.0926 6.50095 11.9501 6.94531C10.7681 7.40423 9.76566 8.01823 8.76695 9.01729C7.76735 10.0162 7.15336 11.0186 6.693 12.2001C6.24738 13.3429 5.94424 14.6492 5.85817 16.5613C5.77246 18.478 5.75 19.0908 5.75 23.9709C5.75 28.851 5.77156 29.4616 5.85853 31.3781C5.94658 33.2911 6.24935 34.5969 6.69336 35.7393C7.15264 36.9213 7.76663 37.9238 8.7657 38.9225C9.76422 39.9221 10.7667 40.5375 11.9478 40.9965C13.0911 41.4408 14.3971 41.7436 16.3097 41.8313C18.2264 41.9184 18.8384 41.9398 23.7182 41.9398C28.5987 41.9398 29.2093 41.9184 31.1258 41.8313C33.0388 41.7436 34.346 41.4408 35.4894 40.9965C36.6708 40.5375 37.6718 39.9221 38.6702 38.9225C39.6698 37.9238 40.2836 36.9213 40.7441 35.7399C41.1858 34.5969 41.4891 33.2907 41.579 31.3785C41.665 29.462 41.6875 28.851 41.6875 23.9709C41.6875 19.0908 41.665 18.4784 41.579 16.5616C41.4891 14.6487 41.1858 13.3431 40.7441 12.2006C40.2836 11.0186 39.6698 10.0162 38.6702 9.01729C37.6708 8.01787 36.6712 7.40387 35.4883 6.94549C34.3428 6.50095 33.0363 6.19799 31.1233 6.11048C29.2066 6.02334 28.5964 6.00195 23.7148 6.00195H23.7204ZM22.1084 9.2401C22.5869 9.23938 23.1208 9.2401 23.7204 9.2401C28.5182 9.2401 29.0867 9.25735 30.9814 9.34342C32.7333 9.42356 33.6842 9.71627 34.3176 9.96227C35.1562 10.2879 35.754 10.6772 36.3826 11.3063C37.0115 11.9352 37.4007 12.5341 37.7272 13.3727C37.9732 14.0052 38.2663 14.9561 38.346 16.7081C38.4321 18.6024 38.4508 19.1713 38.4508 23.9668C38.4508 28.7623 38.4321 29.3313 38.346 31.2254C38.2659 32.9774 37.9732 33.9283 37.7272 34.5609C37.4016 35.3995 37.0115 35.9967 36.3826 36.6252C35.7537 37.2541 35.1566 37.6433 34.3176 37.9691C33.6849 38.2162 32.7333 38.5081 30.9814 38.5883C29.0871 38.6744 28.5182 38.693 23.7204 38.693C18.9224 38.693 18.3536 38.6744 16.4596 38.5883C14.7076 38.5074 13.7567 38.2147 13.1228 37.9687C12.2843 37.6429 11.6853 37.2537 11.0564 36.6248C10.4274 35.9959 10.0382 35.3985 9.71175 34.5595C9.46576 33.9268 9.17269 32.9759 9.09291 31.224C9.00684 29.3297 8.98959 28.7608 8.98959 23.9623C8.98959 19.1637 9.00684 18.5979 9.09291 16.7036C9.17305 14.9516 9.46576 14.0007 9.71175 13.3673C10.0375 12.5287 10.4274 11.9298 11.0565 11.3009C11.6856 10.672 12.2843 10.2826 13.1229 9.95634C13.7563 9.70927 14.7076 9.41727 16.4596 9.33677C18.1172 9.26184 18.7596 9.23938 22.1084 9.23561V9.2401ZM33.3121 12.2236C32.1217 12.2236 31.1558 13.1886 31.1558 14.3792C31.1558 15.5696 32.1217 16.5354 33.3121 16.5354C34.5025 16.5354 35.4683 15.5696 35.4683 14.3792C35.4683 13.1887 34.5025 12.2229 33.3121 12.2229V12.2236ZM23.7204 14.743C18.6244 14.743 14.4927 18.8748 14.4927 23.9709C14.4927 29.067 18.6244 33.1968 23.7204 33.1968C28.8165 33.1968 32.9468 29.067 32.9468 23.9709C32.9468 18.8749 28.8161 14.743 23.72 14.743H23.7204ZM23.7204 17.9812C27.0282 17.9812 29.7101 20.6627 29.7101 23.9709C29.7101 27.2788 27.0282 29.9606 23.7204 29.9606C20.4125 29.9606 17.7308 27.2788 17.7308 23.9709C17.7308 20.6627 20.4123 17.9812 23.7204 17.9812Z" fill="white"/>
</g>
<defs>
<radialGradient id="paint0_radial_240_2469" cx="0" cy="0" r="1" gradientUnits="userSpaceOnUse" gradientTransform="translate(12.9375 50.5136) rotate(-90) scale(45.5894 42.4018)">
<stop stop-color="#FFDD55"/>
<stop offset="0.1" stop-color="#FFDD55"/>
<stop offset="0.5" stop-color="#FF543E"/>
<stop offset="1" stop-color="#C837AB"/>
</radialGradient>
<radialGradient id="paint1_radial_240_2469" cx="0" cy="0" r="1" gradientUnits="userSpaceOnUse" gradientTransform="translate(-6.98643 4.28432) rotate(78.681) scale(20.3787 84.0017)">
<stop stop-color="#3771C8"/>
<stop offset="0.128" stop-color="#3771C8"/>
<stop offset="1" stop-color="#6600FF" stop-opacity="0"/>
</radialGradient>
<clipPath id="clip0_240_2469">
<rect width="46" height="46" fill="white" transform="translate(0.71875 0.970703)"/>
</clipPath>
</defs>
</svg>
