<svg width="39" height="39" viewBox="0 0 39 39" fill="none" xmlns="http://www.w3.org/2000/svg">
<g clip-path="url(#clip0_240_2445)">
<path d="M29.917 0.485352H9.72949C4.81071 0.485352 0.823242 4.47282 0.823242 9.3916V29.5791C0.823242 34.4979 4.81071 38.4854 9.72949 38.4854H29.917C34.8358 38.4854 38.8232 34.4979 38.8232 29.5791V9.3916C38.8232 4.47282 34.8358 0.485352 29.917 0.485352Z" fill="white"/>
<path d="M29.917 0.485352H9.72949C4.81071 0.485352 0.823242 4.47282 0.823242 9.3916V29.5791C0.823242 34.4979 4.81071 38.4854 9.72949 38.4854H29.917C34.8358 38.4854 38.8232 34.4979 38.8232 29.5791V9.3916C38.8232 4.47282 34.8358 0.485352 29.917 0.485352Z" fill="#0A66C2"/>
<path d="M28.2419 32.798H32.5866C32.7441 32.798 32.8951 32.7354 33.0064 32.6241C33.1178 32.5128 33.1804 32.3618 33.1804 32.2044L33.1826 23.0247C33.1826 18.2267 32.1487 14.5388 26.5418 14.5388C24.4104 14.4596 22.4004 15.5583 21.3158 17.393C21.3105 17.4019 21.3024 17.4088 21.2928 17.4127C21.2832 17.4166 21.2726 17.4172 21.2626 17.4145C21.2525 17.4118 21.2437 17.4059 21.2374 17.3977C21.231 17.3895 21.2275 17.3794 21.2275 17.3691V15.5755C21.2275 15.418 21.1649 15.267 21.0536 15.1557C20.9422 15.0443 20.7912 14.9818 20.6337 14.9818H16.5106C16.3531 14.9818 16.2021 15.0443 16.0907 15.1557C15.9794 15.267 15.9168 15.418 15.9168 15.5755V32.2035C15.9168 32.3609 15.9794 32.512 16.0907 32.6233C16.2021 32.7347 16.3531 32.7972 16.5106 32.7972H20.855C21.0125 32.7972 21.1635 32.7347 21.2749 32.6233C21.3862 32.512 21.4488 32.3609 21.4488 32.2035V23.984C21.4488 21.66 21.8896 19.4092 24.771 19.4092C27.6113 19.4092 27.6481 22.0686 27.6481 24.1346V32.2042C27.6481 32.3617 27.7107 32.5127 27.822 32.6241C27.9334 32.7354 28.0844 32.798 28.2419 32.798ZM6.46387 9.33638C6.46387 11.0974 7.91366 12.5465 9.67487 12.5465C11.4356 12.5463 12.8845 11.0964 12.8845 9.33564C12.8842 7.57488 11.4352 6.12598 9.67427 6.12598C7.91291 6.12598 6.46387 7.57532 6.46387 9.33638ZM7.49684 32.798H11.8471C12.0046 32.798 12.1556 32.7354 12.2669 32.6241C12.3783 32.5127 12.4409 32.3617 12.4409 32.2042V15.5755C12.4409 15.418 12.3783 15.267 12.2669 15.1557C12.1556 15.0443 12.0046 14.9818 11.8471 14.9818H7.49684C7.33937 14.9818 7.18835 15.0443 7.077 15.1557C6.96565 15.267 6.90309 15.418 6.90309 15.5755V32.2042C6.90309 32.3617 6.96565 32.5127 7.077 32.6241C7.18835 32.7354 7.33937 32.798 7.49684 32.798Z" fill="white"/>
</g>
<defs>
<clipPath id="clip0_240_2445">
<rect width="38" height="38" fill="white" transform="translate(0.823242 0.485352)"/>
</clipPath>
</defs>
</svg>
