<svg width="48" height="49" viewBox="0 0 48 49" fill="none" xmlns="http://www.w3.org/2000/svg">
<rect y="0.777832" width="22.2222" height="22.2222" rx="5.55556" fill="#355BA5"/>
<rect x="25.5547" y="26.3333" width="22.2222" height="22.2222" rx="5.55556" fill="#355BA5"/>
<path d="M42.2217 0.777832C45.2898 0.778023 47.7773 3.26537 47.7773 6.3335V17.4448C47.7771 20.5128 45.2896 23.0003 42.2217 23.0005H35.7305L34.9443 23.0552C26.9534 23.0552 22.7436 27.466 22.2227 33.2085V42.9995C22.2226 46.0676 19.7351 48.555 16.667 48.5552H5.55566C2.48743 48.5552 2.5429e-05 46.0677 0 42.9995V31.8882C9.03061e-05 28.8201 2.48656 26.3326 5.55469 26.3325H15.6064C20.8971 25.6422 25.035 22.9813 25.5547 16.5259V6.3335C25.5547 3.26525 28.0421 0.777832 31.1104 0.777832H42.2217Z" fill="#355BA5"/>
</svg>
