<svg width="96" height="64" viewBox="0 0 96 64" fill="none" xmlns="http://www.w3.org/2000/svg">
<path d="M19.1055 37.874C19.1055 39.676 18.7193 41.1503 17.9471 42.297C17.1982 43.4203 16.2387 44.2277 15.0686 44.7192C13.9219 45.1872 12.7049 45.4212 11.4178 45.4212C9.10096 45.4212 7.17026 44.8479 5.6257 43.7012C4.10455 42.531 3.34397 40.5886 3.34397 37.874V23.4815H6.92454V37.874C6.92454 39.8866 7.34578 41.3609 8.18827 42.297C9.05416 43.2097 10.2126 43.6661 11.6635 43.6661C13.1613 43.6661 14.425 43.198 15.4547 42.2619C16.5078 41.3024 17.0344 39.8398 17.0344 37.874V23.4815H19.1055V37.874ZM43.9199 45H40.0234L29.4221 27.027V45H27.3159V23.4815H31.1422L41.7786 41.4194V23.4815H43.8848V44.9649L43.9199 45ZM56.0534 45H52.4728V23.4815H56.0534V45ZM76.7162 23.4815V25.2718H71.0295V45H67.4489V25.2718H61.6919V23.4815H76.7162ZM94.8922 43.2097V45H82.3602V23.4815H94.2604V25.2718H85.9408V33.0999H93.5232V34.9604H85.9408V43.2097H94.8922Z" fill="black"/>
<path d="M6.32041 56.0319H4.5853L4.17286 57.3333H3.76041L5.16841 52.9741H6.03597L7.44397 57.3333H6.73997L6.32041 56.0319ZM6.20664 55.6835L5.45286 53.3155L4.69908 55.6835H6.20664ZM14.7143 52.8888C15.1599 52.8888 15.5036 52.9955 15.7454 53.2088C15.9872 53.4174 16.1365 53.7398 16.1934 54.1759L15.6032 54.2541C15.5795 53.9128 15.4894 53.6497 15.333 53.4648C15.1813 53.2799 14.975 53.1875 14.7143 53.1875C14.4346 53.1875 14.2189 53.2562 14.0672 53.3937C13.9202 53.5264 13.8467 53.7161 13.8467 53.9626C13.8467 54.1901 13.906 54.3632 14.0245 54.4817C14.1478 54.5955 14.3659 54.6927 14.6787 54.7733L15.0699 54.8728C15.4918 54.9913 15.7905 55.1478 15.9659 55.3421C16.1413 55.5365 16.229 55.8067 16.229 56.1528C16.229 56.5605 16.0962 56.8734 15.8307 57.0915C15.5653 57.3095 15.186 57.4186 14.693 57.4186C14.2236 57.4186 13.8633 57.3143 13.6121 57.1057C13.3656 56.8924 13.2162 56.5676 13.1641 56.1315L13.7401 56.0461C13.778 56.3875 13.8776 56.6506 14.0387 56.8355C14.1999 57.0204 14.418 57.1128 14.693 57.1128C15.3093 57.1128 15.6174 56.8521 15.6174 56.3306C15.6174 56.1741 15.5913 56.0485 15.5392 55.9537C15.487 55.8589 15.3993 55.7807 15.2761 55.719C15.1576 55.6527 14.9822 55.591 14.7499 55.5341L14.3872 55.4417C13.9653 55.3327 13.669 55.181 13.4983 54.9866C13.3324 54.7875 13.2494 54.5078 13.2494 54.1475C13.2494 53.735 13.3727 53.4221 13.6192 53.2088C13.8705 52.9955 14.2355 52.8888 14.7143 52.8888ZM20.5505 57.2124C20.2993 57.3498 20.0575 57.4186 19.8252 57.4186C19.5882 57.4186 19.4104 57.3759 19.2919 57.2906C19.1781 57.2005 19.107 57.0938 19.0785 56.9706C19.0501 56.8473 19.0359 56.6956 19.0359 56.5155V54.2826H18.4812V53.9199H19.0359V53.3653L19.7612 53.095V53.9199H20.4865V54.2826H19.7612V56.6008C19.7612 56.7573 19.7802 56.8663 19.8181 56.9279C19.8607 56.9848 19.9295 57.0133 20.0243 57.0133C20.157 57.0133 20.3016 56.9706 20.4581 56.8853L20.5505 57.2124ZM23.642 57.4186C23.3528 57.4186 23.1229 57.3404 22.9522 57.1839C22.7863 57.0227 22.7033 56.8047 22.7033 56.5297C22.7033 56.2358 22.8076 56.0058 23.0162 55.8399C23.2295 55.6693 23.5519 55.546 23.9833 55.4701L24.7726 55.3421V54.9937C24.7726 54.458 24.5688 54.1901 24.1611 54.1901C23.9193 54.1901 23.7439 54.2589 23.6349 54.3964C23.5258 54.5338 23.4642 54.7448 23.45 55.0293L22.8526 54.9653C22.8811 54.5907 22.9949 54.3087 23.194 54.119C23.3931 53.9294 23.7202 53.8346 24.1753 53.8346C24.6162 53.8346 24.9457 53.9341 25.1637 54.1333C25.3818 54.3276 25.4909 54.6239 25.4909 55.0221V57.3333H25.0357L24.8153 56.8355C24.6683 57.0251 24.4929 57.1697 24.2891 57.2693C24.0852 57.3688 23.8695 57.4186 23.642 57.4186ZM23.898 57.0417C24.0592 57.0417 24.218 56.9943 24.3744 56.8995C24.5356 56.8047 24.6683 56.6933 24.7726 56.5653V55.6337L24.0757 55.7688C23.8387 55.821 23.6586 55.9039 23.5353 56.0177C23.4168 56.1315 23.3575 56.2855 23.3575 56.4799C23.3575 56.6506 23.4049 56.7881 23.4997 56.8924C23.5993 56.9919 23.732 57.0417 23.898 57.0417ZM30.033 57.2124C29.7818 57.3498 29.54 57.4186 29.3077 57.4186C29.0707 57.4186 28.8929 57.3759 28.7744 57.2906C28.6606 57.2005 28.5895 57.0938 28.561 56.9706C28.5326 56.8473 28.5184 56.6956 28.5184 56.5155V54.2826H27.9637V53.9199H28.5184V53.3653L29.2437 53.095V53.9199H29.969V54.2826H29.2437V56.6008C29.2437 56.7573 29.2627 56.8663 29.3006 56.9279C29.3432 56.9848 29.412 57.0133 29.5068 57.0133C29.6395 57.0133 29.7841 56.9706 29.9406 56.8853L30.033 57.2124ZM35.2151 57.3333H34.4969V54.2826H33.2311V57.3333H32.5129V54.2826H31.9582V53.9199H32.5129V53.8773C32.5129 53.4601 32.6314 53.1495 32.8685 52.9457C33.1102 52.7418 33.4421 52.6399 33.864 52.6399C34.0963 52.6399 34.3144 52.6778 34.5182 52.7537C34.7221 52.8295 34.9022 52.922 35.0587 53.031L34.8027 53.543C34.5657 53.2207 34.2528 53.0595 33.864 53.0595C33.6839 53.0595 33.5322 53.1235 33.4089 53.2515C33.2904 53.3747 33.2311 53.5549 33.2311 53.7919V53.9199H35.2151V57.3333ZM39.9914 53.8346C40.7215 53.8346 41.0865 54.1973 41.0865 54.9226V57.3333H40.3683V54.9795C40.3683 54.7235 40.3233 54.5362 40.2332 54.4177C40.1431 54.2944 40.0009 54.2328 39.8065 54.2328C39.5173 54.2328 39.2329 54.3418 38.9532 54.5599V57.3333H38.235V53.9199H38.5479L38.8323 54.2755C39.003 54.1427 39.1902 54.0361 39.3941 53.9555C39.6027 53.8749 39.8018 53.8346 39.9914 53.8346ZM44.3839 53.4719C44.2606 53.4719 44.1563 53.4293 44.071 53.3439C43.9856 53.2538 43.943 53.1495 43.943 53.031C43.943 52.9078 43.9856 52.8035 44.071 52.7181C44.1563 52.6281 44.2606 52.583 44.3839 52.583C44.5071 52.583 44.6114 52.6281 44.6967 52.7181C44.7868 52.8035 44.8319 52.9078 44.8319 53.031C44.8319 53.1495 44.7868 53.2538 44.6967 53.3439C44.6067 53.4293 44.5024 53.4719 44.3839 53.4719ZM44.7252 57.3333H44.0212V53.9199H44.7252V57.3333ZM49.3452 57.2124C49.094 57.3498 48.8522 57.4186 48.6199 57.4186C48.3829 57.4186 48.2051 57.3759 48.0866 57.2906C47.9728 57.2005 47.9017 57.0938 47.8732 56.9706C47.8448 56.8473 47.8306 56.6956 47.8306 56.5155V54.2826H47.2759V53.9199H47.8306V53.3653L48.5559 53.095V53.9199H49.2812V54.2826H48.5559V56.6008C48.5559 56.7573 48.5749 56.8663 48.6128 56.9279C48.6555 56.9848 48.7242 57.0133 48.819 57.0133C48.9518 57.0133 49.0964 56.9706 49.2528 56.8853L49.3452 57.2124ZM54.378 53.9199L52.6358 58.7768L52.0527 58.6915L52.714 57.4684L51.2349 53.9199H51.9531L53.0411 56.615L53.9656 53.9199H54.378ZM61.8256 52.9741C62.3281 52.9741 62.6837 53.1045 62.8922 53.3653C63.1008 53.6213 63.2051 53.9555 63.2051 54.3679C63.2051 54.7804 63.1008 55.1146 62.8922 55.3706C62.6837 55.6266 62.3281 55.7546 61.8256 55.7546H61.1145V57.3333H60.3891V52.9741H61.8256ZM61.726 55.4986C61.9868 55.4986 62.1764 55.399 62.2949 55.1999C62.4182 55.0008 62.4798 54.7235 62.4798 54.3679C62.4798 54.0171 62.4182 53.7421 62.2949 53.543C62.1764 53.3439 61.9868 53.2444 61.726 53.2444H61.1145V55.4986H61.726ZM66.4478 54.567C66.5568 54.3632 66.7085 54.1996 66.9029 54.0764C67.102 53.9531 67.3391 53.8915 67.614 53.8915V54.4177C66.8839 54.4177 66.5189 54.7021 66.5189 55.271H66.5118V57.3333H65.7936V53.9199H66.1065L66.4478 54.567ZM71.3391 57.4186C70.7655 57.4186 70.3649 57.255 70.1374 56.9279C69.9145 56.5961 69.8031 56.1623 69.8031 55.6266C69.8031 55.0861 69.9145 54.6524 70.1374 54.3253C70.3649 53.9981 70.7655 53.8346 71.3391 53.8346C71.908 53.8346 72.3063 54.0005 72.5338 54.3324C72.7614 54.6595 72.8751 55.0909 72.8751 55.6266C72.8751 56.8213 72.3631 57.4186 71.3391 57.4186ZM71.3391 57.063C71.652 57.063 71.8654 56.9374 71.9791 56.6861C72.0977 56.4349 72.1569 56.0817 72.1569 55.6266C72.1569 55.1667 72.1 54.8135 71.9863 54.567C71.8725 54.3158 71.6568 54.1901 71.3391 54.1901C71.0215 54.1901 70.8058 54.3134 70.692 54.5599C70.5783 54.8064 70.5214 55.162 70.5214 55.6266C70.5214 56.0864 70.5783 56.442 70.692 56.6933C70.8058 56.9398 71.0215 57.063 71.3391 57.063ZM78.2969 52.7324V57.3333H77.8631L77.6569 56.9493C77.3962 57.2621 77.0643 57.4186 76.6614 57.4186C75.8033 57.4186 75.3742 56.8307 75.3742 55.655C75.3742 54.4414 75.8317 53.8346 76.7467 53.8346C77.0359 53.8346 77.3132 53.9199 77.5787 54.0906V52.8248L78.2969 52.7324ZM76.8605 57.063C77.1449 57.063 77.3843 56.9303 77.5787 56.6648V54.4533C77.3748 54.3015 77.1544 54.2257 76.9174 54.2257C76.6471 54.2257 76.4409 54.3466 76.2987 54.5884C76.1612 54.8301 76.0925 55.1857 76.0925 55.655C76.0925 56.1196 76.1565 56.4704 76.2845 56.7075C76.4172 56.9445 76.6092 57.063 76.8605 57.063ZM84.0932 53.9199V57.3333H83.6239L83.4248 56.9066C83.1072 57.2479 82.735 57.4186 82.3084 57.4186C81.9386 57.4186 81.666 57.3238 81.4906 57.1341C81.3152 56.9398 81.2275 56.6672 81.2275 56.3164V53.9199H81.9457V56.2453C81.9457 56.7762 82.1543 57.0417 82.5715 57.0417C82.8796 57.0417 83.1475 56.8924 83.375 56.5937V53.9199H84.0932ZM87.5611 55.6266C87.5611 56.1007 87.6132 56.4586 87.7175 56.7004C87.8266 56.9421 88.028 57.063 88.322 57.063C88.5637 57.063 88.7368 56.9895 88.8411 56.8426C88.9501 56.6956 89.0094 56.4728 89.0189 56.1741L89.6304 56.1955C89.602 56.5937 89.4882 56.8971 89.2891 57.1057C89.09 57.3143 88.7629 57.4186 88.3077 57.4186C87.7483 57.4186 87.3643 57.2574 87.1557 56.935C86.9472 56.6079 86.8429 56.1718 86.8429 55.6266C86.8429 55.0767 86.9472 54.6405 87.1557 54.3181C87.3643 53.9958 87.7483 53.8346 88.3077 53.8346C88.7629 53.8346 89.0876 53.9341 89.282 54.1333C89.4811 54.3276 89.5949 54.6144 89.6233 54.9937L89.0189 55.0719C89.0094 54.7733 88.9501 54.5528 88.8411 54.4106C88.7368 54.2636 88.5637 54.1901 88.322 54.1901C88.028 54.1901 87.8266 54.311 87.7175 54.5528C87.6132 54.7898 87.5611 55.1478 87.5611 55.6266ZM93.9922 57.2124C93.7409 57.3498 93.4992 57.4186 93.2669 57.4186C93.0298 57.4186 92.852 57.3759 92.7335 57.2906C92.6197 57.2005 92.5486 57.0938 92.5202 56.9706C92.4917 56.8473 92.4775 56.6956 92.4775 56.5155V54.2826H91.9229V53.9199H92.4775V53.3653L93.2029 53.095V53.9199H93.9282V54.2826H93.2029V56.6008C93.2029 56.7573 93.2218 56.8663 93.2597 56.9279C93.3024 56.9848 93.3712 57.0133 93.466 57.0133C93.5987 57.0133 93.7433 56.9706 93.8997 56.8853L93.9922 57.2124Z" fill="#355BA5"/>
</svg>
