<svg width="150" height="65" viewBox="0 0 150 65" fill="none" xmlns="http://www.w3.org/2000/svg">
<g clip-path="url(#clip0_758_776)">
<path d="M124.145 38.5557C123.523 38.568 122.907 38.4181 122.353 38.119C121.845 37.8458 121.419 37.4285 121.123 36.9139C120.833 36.3829 120.68 35.7804 120.68 35.1672C120.68 34.5541 120.833 33.9517 121.123 33.4206C121.425 32.9132 121.85 32.4994 122.353 32.2212C122.907 31.9222 123.523 31.7723 124.145 31.7846C124.743 31.7688 125.334 31.9173 125.861 32.2155C126.335 32.488 126.71 32.9205 126.925 33.4439L125.535 34.2532C125.39 33.9722 125.177 33.737 124.917 33.572C124.677 33.4295 124.405 33.3553 124.129 33.3566C123.842 33.3552 123.56 33.4293 123.307 33.572C123.062 33.7183 122.858 33.9314 122.717 34.1891C122.564 34.4894 122.488 34.8265 122.496 35.1672C122.489 35.5098 122.565 35.8486 122.717 36.1512C122.855 36.413 123.059 36.6288 123.307 36.7741C123.559 36.92 123.842 36.9942 124.129 36.9895C124.405 36.9936 124.677 36.9191 124.917 36.7741C125.179 36.6095 125.393 36.3719 125.535 36.0871L126.925 36.8906C126.708 37.4113 126.334 37.8414 125.861 38.1132C125.336 38.418 124.744 38.5706 124.145 38.5557Z" fill="#6E9AEF"/>
<path d="M130.847 38.5565C130.236 38.5691 129.632 38.4169 129.093 38.114C128.595 37.837 128.177 37.4225 127.885 36.9147C127.595 36.3836 127.441 35.7813 127.441 35.1681C127.441 34.5549 127.595 33.9524 127.885 33.4214C128.176 32.9123 128.594 32.4974 129.093 32.222C129.634 31.9256 130.237 31.7775 130.847 31.7912C131.463 31.7771 132.074 31.9251 132.622 32.222C133.123 32.4973 133.543 32.9121 133.836 33.4214C134.133 33.9492 134.286 34.5539 134.277 35.1681C134.289 35.7825 134.136 36.388 133.836 36.9147C133.541 37.4227 133.122 37.8371 132.622 38.114C132.075 38.4176 131.465 38.5698 130.847 38.5565ZM130.847 36.9903C131.132 36.9982 131.414 36.9237 131.663 36.7749C131.9 36.6253 132.091 36.4071 132.214 36.1462C132.364 35.8449 132.438 35.5081 132.429 35.1681C132.439 34.8279 132.365 34.4907 132.214 34.1899C132.086 33.9358 131.895 33.7226 131.663 33.5728C131.419 33.4281 131.143 33.3538 130.863 33.3574C130.58 33.3547 130.301 33.4289 130.052 33.5728C129.817 33.72 129.627 33.9338 129.501 34.1899C129.35 34.4907 129.276 34.8279 129.286 35.1681C129.277 35.5081 129.351 35.8449 129.501 36.1462C129.622 36.4088 129.814 36.6276 130.052 36.7749C130.294 36.9207 130.568 36.9951 130.847 36.9903Z" fill="#6E9AEF"/>
<path d="M143.461 31.7842C143.917 31.7733 144.37 31.8792 144.779 32.0928C145.164 32.3051 145.476 32.6389 145.672 33.0476C145.908 33.5579 146.02 34.1222 145.998 34.6895V38.4564H144.194V34.9631C144.222 34.5489 144.113 34.1374 143.886 33.7987C143.777 33.6731 143.643 33.5742 143.495 33.5088C143.346 33.4434 143.186 33.4132 143.025 33.4203C142.772 33.4154 142.523 33.4817 142.302 33.6124C142.085 33.7432 141.915 33.9485 141.823 34.1946C141.702 34.5025 141.646 34.8341 141.657 35.1669V38.468H139.848V34.9748C139.88 34.5602 139.77 34.1473 139.539 33.8103C139.428 33.6817 139.292 33.5809 139.139 33.5154C138.986 33.4499 138.822 33.4214 138.657 33.4319C138.409 33.4276 138.165 33.494 137.951 33.624C137.734 33.7577 137.564 33.962 137.466 34.2062C137.338 34.5122 137.278 34.8445 137.289 35.1786V38.4796H135.48V31.9007H137.207V33.688L136.887 33.1757C137.08 32.7414 137.399 32.3828 137.797 32.151C138.214 31.9156 138.681 31.7974 139.154 31.8075C139.687 31.7955 140.212 31.9538 140.659 32.2616C141.107 32.5939 141.416 33.097 141.519 33.6648L140.88 33.4785C141.087 32.975 141.435 32.5505 141.878 32.2616C142.351 31.9442 142.9 31.7783 143.461 31.7842Z" fill="#6E9AEF"/>
<path d="M116.988 37.8524C117.817 37.8524 118.489 37.1434 118.489 36.2688C118.489 35.3942 117.817 34.6852 116.988 34.6852C116.16 34.6852 115.488 35.3942 115.488 36.2688C115.488 37.1434 116.16 37.8524 116.988 37.8524Z" fill="#6E9AEF"/>
<path d="M4.01102 27.7773H7.08295C8.84228 27.7773 9.80742 28.802 9.80742 30.4846C9.80742 31.8295 9.19525 32.4874 8.63822 32.7087C9.34967 33.0172 10.0997 33.71 10.0997 35.3169C10.0997 37.343 8.84779 38.4551 7.04434 38.4551H4L4.01102 27.7773ZM6.65828 32.0391C7.78889 32.0391 8.08119 31.5791 8.08119 30.6593C8.08119 29.7394 7.61241 29.2911 6.72447 29.2911H5.7869V32.0391H6.65828ZM5.7869 36.9646H6.88992C7.7944 36.9646 8.31834 36.4755 8.31834 35.2762C8.31834 34.1758 7.88264 33.5296 6.69138 33.5296H5.80896L5.7869 36.9646Z" fill="#6E9AEF"/>
<path d="M16.9221 38.6123C16.1517 38.6208 15.3866 38.4766 14.6664 38.1873C13.9984 37.9159 13.3875 37.5084 12.8685 36.988C12.3604 36.4761 11.9568 35.8599 11.6828 35.1773C11.124 33.731 11.124 32.1113 11.6828 30.6651C11.9555 29.9834 12.3593 29.3689 12.8685 28.8603C13.3896 28.3543 13.9982 27.959 14.661 27.6959C16.1131 27.1294 17.7091 27.1294 19.1613 27.6959C19.8263 27.9541 20.4357 28.3499 20.9537 28.8603C21.4573 29.3715 21.857 29.9856 22.1284 30.6651C22.4087 31.3872 22.5493 32.1613 22.5421 32.9416C22.5504 33.7183 22.4097 34.4887 22.1284 35.2064C21.8548 35.8941 21.4502 36.5151 20.9399 37.0309C20.4294 37.5467 19.8241 37.9463 19.1613 38.2047C18.4453 38.4859 17.686 38.6241 16.9221 38.6123ZM16.9221 36.8133C17.4205 36.8199 17.9152 36.7229 18.3781 36.528C18.8136 36.3495 19.2083 36.0756 19.5363 35.7245C19.869 35.3716 20.1315 34.9519 20.3084 34.4902C20.6724 33.4835 20.6724 32.3705 20.3084 31.3638C20.1375 30.902 19.8763 30.4834 19.5418 30.1353C19.2066 29.7866 18.8092 29.5115 18.3726 29.3261C17.9086 29.1358 17.4144 29.0409 16.9167 29.0466C16.4118 29.0421 15.9105 29.1368 15.4386 29.3261C14.9995 29.5093 14.6014 29.7869 14.2694 30.1412C13.9374 30.496 13.6734 30.9151 13.4917 31.3755C13.2948 31.8669 13.1971 32.3964 13.2049 32.93C13.1961 33.9716 13.5789 34.9745 14.2694 35.7188C14.6 36.0733 14.9987 36.3492 15.4386 36.528C15.9112 36.7227 16.4149 36.8195 16.9221 36.8133Z" fill="#6E9AEF"/>
<path d="M25.8839 33.9022V38.4551H24.0859V27.7773H27.1799C29.022 27.7773 30.0643 28.7846 30.0643 30.6884C30.0643 32.2312 29.2812 32.9008 28.7517 33.1221C29.5348 33.5063 29.9044 34.2107 29.9044 35.7886V36.2135C29.8865 36.9616 29.9327 37.7099 30.0422 38.4492H28.2884C28.1397 37.7091 28.0823 36.9518 28.1175 36.1961V35.806C28.1175 34.3796 27.8031 33.8963 26.6615 33.8963L25.8839 33.9022ZM25.8839 32.3535H26.7332C27.8362 32.3535 28.2554 31.8586 28.2554 30.7757C28.2833 30.5816 28.2682 30.3833 28.2113 30.1964C28.1543 30.0096 28.057 29.8391 27.9271 29.6986C27.7972 29.5581 27.6383 29.4514 27.4627 29.3867C27.2871 29.322 27.0996 29.3013 26.9152 29.326H25.8839V32.3535Z" fill="#6E9AEF"/>
<path d="M33.2579 27.7773V38.4551H31.4434V27.7773H33.2579Z" fill="#6E9AEF"/>
<path d="M35.0488 38.4552V29C35.0488 28.8395 35.0788 28.6805 35.137 28.5322C35.1952 28.3838 35.2805 28.249 35.3881 28.1355C35.4956 28.022 35.6233 27.9319 35.7638 27.8705C35.9043 27.809 36.0549 27.7774 36.207 27.7774H36.3118C36.551 27.7746 36.7853 27.8496 36.9826 27.9923C37.18 28.135 37.3309 28.3385 37.4148 28.575C39.2624 33.78 39.6208 34.828 39.7477 35.3287C39.6595 34.042 39.654 32.47 39.654 30.7234V27.7774H41.2754V37.2325C41.2754 37.5568 41.1534 37.8678 40.9362 38.097C40.719 38.3263 40.4244 38.4552 40.1172 38.4552C39.8767 38.4571 39.6414 38.3804 39.4439 38.2355C39.2464 38.0906 39.0963 37.8845 39.0142 37.6458C37.0949 32.0625 36.742 31.0087 36.6151 30.5371C36.6923 31.8529 36.6923 33.4482 36.6923 35.3403V38.4552H35.0488Z" fill="#6E9AEF"/>
<path d="M48.9979 38.4552H47.6192C47.5726 38.1546 47.5431 37.8513 47.531 37.547C47.3329 37.9152 47.0377 38.2149 46.6813 38.4092C46.3249 38.6035 45.9226 38.6843 45.5234 38.6415C43.4111 38.6415 42.6445 36.6503 42.6445 33.1804C42.6445 29.2854 43.8909 27.6028 46.0639 27.6028C48.8215 27.6028 48.9594 30.083 48.9869 30.7176H47.1945C47.167 30.2868 47.0787 29.2213 46.0088 29.2213C44.8396 29.2213 44.5142 30.8632 44.5142 33.1804C44.5142 35.6664 44.7955 37.0346 45.9481 37.0346C46.9077 37.0346 47.2 36.2602 47.2 34.7058V34.1236H45.8378V32.4875H48.9979V38.4552Z" fill="#6E9AEF"/>
<path d="M56.8686 34.4844C56.8686 32.6621 56.9017 30.5778 56.9292 29.3668H56.8907C56.5377 31.3929 55.9807 34.9968 55.3188 38.4551H53.6643C53.1735 35.2354 52.5944 31.3987 52.269 29.3377H52.2138C52.269 30.5836 52.3186 32.8309 52.3186 34.6649V38.4551H50.6641V29.3085C50.6641 29.107 50.7018 28.9074 50.775 28.7212C50.8483 28.5351 50.9556 28.366 51.0909 28.2237C51.2262 28.0815 51.3867 27.9688 51.5633 27.8922C51.7399 27.8156 51.9291 27.7766 52.1201 27.7774H52.1642C52.5042 27.777 52.8334 27.9028 53.0945 28.1326C53.3556 28.3625 53.5319 28.6818 53.5926 29.0349C54.0283 31.5501 54.3978 33.9313 54.5688 35.2646C54.7453 34.0245 55.2361 31.486 55.7049 29.0058C55.7712 28.6591 55.9491 28.3472 56.2085 28.1233C56.4679 27.8993 56.7927 27.7771 57.1278 27.7774C57.3185 27.7766 57.5074 27.8156 57.6837 27.8923C57.86 27.969 58.0203 28.0818 58.155 28.2241C58.2899 28.3664 58.3967 28.5355 58.4693 28.7217C58.542 28.9078 58.5794 29.1072 58.5783 29.3085V38.4551H56.841L56.8686 34.4844Z" fill="#6E9AEF"/>
<path d="M61.8692 35.7653L61.3673 38.4551H59.5527L61.6264 28.9883C61.7028 28.6439 61.8865 28.3368 62.1488 28.1169C62.4117 27.897 62.7364 27.7773 63.0713 27.7774C63.4052 27.7763 63.7298 27.8949 63.991 28.1139C64.2528 28.3328 64.436 28.6391 64.5108 28.9825L66.6121 38.4551H64.7151L64.2078 35.7653H61.8692ZM63.8881 34.106C63.5071 32.0624 63.2095 30.5719 63.0496 29.5473H63.0052C62.8843 30.5312 62.5586 32.1381 62.1889 34.106H63.8881Z" fill="#6E9AEF"/>
<path d="M69.2763 33.9005V38.4534H67.4785V27.7756H70.5722C72.4144 27.7756 73.4566 28.7829 73.4566 30.6867C73.4566 32.2295 72.6734 32.899 72.1439 33.1203C72.9271 33.5046 73.2967 34.209 73.2967 35.7868V36.2119C73.2788 36.9599 73.3249 37.7082 73.4349 38.4475H71.6811C71.5347 37.707 71.4773 36.95 71.5098 36.1944V35.8043C71.5098 34.3779 71.2009 33.8946 70.054 33.8946L69.2763 33.9005ZM69.2763 32.3518H70.1256C71.2285 32.3518 71.648 31.8569 71.648 30.774C71.6756 30.5799 71.6605 30.3816 71.6036 30.1947C71.5467 30.0078 71.4496 29.8374 71.3196 29.6969C71.1895 29.5564 71.0307 29.4497 70.8551 29.385C70.6795 29.3203 70.492 29.2996 70.3077 29.3243H69.2763V32.3518Z" fill="#6E9AEF"/>
<path d="M74.8359 27.7773H76.6229V32.5631C77.1746 31.5908 78.4819 29.1572 79.2927 27.7773H81.3826L78.7794 31.946L81.4379 38.4551H79.4249L77.5442 33.5471L76.6288 34.8978V38.4551H74.8419L74.8359 27.7773Z" fill="#6E9AEF"/>
<path d="M87.1561 33.7101H83.908V36.8074H87.5534V38.4551H82.1211V27.7773H87.3106V29.4483H83.908V32.0507H87.1561V33.7101Z" fill="#6E9AEF"/>
<path d="M90.3163 29.4483H88.1543V27.7773H94.2928V29.4483H92.1308V38.4551H90.3163V29.4483Z" fill="#6E9AEF"/>
<path d="M97.1017 27.7773V38.4551H95.2871V27.7773H97.1017Z" fill="#6E9AEF"/>
<path d="M98.8867 38.4551V29.0524C98.8867 28.8845 98.9182 28.7182 98.9789 28.5631C99.0401 28.408 99.1295 28.2672 99.2423 28.1487C99.355 28.0303 99.4889 27.9365 99.6363 27.8727C99.7832 27.809 99.9409 27.7766 100.1 27.7774C100.348 27.7784 100.591 27.8591 100.795 28.0088C100.998 28.1585 101.154 28.3702 101.242 28.6157C103.078 33.7858 103.448 34.8279 103.558 35.3286C103.475 34.0419 103.47 32.47 103.47 30.7233V27.7774H105.085V37.2324C105.085 37.5567 104.963 37.8677 104.747 38.097C104.529 38.3263 104.234 38.4551 103.928 38.4551C103.687 38.4563 103.452 38.3792 103.255 38.2344C103.057 38.0896 102.907 37.884 102.824 37.6458C100.91 32.0624 100.552 31.0086 100.431 30.537C100.508 31.8528 100.508 33.4481 100.508 35.3403V38.4551H98.8867Z" fill="#6E9AEF"/>
<path d="M112.863 38.4552H111.479C111.437 38.1541 111.409 37.851 111.396 37.547C111.197 37.9152 110.901 38.2146 110.543 38.4089C110.186 38.6031 109.783 38.6839 109.383 38.6415C107.271 38.6415 106.51 36.6503 106.51 33.1804C106.51 29.2854 107.756 27.6028 109.929 27.6028C112.687 27.6028 112.82 30.083 112.853 30.7176H111.06C111.06 30.2868 110.944 29.2213 109.874 29.2213C108.705 29.2213 108.38 30.8632 108.38 33.1804C108.38 35.6664 108.655 37.0346 109.814 37.0346C110.773 37.0346 111.06 36.2602 111.06 34.7058V34.1236H109.698V32.4875H112.863V38.4552Z" fill="#6E9AEF"/>
</g>
<defs>
<clipPath id="clip0_758_776">
<rect width="142" height="11.9237" fill="white" transform="translate(4 27)"/>
</clipPath>
</defs>
</svg>
