<svg width="150" height="65" viewBox="0 0 150 65" fill="none" xmlns="http://www.w3.org/2000/svg">
<mask id="mask0_814_6168" style="mask-type:luminance" maskUnits="userSpaceOnUse" x="4" y="23" width="142" height="21">
<path d="M146 23H4V43.9619H146V23Z" fill="white"/>
</mask>
<g mask="url(#mask0_814_6168)">
<path d="M35.8857 37.1695V29.4951H37.8387C38.3458 29.4951 38.8265 29.595 39.2807 29.7947C39.7348 29.9868 40.136 30.2595 40.4841 30.6129C40.8248 30.9739 41.0898 31.3888 41.279 31.8574C41.4758 32.3183 41.5741 32.81 41.5741 33.3323C41.5741 33.8547 41.4758 34.3502 41.279 34.8187C41.0898 35.2797 40.8248 35.6868 40.4841 36.0402C40.136 36.4013 39.7348 36.6817 39.2807 36.8814C38.8265 37.0735 38.3458 37.1695 37.8387 37.1695H35.8857ZM36.9076 30.5322V36.1324H37.8387C38.202 36.1324 38.5502 36.0594 38.8833 35.9135C39.2239 35.7675 39.5191 35.5678 39.7689 35.3143C40.0187 35.0531 40.2116 34.7535 40.3479 34.4155C40.4917 34.0698 40.5636 33.7087 40.5636 33.3323C40.5636 32.9559 40.4917 32.5987 40.3479 32.2607C40.2116 31.9149 40.0187 31.6115 39.7689 31.3503C39.5191 31.0968 39.2239 30.8971 38.8833 30.7511C38.5502 30.6052 38.202 30.5322 37.8387 30.5322H36.9076Z" fill="#6E9AEF"/>
<path d="M46.001 37.1697V29.5068H46.9548V37.1697H46.001Z" fill="#6E9AEF"/>
<path d="M57.4306 36.4324C57.2566 36.563 57.0825 36.6745 56.9083 36.7666C56.3558 37.0663 55.7692 37.216 55.1485 37.216C54.7624 37.216 54.3915 37.1584 54.0358 37.0432C53.5665 36.9049 53.1388 36.6745 52.7528 36.3518C52.3667 36.0292 52.0526 35.6374 51.8103 35.1765C51.5227 34.6464 51.3789 34.0586 51.3789 33.4134C51.3789 33.2136 51.3865 33.06 51.4016 32.9525C51.447 32.53 51.553 32.1305 51.7195 31.7541C51.8936 31.37 52.1169 31.032 52.3894 30.7401C52.6619 30.4481 52.9723 30.2022 53.3205 30.0026C53.6762 29.8028 54.0548 29.6645 54.4559 29.5877C54.683 29.5417 54.9176 29.5186 55.1598 29.5186C55.7881 29.5186 56.386 29.6799 56.9538 30.0026C57.3777 30.2561 57.7599 30.5825 58.1006 30.982L57.3171 31.6503C56.9463 31.2356 56.5564 30.9398 56.1476 30.763C55.807 30.6325 55.4626 30.5672 55.1145 30.5672C54.6679 30.5672 54.2439 30.6748 53.8428 30.8898C53.3432 31.1587 52.9571 31.5736 52.6846 32.1344C52.4878 32.5184 52.3894 32.9294 52.3894 33.3673C52.3894 33.6131 52.4235 33.859 52.4916 34.1048C52.6354 34.704 52.9609 35.1994 53.4681 35.5912C53.7027 35.7756 53.9639 35.9177 54.2515 36.0176C54.5391 36.1175 54.8344 36.1674 55.1372 36.1674C55.5383 36.1674 55.913 36.0867 56.2612 35.9255C56.6169 35.7565 56.931 35.5221 57.2036 35.2225V34.4504H56.159V33.4134H58.2141V35.6028C57.9794 35.9408 57.7183 36.2174 57.4306 36.4324Z" fill="#6E9AEF"/>
<path d="M62.7588 37.1697V29.5068H63.7125V37.1697H62.7588Z" fill="#6E9AEF"/>
<path d="M70.9635 30.4864V37.1697H69.9644V30.4864H68.1367V29.5068H72.7912V30.4864H70.9635Z" fill="#6E9AEF"/>
<path d="M81.2801 37.17L80.3486 34.4735H77.9876L77.0561 37.17H75.9775L78.6004 29.5186H79.7364L82.3587 37.17H81.2801ZM79.1684 31.005L78.3051 33.5056H80.0198L79.1684 31.005Z" fill="#6E9AEF"/>
<path d="M86.7832 37.1697V29.5068H87.7595V36.1326H90.0303V37.1697H86.7832Z" fill="#6E9AEF"/>
<path d="M107.005 31.8687C106.967 31.5691 106.887 31.3233 106.766 31.1312C106.63 30.9238 106.46 30.774 106.256 30.6818C106.059 30.5819 105.805 30.532 105.495 30.532C104.98 30.532 104.621 30.6434 104.416 30.8662C104.219 31.066 104.121 31.354 104.121 31.7305C104.121 31.9455 104.152 32.1223 104.212 32.2605C104.272 32.3911 104.363 32.4987 104.484 32.5832C104.666 32.7137 104.964 32.7982 105.381 32.8366C105.805 32.8751 106.16 32.9365 106.448 33.021C106.744 33.0978 107.001 33.2054 107.221 33.3437C107.773 33.6971 108.049 34.2501 108.049 35.003C108.049 35.2949 107.993 35.5715 107.879 35.8326C107.765 36.0938 107.606 36.3282 107.402 36.5356C107.159 36.7737 106.872 36.9504 106.54 37.0656C106.213 37.1809 105.873 37.2384 105.517 37.2384C104.715 37.2384 104.075 37.008 103.599 36.5471C103.19 36.1323 102.944 35.5791 102.86 34.8878L102.883 34.8762H103.882C103.943 35.2834 104.079 35.5869 104.291 35.7866C104.586 36.0631 104.984 36.2014 105.483 36.2014C105.96 36.2014 106.339 36.09 106.619 35.8672C106.899 35.6444 107.039 35.3564 107.039 35.003C107.039 34.8417 107.016 34.7034 106.971 34.5881C106.932 34.4653 106.857 34.3577 106.744 34.2655C106.487 34.0658 106.006 33.939 105.301 33.8853C104.583 33.8238 104.038 33.6126 103.666 33.2515C103.296 32.8905 103.11 32.3834 103.11 31.7305C103.11 31.0698 103.311 30.5359 103.712 30.1287C104.136 29.6985 104.727 29.4834 105.483 29.4834C106.27 29.4834 106.884 29.7254 107.322 30.2094C107.709 30.6319 107.943 31.185 108.027 31.8687H107.005Z" fill="#6E9AEF"/>
<path d="M112.482 37.1697V29.5068H113.435V37.1697H112.482Z" fill="#6E9AEF"/>
<path d="M122 31.8687C121.963 31.5691 121.883 31.3233 121.762 31.1312C121.626 30.9238 121.456 30.774 121.251 30.6818C121.054 30.5819 120.801 30.532 120.491 30.532C119.976 30.532 119.616 30.6434 119.412 30.8662C119.215 31.066 119.116 31.354 119.116 31.7305C119.116 31.9455 119.147 32.1223 119.208 32.2605C119.268 32.3911 119.358 32.4987 119.48 32.5832C119.662 32.7137 119.961 32.7982 120.377 32.8366C120.801 32.8751 121.157 32.9365 121.444 33.021C121.74 33.0978 121.997 33.2054 122.216 33.3437C122.769 33.6971 123.045 34.2501 123.045 35.003C123.045 35.2949 122.989 35.5715 122.875 35.8326C122.761 36.0938 122.602 36.3282 122.398 36.5356C122.156 36.7737 121.868 36.9504 121.535 37.0656C121.21 37.1809 120.869 37.2384 120.513 37.2384C119.711 37.2384 119.071 37.008 118.594 36.5471C118.186 36.1323 117.94 35.5791 117.856 34.8878L117.879 34.8762H118.878C118.939 35.2834 119.075 35.5869 119.287 35.7866C119.582 36.0631 119.98 36.2014 120.479 36.2014C120.956 36.2014 121.334 36.09 121.614 35.8672C121.894 35.6444 122.034 35.3564 122.034 35.003C122.034 34.8417 122.012 34.7034 121.966 34.5881C121.928 34.4653 121.853 34.3577 121.74 34.2655C121.482 34.0658 121.001 33.939 120.298 33.8853C119.579 33.8238 119.033 33.6126 118.662 33.2515C118.291 32.8905 118.106 32.3834 118.106 31.7305C118.106 31.0698 118.306 30.5359 118.708 30.1287C119.132 29.6985 119.722 29.4834 120.479 29.4834C121.266 29.4834 121.88 29.7254 122.318 30.2094C122.705 30.6319 122.939 31.185 123.022 31.8687H122Z" fill="#6E9AEF"/>
<path d="M131.154 37.2152C130.64 37.2152 130.152 37.1153 129.69 36.9156C129.228 36.7159 128.823 36.4354 128.475 36.0744C128.127 35.7211 127.854 35.31 127.657 34.8414C127.461 34.3729 127.362 33.8735 127.362 33.3434C127.362 32.8133 127.457 32.314 127.646 31.8454C127.843 31.3768 128.119 30.962 128.475 30.601C128.823 30.2476 129.228 29.971 129.69 29.7713C130.152 29.5715 130.64 29.4717 131.154 29.4717C131.722 29.4717 132.26 29.5946 132.767 29.8404C133.274 30.0862 133.728 30.4512 134.129 30.9351L133.357 31.6034C132.736 30.8813 132.002 30.5203 131.154 30.5203C130.784 30.5203 130.428 30.5932 130.087 30.7393C129.754 30.8852 129.459 31.0887 129.201 31.3499C128.944 31.6111 128.743 31.9145 128.599 32.2603C128.456 32.5983 128.384 32.9593 128.384 33.3434C128.384 33.7276 128.456 34.0924 128.599 34.4381C128.743 34.7761 128.944 35.0758 129.201 35.3369C129.459 35.5981 129.754 35.8017 130.087 35.9477C130.428 36.0936 130.784 36.1666 131.154 36.1666C132.002 36.1666 132.736 35.8055 133.357 35.0834L134.129 35.7517C133.721 36.2357 133.262 36.6006 132.756 36.8464C132.256 37.0923 131.722 37.2152 131.154 37.2152Z" fill="#6E9AEF"/>
<path d="M142.001 37.2275C141.486 37.2275 140.998 37.1315 140.537 36.9395C140.082 36.7397 139.681 36.4593 139.332 36.0983C138.985 35.7449 138.712 35.3339 138.515 34.8653C138.318 34.389 138.22 33.8896 138.22 33.3673C138.22 32.8449 138.314 32.3533 138.504 31.8923C138.701 31.4238 138.977 31.0089 139.332 30.6479C139.681 30.2945 140.082 30.018 140.537 29.8182C140.998 29.6185 141.486 29.5186 142.001 29.5186C142.516 29.5186 143.004 29.6185 143.466 29.8182C143.927 30.018 144.332 30.2945 144.681 30.6479C145.029 31.0012 145.301 31.4122 145.498 31.8809C145.695 32.3494 145.794 32.8449 145.794 33.3673C145.794 33.8896 145.695 34.389 145.498 34.8653C145.301 35.3339 145.029 35.7449 144.681 36.0983C144.332 36.4517 143.927 36.7282 143.466 36.9279C143.004 37.1277 142.516 37.2275 142.001 37.2275ZM142.001 30.5672C141.63 30.5672 141.274 30.6402 140.934 30.7861C140.601 30.9244 140.305 31.1241 140.048 31.3853C139.791 31.6465 139.59 31.95 139.446 32.2956C139.31 32.6337 139.242 32.9909 139.242 33.3673C139.242 33.7514 139.314 34.1202 139.458 34.4735C139.602 34.8192 139.799 35.1188 140.048 35.3723C140.305 35.6335 140.601 35.8371 140.934 35.983C141.274 36.1213 141.63 36.1905 142.001 36.1905C142.372 36.1905 142.724 36.1213 143.057 35.983C143.397 35.8371 143.697 35.6335 143.954 35.3723C144.204 35.1188 144.401 34.8192 144.545 34.4735C144.688 34.1202 144.76 33.7514 144.76 33.3673C144.76 32.9909 144.688 32.6337 144.545 32.2956C144.408 31.95 144.211 31.6465 143.954 31.3853C143.697 31.1241 143.397 30.9244 143.057 30.7861C142.724 30.6402 142.372 30.5672 142.001 30.5672Z" fill="#6E9AEF"/>
<path d="M4.51977 43.3333C9.80538 43.0785 14.014 38.6268 14.014 33.1723C14.014 27.7179 9.80538 23.2661 4.51977 23.0113C4.25569 22.9985 4.04102 23.2184 4.04102 23.488V42.8566C4.04102 43.1263 4.25569 43.3461 4.51977 43.3333Z" fill="#6E9AEF"/>
<path d="M17.7188 35.1941C14.9058 33.2487 14.0041 29.3872 15.7301 26.3377C17.4562 23.2882 21.1857 22.154 24.2438 23.6662C24.4817 23.7839 24.5598 24.0845 24.4277 24.318L18.3641 35.0306C18.2319 35.2642 17.9377 35.3454 17.7188 35.1941Z" fill="#6E9AEF"/>
<path d="M16.1522 42.673C19.2103 44.1852 22.9398 43.0511 24.6659 40.0016C26.3919 36.9521 25.4902 33.0905 22.6772 31.1452C22.4584 30.9939 22.1641 31.0752 22.0319 31.3087L15.9683 42.0213C15.836 42.2548 15.9143 42.5554 16.1522 42.673Z" fill="#6E9AEF"/>
</g>
</svg>
