<svg width="141" height="65" viewBox="0 0 141 65" fill="none" xmlns="http://www.w3.org/2000/svg">
<g clip-path="url(#clip0_809_9240)">
<path d="M6 15.2915H26.24V20.6065H12.8459V26.3686H24.6525V31.7333H12.8459V37.4954H26.24V42.8105H6V15.2915Z" fill="#6E9AEF"/>
<path d="M29.7617 22.5439H36.1611L36.3596 24.2824C37.2525 23.6367 38.2943 23.1399 39.5841 22.7426C40.8739 22.3452 42.1637 22.1465 43.5031 22.1465C46.0827 22.1465 47.9678 22.7922 49.208 24.0341C50.3986 25.2759 51.0435 27.2132 51.0435 29.8458V42.8105H44.148V30.3922C44.148 29.2498 43.8999 28.455 43.4039 27.9583C42.9078 27.4615 42.0644 27.2132 40.8243 27.2132C40.0801 27.2132 39.336 27.3622 38.5423 27.7099C37.7982 28.0576 37.1533 28.455 36.6076 29.0014V42.8105H29.7617V22.5439Z" fill="#6E9AEF"/>
<path d="M55.3594 22.5437H61.3123L61.6596 24.2823C63.4454 22.8418 65.529 22.0967 68.0094 22.0967C74.2599 22.0967 77.3356 25.4745 77.3356 32.23C77.3356 35.8065 76.4923 38.5385 74.756 40.4261C73.0694 42.3137 70.6882 43.2078 67.6125 43.2078C65.4794 43.2078 63.6439 42.7607 62.1556 41.8666V51.9999H55.3594V22.5437ZM69.2496 36.6509C69.9937 35.6078 70.3905 34.1176 70.3905 32.1307C70.3905 30.2431 70.0433 28.9516 69.3984 28.2562C68.7535 27.5607 67.6125 27.213 66.0747 27.213C64.636 27.213 63.3462 27.7098 62.2549 28.7529V36.949C62.8005 37.396 63.3958 37.6941 63.9415 37.8928C64.4872 38.0914 65.1817 38.1908 65.9754 38.1908C67.4141 38.1908 68.5054 37.6444 69.2496 36.6509Z" fill="#6E9AEF"/>
<path d="M82.2468 41.5687C80.9074 40.4759 80.2129 38.8864 80.2129 36.8498C80.2129 34.7635 80.9074 33.1243 82.346 31.9321C83.7846 30.7399 85.8682 30.1935 88.6462 30.1935H94.3015V29.7465C94.3015 28.7033 93.9542 27.9582 93.2597 27.5112C92.5652 27.0641 91.2754 26.8654 89.4399 26.8654C87.158 26.8654 84.876 27.2132 82.6437 27.9582V23.5373C83.6854 23.1399 84.9256 22.7922 86.3643 22.5439C87.8029 22.2955 89.2911 22.1465 90.829 22.1465C94.0535 22.1465 96.5338 22.7922 98.2701 24.1334C100.006 25.4249 100.85 27.4615 100.85 30.1935V42.8105H94.8472L94.4999 41.1216C92.9125 42.5622 90.5809 43.2576 87.3564 43.2576C85.3225 43.2079 83.5862 42.6615 82.2468 41.5687ZM94.3015 37.0484V34.1674H89.4399C88.3982 34.1674 87.6541 34.3661 87.158 34.7635C86.6619 35.1609 86.4139 35.7569 86.4139 36.6014C86.4139 38.1909 87.4556 38.9857 89.5888 38.9857C91.6227 38.9857 93.2101 38.3399 94.3015 37.0484Z" fill="#6E9AEF"/>
<path d="M106.803 41.7673C105.86 40.8235 105.364 39.234 105.364 37.098V14H112.21V36.4026C112.21 37.0484 112.359 37.4954 112.607 37.7438C112.855 37.9922 113.252 38.0915 113.847 38.0915C114.591 38.0915 115.286 37.9922 115.881 37.7935V42.4627C115.187 42.7111 114.542 42.9098 113.897 43.0092C113.252 43.1085 112.458 43.1582 111.565 43.1582C109.382 43.2078 107.795 42.7111 106.803 41.7673Z" fill="#6E9AEF"/>
<path d="M131.161 44.0525C134.038 44.0525 136.37 41.7173 136.37 38.8368C136.37 35.9562 134.038 33.6211 131.161 33.6211C128.284 33.6211 125.952 35.9562 125.952 38.8368C125.952 41.7173 128.284 44.0525 131.161 44.0525Z" fill="#6E9AEF"/>
</g>
<defs>
<clipPath id="clip0_809_9240">
<rect width="130.369" height="37.9499" fill="white" transform="translate(6 14)"/>
</clipPath>
</defs>
</svg>
